<svg xmlns="http://www.w3.org/2000/svg" xmlns:xlink="http://www.w3.org/1999/xlink" id="logo-2-lines" viewBox="0 0 720 160"><defs><linearGradient id="Sfumatura_senza_nome_2" x1="67.49" x2="70.95" y1="275.56" y2="275.56" data-name="Sfumatura senza nome 2" gradientTransform="scale(-22 22)rotate(72 222.222 90.448)" gradientUnits="userSpaceOnUse"><stop offset="0" stop-color="#b3ce4d"/><stop offset=".3" stop-color="#b0cd4c"/><stop offset=".5" stop-color="#a7ca4b"/><stop offset=".67" stop-color="#98c54a"/><stop offset=".82" stop-color="#83be48"/><stop offset=".96" stop-color="#67b545"/><stop offset=".98" stop-color="#64b445"/><stop offset=".98" stop-color="#64b445"/><stop offset="1" stop-color="#64b445"/></linearGradient><linearGradient id="Sfumatura_senza_nome_150" x1="56.23" x2="59.69" y1="303.15" y2="303.15" data-name="Sfumatura senza nome 150" gradientTransform="scale(22 -22)rotate(72 242.647 112.745)" gradientUnits="userSpaceOnUse"><stop offset="0" stop-color="#21b5ea"/><stop offset=".29" stop-color="#20b2e8"/><stop offset=".46" stop-color="#20aae1"/><stop offset=".61" stop-color="#209bd6"/><stop offset=".73" stop-color="#1f87c7"/><stop offset=".85" stop-color="#1e6db3"/><stop offset=".95" stop-color="#1d4d9b"/><stop offset="1" stop-color="#1d3d8f"/><stop offset="1" stop-color="#1d3d8f"/><stop offset="1" stop-color="#1d3d8f"/></linearGradient><linearGradient xlink:href="#Sfumatura_senza_nome_2" id="Sfumatura_senza_nome_2-2" x1="37.06" x2="14.92" y1="16.07" y2="84.18" data-name="Sfumatura senza nome 2"/><linearGradient xlink:href="#Sfumatura_senza_nome_150" id="Sfumatura_senza_nome_150-2" x1="85.69" x2="108.84" y1="123.68" y2="52.42" data-name="Sfumatura senza nome 150"/><clipPath id="clippath"><path d="M13.95 29.85c-4.4 4.91-7.34 9-9.74 15.25C2.11 50.62.2 56.14.02 61.93s1.09 11.38 2.84 16.42l.03.09c3.06 2.61 10.01 7.25 20.88 4.58 8.2-2.02 14.98-8.19 19.59-13.72-.82.89-1.63 1.73-2.44 2.53-2.64 2.01-4.84 2.82-8.22 1.72-2.11-.69-3.73-1.81-4.86-3.37s-1.86-3.35-2.2-5.37-.25-4.11-.04-6.19c.59-2.57 1.33-4.02 2.33-5.67 1.85-3.06 3.37-4.76 6.06-7.42 3.79-3.04 11.9-7.96 15.1-9.18L35.05 15.42c-5.8 3.48-16.71 10-21.08 14.44" class="cls-1"/></clipPath><clipPath id="clippath-1"><path d="M99.62 53.46c-7.44 1.84-13.72 7.1-18.27 12.19.09-.08.17-.16.26-.24 2.82-2 5.81-2.87 8.45-2.01 2.01.65 3.78 1.48 4.67 2.5 1.15 1.51 2.25 2.81 2.71 4.42.4 1.99.72 4.22.51 6.47-.45 2.71-1.05 4.58-1.99 6.35-2.13 4.01-3.95 5.71-7.08 9.05-1.53 1.7-14.22 9.47-16.67 10.63l13.9 21c6.75-3.89 15.69-9.48 20.92-14.37 4.44-4.66 9.79-11.71 11.95-17.31 2.31-6 3.77-11.46 4.02-17.28.26-5.82-1.25-11.61-3-16.66q-.135-.405-.3-.81c-2.6-2.04-7.18-4.74-13.73-4.74-1.95 0-4.07.24-6.36.81" class="cls-1"/></clipPath><style>.cls-1{fill:none}.cls-3{fill:#21b5ea}.cls-5{fill:#1d3d8f}</style></defs><path d="M35.03 15.41c-5.8 3.48-16.71 10-21.07 14.44-4.4 4.91-7.34 9-9.74 15.26C2.11 50.62.2 56.14.02 61.93s1.09 11.38 2.84 16.42c1.76 5.05 4.97 9.38 8.72 13.29 3.76 3.91 9.02 6.15 15.11 7.9 6.24 1.79 11.18.83 15.94.06 4.66-1.41 7.53-2.55 11.65-5.48 3.9-3 7.64-6.67 11.06-10.8 3.16-3.73 4.94-5.84 7.97-9.17 3.15-3.33 5.58-6.32 8.31-8.73 2.81-2 5.8-2.87 8.45-2.01 2.01.65 3.78 1.48 4.67 2.5 1.15 1.51 2.26 2.81 2.71 4.42.41 1.98.72 4.21.51 6.47-.45 2.71-1.05 4.58-1.99 6.35-2.13 4.01-3.95 5.71-7.08 9.05-1.52 1.7-14.22 9.47-16.66 10.62l13.9 21c6.75-3.89 15.68-9.48 20.92-14.37 4.44-4.66 9.79-11.71 11.95-17.31 2.31-6 3.77-11.46 4.02-17.28.26-5.82-1.25-11.61-3-16.66-1.75-5.04-5.37-9.68-9.25-13.57-4.09-3.53-6.61-5.33-12.84-7.35-6.06-1.97-12.87-1.99-16.2-1.12-4.28.8-9.76 3.04-13.84 6.23-3.83 2.78-6.62 6.14-10.05 9.95-3.22 3.92-6.49 7.41-9.03 10.93-2.84 3.1-5.38 6.06-7.89 8.54-2.64 2-4.84 2.82-8.22 1.72-2.11-.69-3.73-1.81-4.86-3.37s-1.86-3.35-2.2-5.37c-.34-2.01-.25-4.11-.04-6.19.59-2.57 1.33-4.02 2.33-5.67 1.85-3.06 3.37-4.76 6.06-7.42 3.79-3.04 11.9-7.96 15.1-9.18L35.04 15.4Z" class="cls-5"/><g style="clip-path:url(#clippath)"><path d="m69.69 22.12-25.32 78.06-65.15-21.2L4.54.91z" style="fill:url(#Sfumatura_senza_nome_2)"/></g><g style="clip-path:url(#clippath-1)"><path d="m51.34 117.03 25.76-79.4 67.05 21.82-25.75 79.4z" style="fill:url(#Sfumatura_senza_nome_150)"/></g><path d="M68.68 136c5.93-5.54 6.25-14.84.72-20.78s-14.81-6.26-20.74-.73c-5.93 5.54-6.25 14.84-.72 20.78s14.82 6.26 20.74.73" class="cls-3"/><path d="M71.48 25.46c5.93-5.54 6.25-14.84.72-20.78s-14.81-6.26-20.74-.73c-5.93 5.54-6.25 14.84-.72 20.78s14.82 6.26 20.74.73" style="fill:#b3ce4d"/><path d="M295.83 27.11h26.13v2.18l-20.2 30.36h10.97c4.35 0 6.09-4.36 7.4-10.64h1.65v12.65h-29.96c-3.13 0-6.36.26-9.49.61V55.2h-.17c-2.26 4.8-6.97 7.68-12.63 7.68-8.54 0-10.28-4.28-10.28-8.46v-25.3h-4.7v-2.01h1.74c3.22 0 6.62-.09 9.75-.87v27.39c0 5.32 2.7 6.46 5.31 6.46 6.18 0 10.54-5.15 10.54-11.43V29.12h-4.96v-2.01h2c3.22 0 6.62-.09 9.75-.87v33.41h4.96v.09l20.38-30.62h-7.75c-4.53 0-7.14.7-8.45 9.33h-2V27.11Zm40.14-.88c-3.14.79-6.53.87-9.75.87h-2.87v2.01h5.83v30.53h-5.83v2h17.76v-2h-5.14zm-3.48-5.21c2.53 0 4.44-1.92 4.44-4.62 0-2.27-2.35-4.19-4.44-4.19s-4.18 1.92-4.18 4.19c0 2.53 1.65 4.62 4.18 4.62M248.54.76c-3.14.61-6.53.78-9.75.78h-3.74v2.01h6.71v56.09h-6.71v2h20.2v-2h-6.71zm127.58 43.71c0 10.55-7.66 18.32-16.81 18.32s-16.81-7.76-16.81-18.32 7.66-18.24 16.81-18.24 16.81 7.68 16.81 18.24m-7.93 0c0-7.24-.09-16.49-8.89-16.49s-8.88 9.24-8.88 16.49.09 16.57 8.88 16.57 8.89-9.25 8.89-16.57m-132.62 0c0 10.55-7.66 18.32-16.81 18.32s-16.81-7.76-16.81-18.32 7.66-18.24 16.81-18.24 16.81 7.68 16.81 18.24m-7.93 0c0-7.24-.09-16.49-8.88-16.49s-8.88 9.24-8.88 16.49.09 16.57 8.88 16.57 8.88-9.25 8.88-16.57m196.89-23.45c2.53 0 4.44-1.92 4.44-4.62 0-2.27-2.35-4.19-4.44-4.19s-4.18 1.92-4.18 4.19c0 2.53 1.65 4.62 4.18 4.62m-256.28-6.3c0-6.54 6.44-10.64 12.37-10.64 7.75 0 12.89 5.67 14.8 12.91h1.74V3.38h-1.22l-3.31 2.53c-1.74-1.31-7.4-3.84-11.41-3.84-6.62 0-10.88 2.79-13.5 6.2-2.52 3.31-3.57 6.37-3.57 9.95 0 4.89 2 10.21 7.05 13.35 1.31.87 14.81 5.32 18.03 6.54 6.71 2.71 7.92 5.06 7.92 10.21 0 7.68-7.14 12.65-14.63 12.65-8.45 0-14.45-6.11-16.81-14.04h-1.65v15h1.22l3.74-3.84c3.57 3.58 8.45 4.89 13.32 4.89 11.41 0 18.9-7.42 18.9-19.37 0-23.73-33-14.39-33-28.88Zm497.32 40.91h1.48c-.26 4.1-3.39 7.15-7.4 7.15-3.22 0-5.05-2.09-5.66-5.32-2.96 3.67-7.31 5.32-11.75 5.32-5.49 0-10.19-2.09-10.19-8.55.26-8.11 8.54-12.65 21.86-12.65v-8.29c0-4.1-3.22-5.32-6.27-5.32-1.91 0-8.1.61-8.1 3.14 0 .7 2.61 1.13 2.61 4.01 0 2.18-1.39 3.66-3.57 3.66-2.35 0-3.66-1.74-3.66-4.19 0-3.14 3.57-8.37 13.93-8.37 11.84 0 11.84 5.06 11.84 8.55v20.76c0 2.62 0 4.01 1.83 4.01s2.61-2.44 3.05-3.92Zm-11.66-12.21c-5.66.09-15.33 1.05-15.33 9.07 0 4.27 2.7 6.89 6.71 6.89 2.79 0 4.62-.7 6.71-2.53.7-.7 1.91-1.66 1.91-5.32zm26.64 16.31c-3.31 0-3.31-2.36-3.31-3.93V29.11h7.66V27.1h-7.66V16.02c-2.18.35-4.35.35-6.62.35V27.1h-5.14v2.01h4.97v26.08c0 4.19.7 7.59 6.97 7.59 3.48 0 7.75-2 9.4-5.32l-1.39-.96c-1.39 1.66-2.61 3.23-4.88 3.23m-51.11-25.38c-1.57 0-3.4-1.74-3.4-3.49 0-.7.35-1.48.35-1.83 0-.52-.53-.52-.79-.52-.09 0-3.05 1.22-4.96 5.15-1.22 2.53-2.18 5.93-2.18 9.42v16.57h6.7v2h-19.42v-2h5.92V29.12h-4.67c0 .1.06.16.06.26 0 1.74-.96 3.31-2.79 3.31-1.48 0-2.35-2.62-2.96-2.62-.87 0-1.91 1.22-1.91 2.09 0 .96 1.22 3.23 1.22 5.67 0 8.2-6.97 10.73-8.8 10.91-8.62 1.13-16.63 1.22-16.63 5.58 0 .96.96 1.83 2.26 1.83h9.32c11.93 0 14.2.52 16.98 3.66 1.74 2.01 2.44 4.45 2.44 7.07 0 10.73-9.4 14.57-17.68 14.57-12.54 0-16.72-5.41-16.72-9.07 0-6.11 5.75-8.46 10.19-9.6v-.26c-4.44-.61-9.49-1.22-9.49-7.5 0-4.8 5.4-6.2 8.71-6.72v-.18c-3.92-1.92-6.53-4.89-6.53-9.86 0-5.5 3.92-12.04 12.54-12.04 5.05 0 8.62 1.66 10.89 5.06.87-2.01 2.7-4.89 5.57-4.89.81 0 1.68.2 2.34.7h2.44c3.22 0 6.62-.09 9.75-.87v8.2h.18c1.57-3.92 5.05-8.2 9.84-8.2 2.96 0 5.31 1.57 5.31 4.89 0 2.18-2.26 3.23-4.09 3.23Zm-52.08 37.68c0 5.58 5.83 7.42 10.36 7.42 14.8 0 15.41-8.29 15.41-9.68 0-5.15-1.57-7.68-12.63-7.68-10.28 0-13.15 6.98-13.15 9.95Zm16.46-34.46c0-4.36-.7-9.6-5.92-9.6-4.35 0-6.44 2.09-6.44 10.38 0 3.93.78 9.16 5.57 9.16 6.36 0 6.79-4.54 6.79-9.95ZM718 50.83h1.92c-1.74 8.11-7.66 11.95-15.33 11.95-8.89 0-17.42-7.15-17.42-16.84 0-10.29 6.79-19.72 17.16-19.72 8.88 0 15.59 6.02 15.67 15.53h-24.64v3.58c0 8.64 1.13 15.62 10.63 15.62 4.96 0 10.8-4.36 12.01-10.12m-22.56-11.6h16.63v-2.97c0-6.28-3.66-8.29-8.01-8.29-5.22 0-7.57 4.89-7.75 5.49-.52 1.57-.78 3.58-.87 5.76ZM451.79 5.38h7.49v54.26h-7.49v2h23.43v-2h-7.49V5.38h7.49V3.37h-23.43zm59.22 29.58c0-8.03-7.23-8.73-10.36-8.73-6.36 0-9.75 3.75-12.19 9.25h-.17v-9.25c-1.57.35-3.22.61-4.88.7-1.57.18-3.22.18-4.88.18h-1.83v2.01h4.79v30.53h-4.79v2h16.28v-2h-4.7V43.42c0-6.54 4.53-14.66 10.45-14.66 3.48 0 5.49.96 5.49 7.33v23.55h-4.53v2h16.02v-2h-4.7V34.95Zm-82.99-8.73c-3.14.79-6.53.87-9.75.87h-2.88v2.01h5.84v30.53h-10.54V34.95c0-8.03-7.23-8.73-10.36-8.73-6.36 0-9.75 3.75-12.19 9.25h-.18v-9.25c-1.56.35-3.22.61-4.88.7-1.56.18-3.22.18-4.88.18h-1.83v2.01h4.79v30.53h-4.79v2h16.28v-2h-4.71V43.41c0-6.54 4.53-14.66 10.45-14.66 3.48 0 5.49.96 5.49 7.33v23.55h-4.53v2h33.79v-2H428v-33.4Zm102.49 33.5c-3.31 0-3.31-2.36-3.31-3.93V29.11h7.66V27.1h-7.66V16.02c-2.18.35-4.35.35-6.62.35V27.1h-5.14v2.01h4.96v26.08c0 4.19.7 7.59 6.97 7.59 3.48 0 7.75-2 9.41-5.32l-1.39-.96c-1.39 1.66-2.61 3.23-4.88 3.23m14.8-17.97v3.58c0 8.64 1.13 15.62 10.62 15.62 4.97 0 10.8-4.36 12.02-10.12h1.92c-1.74 8.11-7.66 11.95-15.33 11.95-8.88 0-17.42-7.15-17.42-16.84 0-10.29 6.79-19.72 17.16-19.72 8.88 0 15.59 6.02 15.68 15.53zm.09-2.53h16.63v-2.97c0-6.28-3.65-8.29-8.01-8.29-5.23 0-7.58 4.89-7.75 5.49-.53 1.57-.79 3.58-.87 5.76Z" style="fill:#3c3c3b"/><path d="M331.01 90.4c2.18 0 4.62 2 4.62 4.36 0 2.81-1.99 4.81-4.62 4.81s-4.35-2.18-4.35-4.81c0-2.36 2.08-4.36 4.35-4.36M397.38 90.5c2.18 0 4.62 1.99 4.62 4.36 0 2.81-1.99 4.81-4.62 4.81s-4.35-2.18-4.35-4.81c0-2.37 2.09-4.36 4.35-4.36" class="cls-5"/><path d="M355.32 102.47c-9.51 0-17.49 7.99-17.49 18.97s7.98 19.07 17.49 19.07 17.49-8.08 17.49-19.07-7.98-18.97-17.49-18.97m0 36.23c-9.15 0-9.24-9.62-9.24-17.25s.09-17.16 9.24-17.16 9.25 9.62 9.25 17.16-.09 17.25-9.25 17.25m-19.92-36.23c-3.26.82-6.8.91-10.15.91h-11.27c-1.57-.51-3.3-.85-5.31-.85-8.97 0-13.05 6.81-13.05 12.53 0 5.18 2.72 8.26 6.8 10.26v.19c-3.44.54-7.28 2.12-9.75 7.11-.54 1.08-.95 1.96-1.31 2.76-2.47-1.41-6.17-1.71-15.2-1.71h-9.7c-1.36 0-2.36-.91-2.36-1.91 0-4.54 8.34-4.63 17.31-5.81 1.9-.18 9.16-2.81 9.16-11.35 0-2.54-1.27-4.9-1.27-5.9 0-.91 1.96-2.18 2.87-2.18.64 0 1.54 2.72 3.08 2.72 1.91 0 2.9-1.64 2.9-3.45 0-2.36-1.9-3.09-3.53-3.09-2.99 0-5.77 3-6.67 5.08-2.36-3.54-6.08-5.26-11.33-5.26-8.97 0-13.05 6.81-13.05 12.53 0 5.18 2.72 8.26 6.8 10.26v.19c-3.44.54-9.06 2-9.06 6.99 0 .22.05.37.06.58h-.26c-.45 1.54-1.36 4.09-3.16 4.09-1.91 0-1.91-1.45-1.91-4.18v-21.61c0-3.63 0-8.9-12.33-8.9-10.78 0-14.5 5.45-14.5 8.72 0 2.55 1.36 4.36 3.81 4.36 2.26 0 3.72-1.54 3.72-3.82 0-2.99-2.72-3.45-2.72-4.18 0-2.63 6.43-3.27 8.43-3.27 3.17 0 6.52 1.27 6.52 5.54v8.63c-13.86 0-22.48 4.72-22.75 13.16 0 6.72 4.9 8.9 10.61 8.9 4.62 0 9.15-1.73 12.24-5.54.63 3.36 2.54 5.54 5.89 5.54s5.85-1.88 7.04-4.68c1.54 3.41 5.54 3.96 9.19 4.46v.27c-4.62 1.18-10.6 3.63-10.6 9.99 0 3.81 4.35 9.44 17.4 9.44 5.76 0 12.03-1.8 15.56-6.32 1.85 3.18 6.74 6.32 16.5 6.32 8.61 0 18.39-3.99 18.39-15.16 0-1.97-.4-3.83-1.29-5.5h13.61v-2.09h-5.35v-34.77Zm-65.2 12.38c0-8.63 2.18-10.81 6.7-10.81 5.44 0 6.16 5.45 6.16 9.99 0 5.62-.45 10.35-7.07 10.35-4.98 0-5.8-5.45-5.8-9.53Zm-21.25 13.95c0 3.81-1.27 4.81-1.99 5.54-2.18 1.9-4.08 2.63-6.98 2.63-4.17 0-6.98-2.72-6.98-7.18 0-8.35 10.06-9.35 15.95-9.44v8.44Zm53.31-13.95c0-8.62 2.18-10.8 6.71-10.8 5.44 0 6.16 5.45 6.16 9.99 0 5.63-.45 10.34-7.06 10.34-4.99 0-5.8-5.45-5.8-9.53Zm-25.54 42.76c-4.72 0-10.79-1.9-10.79-7.71 0-3.08 2.99-10.35 13.69-10.35 11.5 0 13.14 2.63 13.14 7.99 0 1.45-.63 10.08-16.04 10.08Zm32.06 0c-1.77 0-4.58-.62-6.34-1.26-2.93-1.07-4.44-2.82-4.44-6.45 0-2.32 1.68-6.98 7.04-9.17 1.78-.73 3.98-1.18 6.65-1.18 11.51 0 13.14 2.63 13.14 7.99 0 1.45-.63 10.08-16.04 10.08Zm19.55-20.37h-2.67c-2.81-3.05-5.36-3.57-17.45-3.57h-9.7c-1.36 0-2.36-.91-2.36-1.91 0-4.54 8.34-4.62 17.31-5.81 1.9-.18 9.16-2.81 9.16-11.35 0-3.99-2.63-6.81-2.63-6.81-.59-.89-1.27-1.66-2.04-2.33h10.38v31.77Zm78.03 0v2.09h-37.22v-2.09h6.98V81.11h-6.98v-2.09h3.9c3.36 0 6.89-.18 10.15-.81v59.03h10.76v-31.77h-6.07v-2.09h2.99c3.36 0 6.89-.09 10.15-.91v34.77h5.35Zm-186.72.01h6.89v2.09h-22.66v-2.09h6.98V81.87h-.19l-17.58 57.47h-2.35l-16.95-57.47h-.18v55.38h6.8v2.09h-16.32v-2.09h6.8V80.78h-6.8v-2.09h18.12l12.78 44.67h.18l13.33-44.67h18.04v2.09h-6.89z" class="cls-5"/><path d="M99.62 53.46c-7.44 1.84-13.72 7.1-18.27 12.19.09-.08.17-.16.26-.24 2.82-2 5.81-2.87 8.45-2.01 2.01.65 3.78 1.48 4.67 2.5 1.15 1.51 2.25 2.81 2.71 4.42.4 1.99.72 4.22.51 6.47-.45 2.71-1.05 4.58-1.99 6.35-2.13 4.01-3.95 5.71-7.08 9.05-1.53 1.7-14.22 9.47-16.67 10.63l13.9 21c6.75-3.89 15.69-9.48 20.92-14.37 4.44-4.66 9.79-11.71 11.95-17.31 2.31-6 3.77-11.46 4.02-17.28.26-5.82-1.25-11.61-3-16.66q-.135-.405-.3-.81c-2.6-2.04-7.18-4.74-13.73-4.74-1.95 0-4.07.24-6.36.81" class="cls-1"/><path d="M68.68 136c5.93-5.54 6.25-14.84.72-20.78s-14.81-6.26-20.74-.73c-5.93 5.54-6.25 14.84-.72 20.78s14.82 6.26 20.74.73" class="cls-3"/><path d="M13.95 29.85c-4.4 4.91-7.34 9-9.74 15.25C2.11 50.62.2 56.14.02 61.93s1.09 11.38 2.84 16.42l.03.09c3.06 2.61 10.01 7.25 20.88 4.58 8.2-2.02 14.98-8.19 19.59-13.72-.82.89-1.63 1.73-2.44 2.53-2.64 2.01-4.84 2.82-8.22 1.72-2.11-.69-3.73-1.81-4.86-3.37s-1.86-3.35-2.2-5.37-.25-4.11-.04-6.19c.59-2.57 1.33-4.02 2.33-5.67 1.85-3.06 3.37-4.76 6.06-7.42 3.79-3.04 11.9-7.96 15.1-9.18L35.05 15.42c-5.8 3.48-16.71 10-21.08 14.44" style="fill:url(#Sfumatura_senza_nome_2-2)"/><path d="M99.62 53.46c-7.44 1.84-13.72 7.1-18.27 12.19.09-.08.17-.16.26-.24 2.82-2 5.81-2.87 8.45-2.01 2.01.65 3.78 1.48 4.67 2.5 1.15 1.51 2.25 2.81 2.71 4.42.4 1.99.72 4.22.51 6.47-.45 2.71-1.05 4.58-1.99 6.35-2.13 4.01-3.95 5.71-7.08 9.05-1.53 1.7-14.22 9.47-16.67 10.63l13.9 21c6.75-3.89 15.69-9.48 20.92-14.37 4.44-4.66 9.79-11.71 11.95-17.31 2.31-6 3.77-11.46 4.02-17.28.26-5.82-1.25-11.61-3-16.66q-.135-.405-.3-.81c-2.6-2.04-7.18-4.74-13.73-4.74-1.95 0-4.07.24-6.36.81" style="fill:url(#Sfumatura_senza_nome_150-2)"/></svg>