<svg xmlns="http://www.w3.org/2000/svg" id="Livello_1" data-name="Livello 1" viewBox="0 0 520 300"><defs><clipPath id="clippath"><path d="M16.73 89c-5.27 5.86-8.81 10.73-11.68 18.2-2.52 6.58-4.81 13.17-5.03 20.07-.22 6.91 1.3 13.58 3.4 19.59a.3.3 0 0 0 .04.1c3.67 3.11 12 8.65 25.03 5.46 9.83-2.41 17.96-9.77 23.49-16.37-.98 1.06-1.96 2.07-2.92 3.02-3.16 2.4-5.81 3.37-9.86 2.05-2.53-.82-4.48-2.16-5.83-4.02-1.36-1.86-2.23-4-2.64-6.41s-.3-4.9-.05-7.38c.71-3.07 1.59-4.79 2.79-6.77 2.22-3.65 4.04-5.68 7.27-8.86 4.54-3.62 14.26-9.49 18.1-10.95L42 71.77C35.05 75.93 21.97 83.7 16.73 89" class="cls-2"/></clipPath><clipPath id="clippath-1"><path d="M83.56 79.78 53.2 172.91l-78.12-25.3L5.44 54.48z" class="cls-2"/></clipPath><clipPath id="clippath-2"><path d="M119.45 117.17c-8.93 2.19-16.46 8.46-21.91 14.54l.31-.28c3.38-2.39 6.96-3.42 10.13-2.4 2.41.78 4.54 1.76 5.61 2.98 1.37 1.8 2.7 3.35 3.25 5.27.48 2.37.86 5.03.61 7.72-.53 3.23-1.26 5.47-2.39 7.58-2.55 4.78-4.74 6.81-8.48 10.79-1.83 2.03-17.05 11.3-19.98 12.68l16.67 25.05c8.1-4.64 18.81-11.31 25.09-17.14 5.32-5.56 11.74-13.97 14.33-20.65 2.77-7.15 4.52-13.67 4.82-20.62.31-6.94-1.5-13.85-3.6-19.87q-.165-.48-.36-.96c-3.12-2.43-8.6-5.66-16.46-5.66-2.33 0-4.88.28-7.63.96" class="cls-2"/></clipPath><clipPath id="clippath-3"><path d="m61.57 193 30.87-94.72 80.41 26.04-30.88 94.72z" class="cls-2"/></clipPath><clipPath id="clippath-4"><path d="M16.73 89c-5.27 5.86-8.81 10.73-11.68 18.2-2.52 6.58-4.81 13.17-5.03 20.07-.22 6.91 1.3 13.58 3.4 19.59a.3.3 0 0 0 .04.1c3.67 3.11 12 8.65 25.03 5.46 9.83-2.41 17.96-9.77 23.49-16.37-.98 1.06-1.96 2.07-2.92 3.02-3.16 2.4-5.81 3.37-9.86 2.05-2.53-.82-4.48-2.16-5.83-4.02-1.36-1.86-2.23-4-2.64-6.41s-.3-4.9-.05-7.38c.71-3.07 1.59-4.79 2.79-6.77 2.22-3.65 4.04-5.68 7.27-8.86 4.54-3.62 14.26-9.49 18.1-10.95L42 71.77C35.05 75.93 21.97 83.7 16.73 89" class="cls-2"/></clipPath><clipPath id="clippath-5"><path d="M119.45 117.17c-8.93 2.19-16.46 8.46-21.91 14.54l.31-.28c3.38-2.39 6.96-3.42 10.13-2.4 2.41.78 4.54 1.76 5.61 2.98 1.37 1.8 2.7 3.35 3.25 5.27.48 2.37.86 5.03.61 7.72-.53 3.23-1.26 5.47-2.39 7.58-2.55 4.78-4.74 6.81-8.48 10.79-1.83 2.03-17.05 11.3-19.98 12.68l16.67 25.05c8.1-4.64 18.81-11.31 25.09-17.14 5.32-5.56 11.74-13.97 14.33-20.65 2.77-7.15 4.52-13.67 4.82-20.62.31-6.94-1.5-13.85-3.6-19.87q-.165-.48-.36-.96c-3.12-2.43-8.6-5.66-16.46-5.66-2.33 0-4.88.28-7.63.96" class="cls-2"/></clipPath><style>.cls-1{fill:#0087c8}.cls-2{fill:none}.cls-4{fill:#1b4a98}.cls-5{fill:#17abe3}.cls-6{fill:#1eb3e9}.cls-7{fill:#1bafe6}.cls-8{fill:#0198d5}.cls-9{fill:#a3c84a}.cls-10{fill:#1062aa}.cls-11{fill:#18ace4}.cls-12{fill:#1d4393}.cls-13{fill:#a5c94b}.cls-14{fill:#1d4594}.cls-15{fill:#96c349}.cls-16{fill:#0372b8}.cls-17{fill:#0471b7}.cls-18{fill:#008aca}.cls-19{fill:#20b4e9}.cls-20{fill:#099fda}.cls-21{fill:#1bb0e6}.cls-22{fill:#1aade5}.cls-23{fill:#0097d4}.cls-24{fill:#0096d4}.cls-25{fill:#0b69b0}.cls-26{fill:#19529e}.cls-27{fill:#1b4c99}.cls-28{fill:#007fc2}.cls-29{fill:#9dc549}.cls-30{fill:#11a5df}.cls-31{fill:#8ec048}.cls-32{fill:#0ca2dc}.cls-33{fill:#007ec1}.cls-34{fill:#aaca4b}.cls-35{fill:#1fb4e9}.cls-36{fill:#066db3}.cls-37{fill:#accb4c}.cls-38{fill:#1aaee5}.cls-39{fill:#1755a1}.cls-40{fill:#007bbe}.cls-41{fill:#079dd9}.cls-42{fill:#b1cd4d}.cls-43{fill:#b1cd4c}.cls-44{fill:#1757a2}.cls-45{fill:#0093d1}.cls-46{fill:#007dc0}.cls-47{fill:#13a7e0}.cls-48{fill:#19509d}.cls-49{fill:#0086c7}.cls-50{fill:#12a7e0}.cls-51{fill:#1d4191}.cls-52{fill:#aecc4c}.cls-53{fill:#21b5ea}.cls-54{fill:#11a6df}.cls-55{fill:#85bd47}.cls-56{fill:#6fb746}.cls-57{fill:#b2ce4d}.cls-58{fill:#0aa0db}.cls-59{fill:#0095d3}.cls-60{fill:#0085c6}.cls-61{fill:#096ab1}.cls-62{fill:#049cd8}.cls-63{fill:#9fc64a}.cls-64{fill:#b0cd4c}.cls-65{fill:#8cc048}.cls-66{fill:#0088c9}.cls-67{fill:#92c248}.cls-68{fill:#a6c94b}.cls-69{fill:#1db2e8}.cls-70{fill:#059cd8}.cls-71{fill:#007abe}.cls-72{fill:#1a4f9c}.cls-73{fill:#68b545}.cls-74{fill:#0082c4}.cls-75{fill:#0091d0}.cls-76{fill:#19ade4}.cls-77{fill:#008ccc}.cls-78{fill:#20b5ea}.cls-79{fill:#0089c9}.cls-80{fill:#1160a9}.cls-81{fill:#125fa8}.cls-82{fill:#0275ba}.cls-83{fill:#029ad7}.cls-84{fill:#15a9e1}.cls-85{fill:#0e64ad}.cls-86{fill:#0ba1db}.cls-87{fill:#0090cf}.cls-88{fill:#0373b9}.cls-89{fill:#1c4897}.cls-90{fill:#1cb0e7}.cls-91{fill:#076bb2}.cls-92{fill:#008fce}.cls-93{fill:#0da2dc}.cls-94{fill:#7cbb46}.cls-100{fill:#82bc47}.cls-101{fill:#91c148}.cls-102{fill:#16aae2}.cls-103{fill:#0094d2}.cls-104{fill:#adcc4c}.cls-105{fill:#0f63ac}.cls-106{fill:#1db1e7}.cls-107{fill:#1b4d9b}.cls-108{fill:#1eb3e8}.cls-109{fill:#008dcd}.cls-110{fill:#008bcb}.cls-111{fill:#1fb3e9}.cls-112{fill:#18ace3}.cls-113{fill:#a1c74a}.cls-114{fill:#0077bc}.cls-115{fill:#a2c74a}.cls-116{fill:#6cb645}.cls-117{fill:#089ed9}.cls-118{fill:#0fa4de}.cls-119{fill:#0ea3dd}.cls-120{fill:#1d3f90}.cls-121{fill:#069dd9}.cls-122{fill:#1eb2e8}.cls-123{fill:#a4c84b}.cls-124{fill:#12a6df}.cls-125{fill:#1854a0}.cls-126{fill:#73b846}.cls-127{fill:#1659a3}.cls-128{fill:#007cbf}.cls-129{fill:#a9ca4b}.cls-130{fill:#0199d6}.cls-131{fill:#066eb5}.cls-132{fill:#1cb1e7}.cls-133{fill:#afcc4c}.cls-134{fill:#0093d2}.cls-135{fill:#0d66ae}.cls-136{fill:#008ece}.cls-137{fill:#1d3d8f}.cls-138{fill:#0299d6}.cls-139{fill:#145ca6}.cls-140{fill:#abcb4c}.cls-141{fill:#9bc549}.cls-142{fill:#79ba46}.cls-143{fill:#14a8e1}.cls-144{fill:#0084c5}.cls-145{fill:#64b445}.cls-146{fill:#0ca1dc}.cls-147{fill:#20b4ea}.cls-148{fill:#0c67af}.cls-149{fill:#b2cd4d}.cls-150{fill:#0083c5}.cls-151{fill:#155aa4}.cls-152{fill:#135da7}.cls-153{fill:#adcb4c}.cls-154{fill:#089fda}.cls-155{fill:#99c449}.cls-156{fill:#039bd7}.cls-157{fill:#1c4695}.cls-158{fill:#b3ce4d}.cls-159{fill:#a7c94b}.cls-160{fill:#98c449}.cls-161{fill:#1cb0e6}.cls-162{fill:#0096d3}.cls-163{fill:#7fbc47}.cls-164{fill:#15aae2}.cls-165{fill:#15a9e2}.cls-166{fill:#0092d0}.cls-167{fill:#008bcc}.cls-168{fill:#056fb6}.cls-169{fill:#0176bb}.cls-170{fill:#a8ca4b}.cls-171{fill:#88be47}.cls-172{fill:#1db1e8}.cls-173{fill:#9ec64a}.cls-175{fill:#0078bd}.cls-176{fill:#76b946}.cls-177{fill:#94c248}.cls-178{fill:#10a5de}.cls-179{fill:#8abf47}.cls-180{fill:#abcb4b}.cls-181{fill:#10a4de}.cls-182{fill:#0080c3}</style></defs><path d="M42 71.78C35.05 75.93 21.97 83.71 16.73 89c-5.27 5.86-8.81 10.74-11.68 18.2-2.53 6.58-4.8 13.17-5.03 20.07-.22 6.91 1.3 13.58 3.4 19.59 2.11 6.02 5.96 11.19 10.46 15.85s10.82 7.34 18.12 9.42c7.48 2.13 13.41.99 19.11.07 5.59-1.68 9.03-3.05 13.97-6.54 4.67-3.58 9.17-7.95 13.26-12.89 3.79-4.45 5.92-6.96 9.56-10.93 3.78-3.97 6.69-7.54 9.97-10.41 3.37-2.39 6.96-3.42 10.13-2.4 2.41.78 4.54 1.76 5.6 2.98 1.38 1.8 2.71 3.35 3.25 5.28.49 2.37.86 5.03.62 7.72-.53 3.23-1.26 5.47-2.39 7.58-2.55 4.78-4.74 6.81-8.49 10.79-1.83 2.02-17.05 11.29-19.98 12.67l16.67 25.05c8.1-4.64 18.8-11.31 25.09-17.14 5.32-5.56 11.74-13.97 14.33-20.65 2.77-7.16 4.52-13.67 4.82-20.62.31-6.95-1.49-13.85-3.59-19.87s-6.44-11.55-11.09-16.19c-4.91-4.21-7.92-6.35-15.4-8.77-7.27-2.35-15.44-2.38-19.43-1.34-5.13.96-11.7 3.63-16.6 7.44-4.59 3.32-7.94 7.33-12.05 11.87-3.86 4.67-7.78 8.84-10.83 13.04-3.4 3.7-6.45 7.23-9.46 10.19-3.16 2.39-5.81 3.37-9.86 2.05-2.54-.82-4.48-2.16-5.83-4.02s-2.23-3.99-2.64-6.41c-.41-2.4-.3-4.9-.05-7.38.71-3.07 1.59-4.79 2.79-6.77 2.21-3.65 4.04-5.68 7.27-8.86 4.54-3.62 14.27-9.49 18.11-10.95L42.02 71.76Z" class="cls-137"/><g style="clip-path:url(#clippath)"><g style="clip-path:url(#clippath-1)"><path d="M83.56 79.78 5.7 54.48h77.86z" class="cls-158"/><path d="M83.56 81.14 1.53 54.48H5.7l77.86 25.3z" class="cls-158"/><path d="M83.56 82.49-2.65 54.48h4.18l82.03 26.66z" class="cls-158"/><path d="M83.56 83.85-6.82 54.48h4.17l86.21 28.01z" class="cls-158"/><path d="M83.56 85.21-11 54.48h4.18l90.38 29.37z" class="cls-158"/><path d="m83.56 86.57-98.74-32.09H-11l94.56 30.73zM83.56 87.92-19.35 54.48h4.17l98.74 32.09z" class="cls-158"/><path d="m83.56 89.28-107.09-34.8h4.18L83.56 87.92z" class="cls-158"/><path d="M83.56 90.64-24.92 55.39v-.91h1.39l107.09 34.8z" class="cls-158"/><path d="M83.56 91.99-24.92 56.75v-1.36L83.56 90.64z" class="cls-158"/><path d="M83.56 93.35-24.92 58.1v-1.35L83.56 91.99z" class="cls-158"/><path d="M83.56 94.71-24.92 59.46V58.1L83.56 93.35z" class="cls-158"/><path d="M83.56 96.06-24.92 60.82v-1.36L83.56 94.71z" class="cls-158"/><path d="M83.56 97.42-24.92 62.17v-1.35L83.56 96.06z" class="cls-158"/><path d="M83.56 98.78-24.92 63.53v-1.36L83.56 97.42z" class="cls-158"/><path d="M83.56 100.13-24.92 64.89v-1.36L83.56 98.78z" class="cls-158"/><path d="M83.56 101.49-24.92 66.24v-1.35l108.48 35.24z" class="cls-57"/><path d="M83.56 102.85-24.92 67.6v-1.36l108.48 35.25z" class="cls-57"/><path d="M83.56 104.2-24.92 68.96V67.6l108.48 35.25zM83.56 105.56-24.92 70.31v-1.35L83.56 104.2z" class="cls-149"/><path d="M83.56 106.92-24.92 71.67v-1.36l108.48 35.25z" class="cls-42"/><path d="M83.56 108.27-24.92 73.03v-1.36l108.48 35.25zM83.56 109.63-24.92 74.38v-1.35l108.48 35.24z" class="cls-43"/><path d="M83.56 110.99-24.92 75.74v-1.36l108.48 35.25z" class="cls-43"/><path d="M83.56 112.35-24.92 77.1v-1.36l108.48 35.25z" class="cls-64"/><path d="M83.56 113.7-24.92 78.46V77.1l108.48 35.25z" class="cls-64"/><path d="M83.56 115.06-24.92 79.81v-1.35L83.56 113.7z" class="cls-133"/><path d="M83.56 116.42-24.92 81.17v-1.36l108.48 35.25z" class="cls-133"/><path d="M83.56 117.77-24.92 82.53v-1.36l108.48 35.25zM83.56 119.13-24.92 83.88v-1.35l108.48 35.24z" class="cls-52"/><path d="M83.56 120.49-24.92 85.24v-1.36l108.48 35.25z" class="cls-104"/><path d="M83.56 121.84-24.92 86.6v-1.36l108.48 35.25z" class="cls-153"/><path d="M83.56 123.2-24.92 87.95V86.6l108.48 35.24z" class="cls-37"/><path d="M83.56 124.56-24.92 89.31v-1.36L83.56 123.2z" class="cls-140"/><path d="M83.56 125.91-24.92 90.67v-1.36l108.48 35.25z" class="cls-180"/><path d="M83.56 127.27-24.92 92.02v-1.35l108.48 35.24z" class="cls-34"/><path d="M83.56 128.63-24.92 93.38v-1.36l108.48 35.25z" class="cls-129"/><path d="M83.56 129.98-24.92 94.74v-1.36l108.48 35.25z" class="cls-170"/><path d="M83.56 131.34-24.92 96.09v-1.35l108.48 35.24z" class="cls-159"/><path d="M83.56 132.7-24.92 97.45v-1.36l108.48 35.25z" class="cls-68"/><path d="M83.56 134.05-24.92 98.81v-1.36L83.56 132.7z" class="cls-13"/><path d="m83.56 135.41-108.48-35.25v-1.35l108.48 35.24z" class="cls-123"/><path d="m83.56 136.77-108.48-35.25v-1.36l108.48 35.25z" class="cls-9"/><path d="m83.56 138.13-108.48-35.25v-1.36l108.48 35.25z" class="cls-115"/><path d="m83.56 139.48-108.48-35.24v-1.36l108.48 35.25z" class="cls-113"/><path d="m83.56 140.84-108.48-35.25v-1.35l108.48 35.24z" class="cls-63"/><path d="m83.56 142.2-108.48-35.25v-1.36l108.48 35.25z" class="cls-173"/><path d="m83.56 143.55-108.48-35.24v-1.36L83.56 142.2z" class="cls-29"/><path d="m83.56 144.91-108.48-35.25v-1.35l108.48 35.24z" class="cls-141"/><path d="m83.56 146.27-108.48-35.25v-1.36l108.48 35.25z" class="cls-155"/><path d="m83.56 147.62-108.48-35.24v-1.36l108.48 35.25z" class="cls-160"/><path d="m83.56 148.98-108.48-35.25v-1.35l108.48 35.24z" class="cls-15"/><path d="m83.56 150.34-108.48-35.25v-1.36l108.48 35.25z" class="cls-177"/><path d="m83.56 151.69-108.48-35.24v-1.36l108.48 35.25z" class="cls-67"/><path d="M83.56 153.05-24.92 117.8v-1.35l108.48 35.24z" class="cls-101"/><path d="m83.56 154.41-108.48-35.25v-1.36l108.48 35.25z" class="cls-31"/><path d="m83.56 155.76-108.48-35.24v-1.36l108.48 35.25z" class="cls-65"/><path d="m83.56 157.12-108.48-35.25v-1.35l108.48 35.24z" class="cls-179"/><path d="m83.56 158.48-108.48-35.25v-1.36l108.48 35.25z" class="cls-171"/><path d="m83.56 159.83-108.48-35.24v-1.36l108.48 35.25z" class="cls-55"/><path d="m83.56 161.19-108.48-35.25v-1.35l108.48 35.24z" class="cls-100"/><path d="M83.56 162.55-24.92 127.3v-1.36l108.48 35.25z" class="cls-163"/><path d="m83.56 163.91-108.48-35.25v-1.36l108.48 35.25z" class="cls-94"/><path d="m83.56 165.26-108.48-35.24v-1.36l108.48 35.25z" class="cls-142"/><path d="m83.56 166.62-108.48-35.25v-1.35l108.48 35.24z" class="cls-176"/><path d="m83.56 167.98-108.48-35.25v-1.36l108.48 35.25z" class="cls-126"/><path d="m83.56 169.33-108.48-35.24v-1.36l108.48 35.25z" class="cls-56"/><path d="m83.56 170.69-108.48-35.25v-1.35l108.48 35.24z" class="cls-116"/><path d="M83.56 172.05-24.92 136.8v-1.36l108.48 35.25z" class="cls-73"/><path d="m82.03 172.91-106.95-34.75v-1.36l108.48 35.25v.86z" class="cls-145"/><path d="m76.27 172.91-101.19-32.88v-1.87l106.95 34.75z" class="cls-145"/><path d="m-24.92 140.03 101.19 32.88H-24.92z" class="cls-145"/></g></g><g style="clip-path:url(#clippath-2)"><g style="clip-path:url(#clippath-3)"><path d="m61.57 188.98 92.5 30.06h-92.5z" class="cls-53"/><path d="m61.57 188.5 93.97 30.54h-1.47l-92.5-30.06z" class="cls-53"/><path d="m61.57 188.02 95.45 31.02h-1.48L61.57 188.5zM61.57 187.54l96.92 31.5h-1.47l-95.45-31.02zM61.57 187.06l98.4 31.98h-1.48l-96.92-31.5z" class="cls-53"/><path d="m61.57 186.58 99.87 32.46h-1.47l-98.4-31.98zM61.57 186.1l101.35 32.94h-1.48l-99.87-32.46z" class="cls-53"/><path d="m61.57 185.63 102.82 33.41h-1.47L61.57 186.1z" class="cls-53"/><path d="m61.57 185.15 104.3 33.89h-1.48L61.57 185.63zM61.57 184.67l105.77 34.37h-1.47l-104.3-33.89z" class="cls-53"/><path d="m61.57 184.19 107.25 34.85h-1.48L61.57 184.67z" class="cls-53"/><path d="m61.57 183.71 108.72 35.33h-1.47L61.57 184.19zM61.57 183.23l110.2 35.81h-1.48L61.57 183.71z" class="cls-53"/><path d="m61.57 182.75 111.28 36.16v.13h-1.08l-110.2-35.81z" class="cls-53"/><path d="m61.57 182.27 111.28 36.16v.48L61.57 182.75zM61.57 181.79l111.28 36.16v.48L61.57 182.27z" class="cls-53"/><path d="m61.57 181.31 111.28 36.16v.48L61.57 181.79z" class="cls-53"/><path d="m61.57 180.83 111.28 36.16v.48L61.57 181.31zM61.57 180.35l111.28 36.16v.48L61.57 180.83z" class="cls-53"/><path d="m61.57 179.87 111.28 36.16v.48L61.57 180.35zM61.57 179.39l111.28 36.16v.48L61.57 179.87z" class="cls-53"/><path d="m61.57 178.92 111.28 36.15v.48L61.57 179.39z" class="cls-53"/><path d="m61.57 178.44 111.28 36.15v.48L61.57 178.92z" class="cls-53"/><path d="m61.57 177.96 111.28 36.15v.48L61.57 178.44zM61.57 177.48l111.28 36.16v.47L61.57 177.96z" class="cls-53"/><path d="m61.57 177 111.28 36.16v.48L61.57 177.48z" class="cls-78"/><path d="m61.57 176.52 111.28 36.16v.48L61.57 177zM61.57 176.04l111.28 36.16v.48L61.57 176.52z" class="cls-78"/><path d="m61.57 175.56 111.28 36.16v.48L61.57 176.04z" class="cls-78"/><path d="m61.57 175.08 111.28 36.16v.48L61.57 175.56zM61.57 174.6l111.28 36.16v.48L61.57 175.08z" class="cls-78"/><path d="m61.57 174.12 111.28 36.16v.48L61.57 174.6zM61.57 173.64l111.28 36.16v.48L61.57 174.12z" class="cls-78"/><path d="m61.57 173.16 111.28 36.16v.48L61.57 173.64z" class="cls-78"/><path d="m61.57 172.68 111.28 36.16v.48L61.57 173.16z" class="cls-78"/><path d="m61.57 172.21 111.28 36.15v.48L61.57 172.68zM61.57 171.73l111.28 36.15v.48L61.57 172.21z" class="cls-78"/><path d="m61.57 171.25 111.28 36.15v.48L61.57 171.73z" class="cls-78"/><path d="m61.57 170.77 111.28 36.15v.48L61.57 171.25zM61.57 170.29l111.28 36.16v.47L61.57 170.77z" class="cls-78"/><path d="m61.57 169.81 111.28 36.16v.48L61.57 170.29z" class="cls-147"/><path d="m61.57 169.33 111.28 36.16v.48L61.57 169.81zM61.57 168.85l111.28 36.16v.48L61.57 169.33z" class="cls-147"/><path d="m61.57 168.37 111.28 36.16v.48L61.57 168.85zM61.57 167.89l111.28 36.16v.48L61.57 168.37z" class="cls-147"/><path d="m61.57 167.41 111.28 36.16v.48L61.57 167.89z" class="cls-19"/><path d="m61.57 166.93 111.28 36.16v.48L61.57 167.41zM61.57 166.45l111.28 36.16v.48L61.57 166.93z" class="cls-35"/><path d="m61.57 165.97 111.28 36.16v.48L61.57 166.45z" class="cls-35"/><path d="m61.57 165.49 111.28 36.16v.48L61.57 165.97z" class="cls-35"/><path d="m61.57 165.02 111.28 36.15v.48L61.57 165.49zM61.57 164.54l111.28 36.15v.48L61.57 165.02z" class="cls-35"/><path d="m61.57 164.06 111.28 36.15v.48L61.57 164.54z" class="cls-111"/><path d="m61.57 163.58 111.28 36.16v.47L61.57 164.06zM61.57 163.1l111.28 36.16v.48L61.57 163.58z" class="cls-111"/><path d="m61.57 162.62 111.28 36.16v.48L61.57 163.1zM61.57 162.14l111.28 36.16v.48L61.57 162.62z" class="cls-6"/><path d="m61.57 161.66 111.28 36.16v.48L61.57 162.14z" class="cls-6"/><path d="m61.57 161.18 111.28 36.16v.48L61.57 161.66zM61.57 160.7l111.28 36.16v.48L61.57 161.18z" class="cls-108"/><path d="m61.57 160.22 111.28 36.16v.48L61.57 160.7z" class="cls-122"/><path d="m61.57 159.74 111.28 36.16v.48L61.57 160.22zM61.57 159.26l111.28 36.16v.48L61.57 159.74z" class="cls-122"/><path d="m61.57 158.78 111.28 36.16v.48L61.57 159.26z" class="cls-69"/><path d="m61.57 158.31 111.28 36.15v.48L61.57 158.78z" class="cls-69"/><path d="m61.57 157.83 111.28 36.15v.48L61.57 158.31z" class="cls-69"/><path d="m61.57 157.35 111.28 36.15v.48L61.57 157.83z" class="cls-172"/><path d="m61.57 156.87 111.28 36.16v.47L61.57 157.35zM61.57 156.39l111.28 36.16v.48L61.57 156.87z" class="cls-106"/><path d="m61.57 155.91 111.28 36.16v.48L61.57 156.39z" class="cls-106"/><path d="m61.57 155.43 111.28 36.16v.48L61.57 155.91zM61.57 154.95l111.28 36.16v.48L61.57 155.43z" class="cls-132"/><path d="m61.57 154.47 111.28 36.16v.48L61.57 154.95z" class="cls-90"/><path d="m61.57 153.99 111.28 36.16v.48L61.57 154.47z" class="cls-90"/><path d="m61.57 153.51 111.28 36.16v.48L61.57 153.99z" class="cls-161"/><path d="m61.57 153.03 111.28 36.16v.48L61.57 153.51z" class="cls-21"/><path d="m61.57 152.55 111.28 36.16v.48L61.57 153.03zM61.57 152.07l111.28 36.16v.48L61.57 152.55z" class="cls-7"/><path d="m61.57 151.6 111.28 36.15v.48L61.57 152.07z" class="cls-7"/><path d="m61.57 151.12 111.28 36.15v.48L61.57 151.6z" class="cls-7"/><path d="m61.57 150.64 111.28 36.15v.48L61.57 151.12z" class="cls-38"/><path d="m61.57 150.16 111.28 36.15v.48L61.57 150.64z" class="cls-38"/><path d="m61.57 149.68 111.28 36.16v.47L61.57 150.16z" class="cls-38"/><path d="m61.57 149.2 111.28 36.16v.48L61.57 149.68z" class="cls-22"/><path d="m61.57 148.72 111.28 36.16v.48L61.57 149.2z" class="cls-76"/><path d="m61.57 148.24 111.28 36.16v.48L61.57 148.72zM61.57 147.76l111.28 36.16v.48L61.57 148.24z" class="cls-76"/><path d="m61.57 147.28 111.28 36.16v.48L61.57 147.76z" class="cls-11"/><path d="m61.57 146.8 111.28 36.16v.48L61.57 147.28z" class="cls-11"/><path d="m61.57 146.32 111.28 36.16v.48L61.57 146.8z" class="cls-112"/><path d="M61.57 145.84 172.85 182v.48L61.57 146.32z" class="cls-5"/><path d="m61.57 145.36 111.28 36.16v.48L61.57 145.84zM61.57 144.88l111.28 36.16v.48L61.57 145.36z" class="cls-5"/><path d="m61.57 144.41 111.28 36.15v.48L61.57 144.88z" class="cls-102"/><path d="m61.57 143.93 111.28 36.15v.48L61.57 144.41z" class="cls-102"/><path d="m61.57 143.45 111.28 36.15v.48L61.57 143.93z" class="cls-164"/><path d="m61.57 142.97 111.28 36.16v.47L61.57 143.45z" class="cls-165"/><path d="m61.57 142.49 111.28 36.16v.48L61.57 142.97z" class="cls-84"/><path d="m61.57 142.01 111.28 36.16v.48L61.57 142.49z" class="cls-143"/><path d="m61.57 141.53 111.28 36.16v.48L61.57 142.01z" class="cls-143"/><path d="m61.57 141.05 111.28 36.16v.48L61.57 141.53zM61.57 140.57l111.28 36.16v.48L61.57 141.05z" class="cls-47"/><path d="m61.57 140.09 111.28 36.16v.48L61.57 140.57z" class="cls-50"/><path d="m61.57 139.61 111.28 36.16v.48L61.57 140.09z" class="cls-124"/><path d="m61.57 139.13 111.28 36.16v.48L61.57 139.61z" class="cls-54"/><path d="m61.57 138.65 111.28 36.16v.48L61.57 139.13z" class="cls-30"/><path d="m61.57 138.17 111.28 36.16v.48L61.57 138.65z" class="cls-178"/><path d="m61.57 137.7 111.28 36.15v.48L61.57 138.17z" class="cls-181"/><path d="m61.57 137.22 111.28 36.15v.48L61.57 137.7z" class="cls-118"/><path d="m61.57 136.74 111.28 36.15v.48L61.57 137.22zM61.57 136.26l111.28 36.16v.47L61.57 136.74z" class="cls-119"/><path d="m61.57 135.78 111.28 36.16v.48L61.57 136.26z" class="cls-93"/><path d="m61.57 135.3 111.28 36.16v.48L61.57 135.78z" class="cls-32"/><path d="m61.57 134.82 111.28 36.16v.48L61.57 135.3z" class="cls-146"/><path d="m61.57 134.34 111.28 36.16v.48L61.57 134.82z" class="cls-86"/><path d="m61.57 133.86 111.28 36.16v.48L61.57 134.34z" class="cls-58"/><path d="m61.57 133.38 111.28 36.16v.48L61.57 133.86z" class="cls-20"/><path d="m61.57 132.9 111.28 36.16v.48L61.57 133.38z" class="cls-154"/><path d="m61.57 132.42 111.28 36.16v.48L61.57 132.9z" class="cls-117"/><path d="m61.57 131.94 111.28 36.16v.48L61.57 132.42z" class="cls-41"/><path d="m61.57 131.46 111.28 36.16v.48L61.57 131.94z" class="cls-121"/><path d="m61.57 130.99 111.28 36.15v.48L61.57 131.46z" class="cls-70"/><path d="m61.57 130.51 111.28 36.15v.48L61.57 130.99z" class="cls-62"/><path d="m61.57 130.03 111.28 36.15v.48L61.57 130.51z" class="cls-156"/><path d="m61.57 129.55 111.28 36.15v.48L61.57 130.03z" class="cls-83"/><path d="m61.57 129.07 111.28 36.16v.47L61.57 129.55z" class="cls-138"/><path d="m61.57 128.59 111.28 36.16v.48L61.57 129.07z" class="cls-130"/><path d="m61.57 128.11 111.28 36.16v.48L61.57 128.59z" class="cls-8"/><path d="m61.57 127.63 111.28 36.16v.48L61.57 128.11z" class="cls-23"/><path d="m61.57 127.15 111.28 36.16v.48L61.57 127.63z" class="cls-24"/><path d="m61.57 126.67 111.28 36.16v.48L61.57 127.15z" class="cls-162"/><path d="m61.57 126.19 111.28 36.16v.48L61.57 126.67z" class="cls-59"/><path d="m61.57 125.71 111.28 36.16v.48L61.57 126.19z" class="cls-103"/><path d="m61.57 125.23 111.28 36.16v.48L61.57 125.71z" class="cls-134"/><path d="m61.57 124.75 111.28 36.16v.48L61.57 125.23z" class="cls-45"/><path d="m61.57 124.27 111.28 36.16v.48L61.57 124.75z" class="cls-166"/><path d="m61.57 123.8 111.28 36.15v.48L61.57 124.27z" class="cls-75"/><path d="m61.57 123.32 111.28 36.15v.48L61.57 123.8z" class="cls-87"/><path d="m61.57 122.84 111.28 36.15v.48L61.57 123.32z" class="cls-92"/><path d="m61.57 122.36 111.28 36.16v.47L61.57 122.84z" class="cls-136"/><path d="m61.57 121.88 111.28 36.16v.48L61.57 122.36z" class="cls-109"/><path d="m61.57 121.4 111.28 36.16v.48L61.57 121.88z" class="cls-77"/><path d="m61.57 120.92 111.28 36.16v.48L61.57 121.4z" class="cls-167"/><path d="m61.57 120.44 111.28 36.16v.48L61.57 120.92z" class="cls-110"/><path d="m61.57 119.96 111.28 36.16v.48L61.57 120.44z" class="cls-18"/><path d="m61.57 119.48 111.28 36.16v.48L61.57 119.96z" class="cls-79"/><path d="m61.57 119 111.28 36.16v.48L61.57 119.48z" class="cls-66"/><path d="m61.57 118.52 111.28 36.16v.48L61.57 119z" class="cls-1"/><path d="m61.57 118.04 111.28 36.16v.48L61.57 118.52z" class="cls-49"/><path d="m61.57 117.56 111.28 36.16v.48L61.57 118.04z" class="cls-60"/><path d="m61.57 117.09 111.28 36.15v.48L61.57 117.56z" class="cls-144"/><path d="m61.57 116.61 111.28 36.15v.48L61.57 117.09z" class="cls-150"/><path d="m61.57 116.13 111.28 36.15v.48L61.57 116.61z" class="cls-74"/><path d="m61.57 115.65 111.28 36.16v.47L61.57 116.13z" class="cls-182"/><path d="m61.57 115.17 111.28 36.16v.48L61.57 115.65z" class="cls-28"/><path d="m61.57 114.69 111.28 36.16v.48L61.57 115.17z" class="cls-33"/><path d="m61.57 114.21 111.28 36.16v.48L61.57 114.69z" class="cls-46"/><path d="m61.57 113.73 111.28 36.16v.48L61.57 114.21z" class="cls-128"/><path d="m61.57 113.25 111.28 36.16v.48L61.57 113.73z" class="cls-40"/><path d="m61.57 112.77 111.28 36.16v.48L61.57 113.25z" class="cls-71"/><path d="m61.57 112.29 111.28 36.16v.48L61.57 112.77z" class="cls-175"/><path d="m61.57 111.81 111.28 36.16v.48L61.57 112.29z" class="cls-114"/><path d="m61.57 111.33 111.28 36.16v.48L61.57 111.81z" class="cls-169"/><path d="m61.57 110.85 111.28 36.16v.48L61.57 111.33z" class="cls-82"/><path d="m61.57 110.38 111.28 36.15v.48L61.57 110.85z" class="cls-88"/><path d="m61.57 109.9 111.28 36.15v.48L61.57 110.38z" class="cls-16"/><path d="m61.57 109.42 111.28 36.15v.48L61.57 109.9z" class="cls-17"/><path d="m61.57 108.94 111.28 36.15v.48L61.57 109.42z" class="cls-168"/><path d="m61.57 108.46 111.28 36.16v.47L61.57 108.94z" class="cls-131"/><path d="m61.57 107.98 111.28 36.16v.48L61.57 108.46z" class="cls-36"/><path d="m61.57 107.5 111.28 36.16v.48L61.57 107.98z" class="cls-91"/><path d="m61.57 107.02 111.28 36.16v.48L61.57 107.5z" class="cls-61"/><path d="m61.57 106.54 111.28 36.16v.48L61.57 107.02z" class="cls-25"/><path d="m61.57 106.06 111.28 36.16v.48L61.57 106.54z" class="cls-148"/><path d="m61.57 105.58 111.28 36.16v.48L61.57 106.06z" class="cls-135"/><path d="m61.57 105.1 111.28 36.16v.48L61.57 105.58z" class="cls-85"/><path d="m61.57 104.62 111.28 36.16v.48L61.57 105.1z" class="cls-105"/><path d="m61.57 104.14 111.28 36.16v.48L61.57 104.62z" class="cls-10"/><path d="m61.57 103.66 111.28 36.16v.48L61.57 104.14z" class="cls-80"/><path d="m61.57 103.19 111.28 36.15v.48L61.57 103.66z" class="cls-81"/><path d="m61.57 102.71 111.28 36.15v.48L61.57 103.19z" class="cls-152"/><path d="m61.57 102.23 111.28 36.15v.48L61.57 102.71z" class="cls-139"/><path d="m61.57 101.75 111.28 36.16v.47L61.57 102.23z" class="cls-151"/><path d="m61.57 101.27 111.28 36.16v.48L61.57 101.75z" class="cls-127"/><path d="m61.57 100.79 111.28 36.16v.48L61.57 101.27z" class="cls-44"/><path d="m61.57 100.31 111.28 36.16v.48L61.57 100.79z" class="cls-39"/><path d="m61.57 99.83 111.28 36.16v.48L61.57 100.31z" class="cls-125"/><path d="m61.57 99.35 111.28 36.16v.48L61.57 99.83z" class="cls-26"/><path d="m61.57 98.87 111.28 36.16v.48L61.57 99.35z" class="cls-48"/><path d="m61.57 98.39 111.28 36.16v.48L61.57 98.87z" class="cls-72"/><path d="m62.69 98.28 110.16 35.79v.48L61.57 98.39v-.11z" class="cls-107"/><path d="m64.17 98.28 108.68 35.31v.48L62.69 98.28z" class="cls-27"/><path d="m65.64 98.28 107.21 34.83v.48L64.17 98.28z" class="cls-4"/><path d="m67.12 98.28 105.73 34.35v.48L65.64 98.28z" class="cls-89"/><path d="m68.59 98.28 104.26 33.87v.48L67.12 98.28z" class="cls-157"/><path d="m70.07 98.28 102.78 33.39v.48L68.59 98.28z" class="cls-14"/><path d="m71.54 98.28 101.31 32.92v.47L70.07 98.28z" class="cls-12"/><path d="m73.02 98.28 99.83 32.44v.48L71.54 98.28z" class="cls-51"/><path d="m74.49 98.28 98.36 31.96v.48L73.02 98.28z" class="cls-120"/><path d="m75.97 98.28 96.88 31.48v.48L74.49 98.28z" class="cls-137"/><path d="m76.33 98.28 96.52 31.36v.12L75.97 98.28z" class="cls-137"/><path d="M172.85 129.64 76.33 98.28h96.52z" class="cls-137"/></g></g><path d="M82.35 215.63c7.11-6.6 7.5-17.7.87-24.79-6.63-7.08-17.76-7.47-24.87-.87-7.11 6.61-7.5 17.71-.87 24.79s17.77 7.47 24.87.87" class="cls-53"/><path d="M85.71 83.76c7.11-6.6 7.5-17.7.87-24.79-6.63-7.08-17.76-7.47-24.87-.87-7.11 6.61-7.5 17.71-.87 24.79s17.77 7.47 24.87.87" class="cls-158"/><path d="M82.35 215.63c7.11-6.6 7.5-17.7.87-24.79-6.63-7.08-17.76-7.47-24.87-.87-7.11 6.61-7.5 17.71-.87 24.79s17.77 7.47 24.87.87" class="cls-53"/><g style="clip-path:url(#clippath-4)"><path d="M58.84 77.25 42 71.77h16.84z" class="cls-158"/><path d="m58.84 78.52-20.77-6.75H42l16.84 5.48zM58.84 79.8l-24.7-8.03h3.93l20.77 6.75z" class="cls-158"/><path d="m58.84 81.08-28.63-9.31h3.93l24.7 8.03zM58.84 82.35 26.28 71.77h3.93l28.63 9.31z" class="cls-158"/><path d="M58.84 83.63 22.35 71.77h3.93l32.56 10.58z" class="cls-158"/><path d="M58.84 84.91 18.42 71.77h3.93l36.49 11.86z" class="cls-158"/><path d="M58.84 86.18 14.49 71.77h3.93l40.42 13.14z" class="cls-158"/><path d="m58.84 87.46-45.23-14.7.32-.99h.56l44.35 14.41zM58.84 88.74 13.23 73.92l.38-1.16 45.23 14.7zM58.84 90.02 12.86 75.08l.37-1.16 45.61 14.82zM58.84 91.29 12.48 76.23l.38-1.15 45.98 14.94z" class="cls-158"/><path d="M58.84 92.57 12.11 77.39l.37-1.16 46.36 15.06z" class="cls-158"/><path d="M58.84 93.85 11.73 78.54l.38-1.15 46.73 15.18zM58.84 95.12 11.36 79.7l.37-1.16 47.11 15.31z" class="cls-158"/><path d="M58.84 96.4 10.98 80.85l.38-1.15 47.48 15.42z" class="cls-158"/><path d="M58.84 97.68 10.6 82.01l.38-1.16L58.84 96.4z" class="cls-57"/><path d="M58.84 98.95 10.23 83.16l.37-1.15 48.24 15.67z" class="cls-57"/><path d="M58.84 100.23 9.85 84.32l.38-1.16 48.61 15.79z" class="cls-149"/><path d="M58.84 101.51 9.48 85.47l.37-1.15 48.99 15.91z" class="cls-149"/><path d="M58.84 102.79 9.1 86.63l.38-1.16 49.36 16.04z" class="cls-42"/><path d="M58.84 104.06 8.73 87.78l.37-1.15 49.74 16.16z" class="cls-43"/><path d="M58.84 105.34 8.35 88.94l.38-1.16 50.11 16.28z" class="cls-43"/><path d="M58.84 106.62 7.98 90.09l.37-1.15 50.49 16.4z" class="cls-43"/><path d="M58.84 107.89 7.6 91.25l.38-1.16 50.86 16.53z" class="cls-64"/><path d="M58.84 109.17 7.23 92.4l.37-1.15 51.24 16.64z" class="cls-64"/><path d="M58.84 110.45 6.85 93.56l.38-1.16 51.61 16.77z" class="cls-133"/><path d="M58.84 111.73 6.48 94.71l.37-1.15 51.99 16.89z" class="cls-133"/><path d="M58.84 113 6.1 95.87l.38-1.16 52.36 17.02z" class="cls-52"/><path d="M58.84 114.28 5.73 97.02l.37-1.15L58.84 113z" class="cls-52"/><path d="M58.84 115.56 5.35 98.18l.38-1.16 53.11 17.26z" class="cls-104"/><path d="M58.84 116.83 4.98 99.33l.37-1.15 53.49 17.38z" class="cls-153"/><path d="M58.84 118.11 4.6 100.49l.38-1.16 53.86 17.5z" class="cls-37"/><path d="M58.84 119.39 4.22 101.64l.38-1.15 54.24 17.62z" class="cls-140"/><path d="M58.84 120.66 3.85 102.8l.37-1.16 54.62 17.75z" class="cls-180"/><path d="m58.84 121.43-.15.46-55.22-17.94.38-1.15 54.99 17.86z" class="cls-34"/><path d="m3.096 105.105.374-1.15 55.218 17.94-.374 1.152z" class="cls-129"/><path d="m2.722 106.265.374-1.15 55.218 17.94-.374 1.152z" class="cls-170"/><path d="m2.351 107.412.374-1.15 55.218 17.941-.374 1.15z" class="cls-159"/><path d="m1.977 108.572.374-1.15 55.218 17.94-.374 1.152z" class="cls-68"/><path d="m1.593 109.729.374-1.15 55.218 17.94-.374 1.151z" class="cls-13"/><path d="m1.222 110.88.374-1.152 55.218 17.942-.374 1.15z" class="cls-123"/><path d="m.838 112.046.374-1.15 55.219 17.94-.374 1.152z" class="cls-9"/><path d="m.477 113.196.374-1.15 55.218 17.941-.373 1.15z" class="cls-115"/><path d="m.093 114.353.374-1.15 55.219 17.94-.374 1.152z" class="cls-113"/><path d="m55.31 132.29-.37 1.15-55.13-17.91v-.29l.29-.89z" class="cls-63"/><path d="m54.94 133.44-.38 1.16-54.75-17.79v-1.28z" class="cls-173"/><path d="m54.56 134.6-.38 1.15-54.37-17.67v-1.27z" class="cls-29"/><path d="m54.18 135.75-.37 1.16-54-17.55v-1.28z" class="cls-141"/><path d="m53.81 136.91-.38 1.15-53.62-17.42v-1.28z" class="cls-155"/><path d="m53.43 138.06-.37 1.16-53.25-17.3v-1.28z" class="cls-160"/><path d="m53.06 139.22-.38 1.15-52.87-17.18v-1.27z" class="cls-15"/><path d="m52.68 140.37-.37 1.16-52.5-17.06v-1.28z" class="cls-177"/><path d="m52.31 141.53-.38 1.15-52.12-16.93v-1.28z" class="cls-67"/><path d="m51.93 142.68-.37 1.16-51.75-16.82v-1.27z" class="cls-101"/><path d="m51.56 143.84-.38 1.15L-.19 128.3v-1.28z" class="cls-31"/><path d="m51.18 144.99-.37 1.16-51-16.57v-1.28z" class="cls-65"/><path d="m50.81 146.15-.38 1.15-50.62-16.44v-1.28z" class="cls-179"/><path d="m50.43 147.3-.37 1.16-50.25-16.33v-1.27z" class="cls-171"/><path d="m50.06 148.46-.38 1.15-49.87-16.2v-1.28z" class="cls-55"/><path d="m49.68 149.61-.37 1.16-49.5-16.08v-1.28z" class="cls-100"/><path d="m49.31 150.77-.38 1.16-49.12-15.97v-1.27z" class="cls-163"/><path d="m48.93 151.93-.38 1.15-48.74-15.84v-1.28z" class="cls-94"/><path d="m48.55 153.08-.37 1.16-48.37-15.72v-1.28z" class="cls-142"/><path d="m48.18 154.24-.38 1.15-47.99-15.6v-1.27z" class="cls-176"/><path d="m47.8 155.39-.07.23h-3.16L-.19 141.07v-1.28z" class="cls-126"/><path d="M40.64 155.62-.19 142.35v-1.28l44.76 14.55z" class="cls-56"/><path d="m36.71 155.62-36.9-11.99v-1.28l40.83 13.27z" class="cls-116"/><path d="M32.78 155.62-.19 144.9v-1.27l36.9 11.99z" class="cls-73"/><path d="m28.85 155.62-29.04-9.44v-1.28l32.97 10.72z" class="cls-145"/><path d="m23.42 155.62-23.61-7.68v-1.76l29.04 9.44zM-.19 147.94l23.61 7.68H-.19z" class="cls-145"/></g><g style="clip-path:url(#clippath-5)"><path d="m86.6 195.69 16.67 5.42H86.6z" class="cls-53"/><path d="m86.6 195.22 18.12 5.89h-1.45l-16.67-5.42z" class="cls-53"/><path d="m86.6 194.75 19.57 6.36h-1.45l-18.12-5.89z" class="cls-53"/><path d="m86.6 194.27 21.02 6.84h-1.45l-19.57-6.36zM86.6 193.8l22.48 7.31h-1.46l-21.02-6.84z" class="cls-53"/><path d="m86.6 193.33 23.93 7.78h-1.45L86.6 193.8z" class="cls-53"/><path d="m86.6 192.86 25.38 8.25h-1.45l-23.93-7.78zM86.6 192.39l26.83 8.72h-1.45l-25.38-8.25z" class="cls-53"/><path d="m86.6 191.91 28.29 9.2h-1.46l-26.83-8.72z" class="cls-53"/><path d="m86.6 191.44 29.74 9.67h-1.45l-28.29-9.2z" class="cls-53"/><path d="m86.6 190.97 31.19 10.14h-1.45l-29.74-9.67z" class="cls-53"/><path d="m86.6 190.5 32.64 10.61h-1.45L86.6 190.97z" class="cls-53"/><path d="m86.6 190.03 34.1 11.08h-1.46L86.6 190.5z" class="cls-53"/><path d="m86.6 189.56 35.55 11.55h-1.45l-34.1-11.08z" class="cls-53"/><path d="m86.6 189.08 37 12.03h-1.45L86.6 189.56zM86.6 188.61l38.46 12.5h-1.46l-37-12.03zM86.6 188.14l39.91 12.97h-1.45l-38.46-12.5z" class="cls-53"/><path d="m86.6 187.67 41.36 13.44h-1.45L86.6 188.14z" class="cls-53"/><path d="m86.6 187.2 42.81 13.91h-1.45L86.6 187.67z" class="cls-53"/><path d="m86.6 186.72 44.27 14.39h-1.46L86.6 187.2z" class="cls-53"/><path d="m86.6 186.25 45.72 14.86h-1.45L86.6 186.72zM86.6 185.78l46.43 15.09-.07.24h-.64L86.6 186.25z" class="cls-53"/><path d="m86.6 185.31 46.57 15.13-.14.43-46.43-15.09zM86.6 184.84l46.71 15.17-.14.43-46.57-15.13z" class="cls-53"/><path d="m86.6 184.36 46.85 15.23-.14.42-46.71-15.17z" class="cls-53"/><path d="m86.6 183.89 46.99 15.27-.14.43-46.85-15.23z" class="cls-78"/><path d="m86.6 183.42 47.13 15.31-.14.43-46.99-15.27zM86.6 182.95l47.27 15.36-.14.42-47.13-15.31z" class="cls-78"/><path d="m86.6 182.48 47.41 15.4-.14.43-47.27-15.36z" class="cls-78"/><path d="m86.6 182 47.54 15.45-.13.43-47.41-15.4z" class="cls-78"/><path d="m86.6 181.53 47.68 15.49-.14.43L86.6 182zM86.6 181.06l47.82 15.54-.14.42-47.68-15.49z" class="cls-78"/><path d="m86.6 180.59 47.96 15.58-.14.43-47.82-15.54z" class="cls-78"/><path d="m86.6 180.12 48.1 15.62-.14.43-47.96-15.58zM86.6 179.64l48.24 15.68-.14.42-48.1-15.62z" class="cls-78"/><path d="m86.6 179.17 48.38 15.72-.14.43-48.24-15.68zM86.6 178.7l48.52 15.76-.14.43-48.38-15.72z" class="cls-78"/><path d="m86.6 178.23 48.65 15.81-.13.42L86.6 178.7z" class="cls-78"/><path d="m86.6 177.76 48.79 15.85-.14.43-48.65-15.81z" class="cls-78"/><path d="m86.6 177.28 48.93 15.9-.14.43-48.79-15.85z" class="cls-78"/><path d="m86.6 176.81 49.07 15.95-.14.42-48.93-15.9z" class="cls-147"/><path d="m86.6 176.34 49.21 15.99-.14.43-49.07-15.95z" class="cls-147"/><path d="m86.6 175.87 49.35 16.03-.14.43-49.21-15.99zM86.6 175.4l49.49 16.07-.14.43-49.35-16.03zM86.6 174.92l49.62 16.13-.13.42L86.6 175.4z" class="cls-147"/><path d="m86.6 174.45 49.76 16.17-.14.43-49.62-16.13z" class="cls-19"/><path d="m86.6 173.98 49.9 16.21-.14.43-49.76-16.17zM86.6 173.51l50.04 16.26-.14.42-49.9-16.21z" class="cls-35"/><path d="m86.6 173.04 50.18 16.3-.14.43-50.04-16.26z" class="cls-35"/><path d="m86.6 172.56 50.32 16.35-.14.43-50.18-16.3zM86.6 172.09l50.46 16.4-.14.42-50.32-16.35z" class="cls-35"/><path d="m86.6 171.62 50.6 16.44-.14.43-50.46-16.4z" class="cls-35"/><path d="m86.6 171.15 50.73 16.48-.13.43-50.6-16.44zM86.6 170.68l50.87 16.53-.14.42-50.73-16.48zM86.6 170.2l51.01 16.58-.14.43-50.87-16.53z" class="cls-111"/><path d="m86.6 169.73 51.15 16.62-.14.43L86.6 170.2z" class="cls-6"/><path d="m86.6 169.26 51.29 16.66-.14.43-51.15-16.62zM86.6 168.79l51.43 16.71-.14.42-51.29-16.66z" class="cls-6"/><path d="m86.6 168.32 51.57 16.75-.14.43-51.43-16.71z" class="cls-108"/><path d="m86.6 167.84 51.71 16.8-.14.43-51.57-16.75z" class="cls-108"/><path d="m86.6 167.37 51.84 16.85-.13.42-51.71-16.8z" class="cls-122"/><path d="m86.6 166.9 51.98 16.89-.14.43-51.84-16.85zM86.6 166.43l52.12 16.93-.14.43L86.6 166.9z" class="cls-122"/><path d="m86.6 165.96 52.26 16.98-.14.42-52.12-16.93zM86.6 165.48l52.4 17.03-.14.43-52.26-16.98z" class="cls-69"/><path d="m86.6 165.01 52.54 17.07-.14.43-52.4-17.03z" class="cls-69"/><path d="m86.6 164.54 52.68 17.12-.14.42-52.54-17.07z" class="cls-172"/><path d="m86.6 164.07 52.82 17.16-.14.43-52.68-17.12zM86.6 163.6l52.95 17.2-.13.43-52.82-17.16z" class="cls-106"/><path d="m86.6 163.12 53.09 17.25-.14.43-52.95-17.2z" class="cls-106"/><path d="m86.6 162.65 53.23 17.3-.14.42-53.09-17.25zM86.6 162.18l53.37 17.34-.14.43-53.23-17.3z" class="cls-132"/><path d="m86.6 161.71 53.51 17.38-.14.43-53.37-17.34zM86.6 161.24l53.65 17.43-.14.42-53.51-17.38z" class="cls-90"/><path d="m86.6 160.76 53.79 17.48-.14.43-53.65-17.43z" class="cls-161"/><path d="m86.6 160.29 53.92 17.52-.13.43-53.79-17.48z" class="cls-21"/><path d="m86.6 159.82 54.06 17.57-.14.42-53.92-17.52zM86.6 159.35l54.2 17.61-.14.43-54.06-17.57z" class="cls-7"/><path d="m86.6 158.93.01-.05 54.33 17.65-.14.43-54.2-17.61z" class="cls-7"/><path d="m86.61 158.883.14-.428 54.324 17.65-.139.429z" class="cls-7"/><path d="m86.755 158.46.139-.428 54.324 17.65-.139.429zM86.889 158.024l.139-.428 54.324 17.65-.139.429z" class="cls-38"/><path d="m87.033 157.598.14-.428 54.324 17.65-.14.429z" class="cls-38"/><path d="m87.168 157.172.139-.428 54.324 17.65-.14.429z" class="cls-22"/><path d="m87.311 156.739.14-.428 54.324 17.65-.14.429z" class="cls-76"/><path d="m87.443 156.322.139-.428 54.324 17.651-.14.428z" class="cls-76"/><path d="m87.577 155.896.139-.428 54.324 17.651-.139.428z" class="cls-76"/><path d="m87.73 155.473.14-.428 54.324 17.651-.139.428zM87.865 155.037l.14-.428 54.323 17.651-.139.428z" class="cls-11"/><path d="m88 154.611.138-.428 54.325 17.651-.14.428z" class="cls-112"/><path d="m88.143 154.188.14-.428 54.324 17.651-.14.428zM88.277 153.752l.14-.428 54.324 17.651-.14.428z" class="cls-5"/><path d="m88.412 153.326.139-.428 54.324 17.651-.139.428z" class="cls-5"/><path d="m88.562 152.913.14-.428 54.324 17.65-.14.429zM88.697 152.477l.139-.428 54.324 17.65-.139.429z" class="cls-102"/><path d="m88.831 152.05.14-.427 54.324 17.65-.14.429z" class="cls-164"/><path d="m88.965 151.625.14-.428 54.324 17.65-.14.429z" class="cls-165"/><path d="m89.11 151.192.138-.428 54.325 17.65-.14.429z" class="cls-84"/><path d="m89.254 150.766.139-.428 54.324 17.65-.14.429z" class="cls-143"/><path d="m89.388 150.34.139-.428 54.324 17.65-.139.429z" class="cls-143"/><path d="m89.532 149.917.139-.428 54.324 17.65-.139.429z" class="cls-47"/><path d="m89.663 149.49.139-.428 54.324 17.651-.139.428z" class="cls-47"/><path d="m89.797 149.064.14-.428 54.324 17.651-.14.428z" class="cls-50"/><path d="m89.951 148.641.14-.428 54.323 17.651-.139.428z" class="cls-124"/><path d="m90.085 148.205.14-.428 54.324 17.651-.14.428z" class="cls-54"/><path d="m90.22 147.78.139-.429 54.324 17.651-.139.428z" class="cls-30"/><path d="m90.363 147.356.14-.428 54.324 17.651-.14.428z" class="cls-178"/><path d="m90.498 146.92.139-.428 54.324 17.651-.139.428z" class="cls-181"/><path d="m90.632 146.494.14-.428 54.323 17.651-.139.428z" class="cls-118"/><path d="m90.773 146.078.14-.428 54.324 17.65-.14.429zM90.917 145.645l.14-.428 54.323 17.65-.139.429z" class="cls-119"/><path d="m91.051 145.219.14-.428 54.324 17.65-.14.429z" class="cls-93"/><path d="m91.186 144.793.139-.428 54.324 17.65-.139.429z" class="cls-32"/><path d="m91.33 144.37.139-.428 54.324 17.65-.14.429z" class="cls-146"/><path d="m91.474 143.934.139-.428 54.324 17.65-.139.429z" class="cls-86"/><path d="m91.608 143.508.14-.428 54.324 17.65-.14.429z" class="cls-58"/><path d="m91.749 143.094.139-.428 54.324 17.651-.139.428z" class="cls-20"/><path d="m91.883 142.658.14-.428 54.324 17.651-.14.428z" class="cls-154"/><path d="m92.017 142.232.14-.428 54.324 17.651-.14.428z" class="cls-117"/><path d="m92.171 141.81.14-.429 54.324 17.651-.14.428z" class="cls-41"/><path d="m92.306 141.373.139-.428 54.324 17.651-.139.428z" class="cls-121"/><path d="m92.44 140.947.139-.428 54.324 17.651-.139.428z" class="cls-70"/><path d="m92.574 140.521.14-.428 54.324 17.651-.14.428z" class="cls-62"/><path d="m92.718 140.098.14-.428 54.323 17.651-.139.428z" class="cls-156"/><path d="m92.85 139.672.138-.428 54.325 17.651-.14.428z" class="cls-83"/><path d="m92.994 139.246.139-.428 54.324 17.65-.14.429z" class="cls-138"/><path d="m93.137 138.823.14-.428 54.324 17.651-.14.428z" class="cls-130"/><path d="m93.272 138.387.139-.428 54.324 17.651-.139.428z" class="cls-8"/><path d="m93.41 137.96.14-.42 54.26 17.63v.21l-.07.23z" class="cls-23"/><path d="m93.55 137.54.14-.43 54.12 17.58v.48z" class="cls-24"/><path d="m93.69 137.11.14-.43 53.98 17.54v.47z" class="cls-162"/><path d="m93.83 136.68.14-.43 53.84 17.5v.47z" class="cls-59"/><path d="m93.97 136.25.13-.42 53.71 17.45v.47z" class="cls-103"/><path d="m94.1 135.83.14-.43 53.57 17.41v.47z" class="cls-134"/><path d="m94.24 135.4.14-.43 53.43 17.36v.48z" class="cls-45"/><path d="m94.38 134.97.14-.42 53.29 17.31v.47z" class="cls-166"/><path d="m94.52 134.55.14-.43 53.15 17.27v.47z" class="cls-75"/><path d="m94.66 134.12.14-.43 53.01 17.23v.47z" class="cls-87"/><path d="m94.8 133.69.14-.42 52.87 17.18v.47z" class="cls-92"/><path d="m94.94 133.27.14-.43 52.73 17.13v.48z" class="cls-136"/><path d="m95.08 132.84.13-.43 52.6 17.09v.47z" class="cls-109"/><path d="m95.21 132.41.14-.42 52.46 17.04v.47z" class="cls-77"/><path d="m95.35 131.99.14-.43 52.32 17v.47z" class="cls-167"/><path d="m95.49 131.56.14-.43 52.18 16.96v.47z" class="cls-110"/><path d="m95.63 131.13.14-.43 52.04 16.91v.48z" class="cls-18"/><path d="m95.77 130.7.14-.42 51.9 16.86v.47z" class="cls-79"/><path d="m95.91 130.28.14-.43 51.76 16.82v.47z" class="cls-66"/><path d="m96.05 129.85.14-.43 51.62 16.78v.47z" class="cls-1"/><path d="m96.19 129.42.13-.42 51.49 16.73v.47z" class="cls-49"/><path d="m96.32 129 .14-.43 51.35 16.68v.48z" class="cls-60"/><path d="m96.46 128.57.14-.43 51.21 16.64v.47z" class="cls-144"/><path d="m96.6 128.14.14-.42 51.07 16.59v.47z" class="cls-150"/><path d="m96.74 127.72.14-.43 50.93 16.55v.47z" class="cls-74"/><path d="m96.88 127.29.14-.43 50.79 16.51v.47z" class="cls-182"/><path d="m97.02 126.86.14-.42 50.65 16.45v.48z" class="cls-28"/><path d="m97.16 126.44.14-.43 50.51 16.41v.47z" class="cls-33"/><path d="m97.3 126.01.13-.43 50.38 16.37v.47z" class="cls-46"/><path d="m97.43 125.58.14-.43 50.24 16.33v.47z" class="cls-128"/><path d="m97.57 125.15.14-.42 50.1 16.28v.47z" class="cls-40"/><path d="m97.71 124.73.14-.43 49.96 16.23v.48z" class="cls-71"/><path d="m97.85 124.3.14-.43 49.82 16.19v.47z" class="cls-175"/><path d="m97.99 123.87.14-.42 49.68 16.14v.47z" class="cls-114"/><path d="m98.13 123.45.14-.43 49.54 16.1v.47z" class="cls-169"/><path d="m98.27 123.02.13-.43 49.41 16.06v.47z" class="cls-82"/><path d="m98.4 122.59.14-.42 49.27 16v.48z" class="cls-88"/><path d="m98.54 122.17.14-.43 49.13 15.96v.47z" class="cls-16"/><path d="m98.68 121.74.14-.43 48.99 15.92v.47z" class="cls-17"/><path d="m98.82 121.31.14-.42 48.85 15.87v.47z" class="cls-168"/><path d="m98.96 120.89.14-.43 48.71 15.83v.47z" class="cls-131"/><path d="m99.1 120.46.14-.43 48.57 15.78v.48z" class="cls-36"/><path d="m99.24 120.03.14-.43 48.43 15.74v.47z" class="cls-91"/><path d="m99.38 119.6.13-.42 48.3 15.69v.47z" class="cls-61"/><path d="m99.51 119.18.14-.43 48.16 15.65v.47z" class="cls-25"/><path d="m99.65 118.75.14-.43 48.02 15.61v.47z" class="cls-148"/><path d="m99.79 118.32.14-.42 47.88 15.55v.48z" class="cls-135"/><path d="m99.93 117.9.14-.43 47.74 15.51v.47z" class="cls-85"/><path d="m100.07 117.47.14-.43 47.6 15.47v.47z" class="cls-105"/><path d="m100.21 117.04.14-.42 47.46 15.42v.47z" class="cls-10"/><path d="m100.35 116.62.13-.41h.07l47.26 15.36v.47z" class="cls-80"/><path d="m102 116.21 45.81 14.89v.47l-47.26-15.36z" class="cls-81"/><path d="m103.45 116.21 44.36 14.41v.48L102 116.21z" class="cls-152"/><path d="m104.91 116.21 42.9 13.94v.47l-44.36-14.41z" class="cls-139"/><path d="m106.36 116.21 41.45 13.47v.47l-42.9-13.94z" class="cls-151"/><path d="m107.81 116.21 40 13v.47l-41.45-13.47z" class="cls-127"/><path d="m109.26 116.21 38.55 12.53v.47l-40-13z" class="cls-44"/><path d="m110.72 116.21 37.09 12.05v.48l-38.55-12.53z" class="cls-39"/><path d="m112.17 116.21 35.64 11.58v.47l-37.09-12.05z" class="cls-125"/><path d="m113.62 116.21 34.19 11.11v.47l-35.64-11.58z" class="cls-26"/><path d="m115.07 116.21 32.74 10.64v.47l-34.19-11.11z" class="cls-48"/><path d="m116.53 116.21 31.28 10.17v.47l-32.74-10.64z" class="cls-72"/><path d="m117.98 116.21 29.83 9.69v.48l-31.28-10.17z" class="cls-107"/><path d="m119.43 116.21 28.38 9.22v.47l-29.83-9.69z" class="cls-27"/><path d="m120.89 116.21 26.92 8.75v.47l-28.38-9.22z" class="cls-4"/><path d="m122.34 116.21 25.47 8.28v.47l-26.92-8.75z" class="cls-89"/><path d="m123.79 116.21 24.02 7.81v.47l-25.47-8.28z" class="cls-157"/><path d="m125.24 116.21 22.57 7.33v.48l-24.02-7.81z" class="cls-14"/><path d="m126.7 116.21 21.11 6.86v.47l-22.57-7.33z" class="cls-12"/><path d="m128.15 116.21 19.66 6.39v.47l-21.11-6.86z" class="cls-51"/><path d="m129.6 116.21 18.21 5.92v.47l-19.66-6.39z" class="cls-120"/><path d="m131.05 116.21 16.76 5.45v.47l-18.21-5.92z" class="cls-137"/><path d="m131.4 116.21 16.41 5.33v.12l-16.76-5.45z" class="cls-137"/><path d="m147.81 121.54-16.41-5.33h16.41z" class="cls-137"/></g><path d="M451.88 223.96c-12.64 0-23.24 10.56-23.24 25.08s10.6 25.21 23.24 25.21 23.24-10.69 23.24-25.21-10.6-25.08-23.24-25.08m0 47.89c-12.15 0-12.28-12.72-12.28-22.81s.13-22.68 12.28-22.68 12.29 12.71 12.29 22.68-.12 22.81-12.29 22.81m-26.46-47.89c-4.34 1.08-9.03 1.2-13.49 1.2H397.3c-2.16-.74-4.61-1.12-7.4-1.12-11.92 0-17.34 9-17.34 16.56 0 6.84 3.61 10.92 9.03 13.56v.25c-4.58.71-9.67 2.8-12.96 9.4-.7 1.4-1.28 2.59-1.75 3.63-3.28-1.86-8.21-2.24-20.18-2.24h-12.88c-1.81 0-3.14-1.2-3.14-2.52 0-6 11.08-6.11 23-7.68 2.53-.24 12.17-3.72 12.17-15 0-3.36-1.69-6.48-1.69-7.8 0-1.2 2.61-2.88 3.81-2.88.85 0 2.05 3.6 4.1 3.6 2.53 0 3.85-2.16 3.85-4.56 0-3.13-2.53-4.09-4.7-4.09-3.98 0-7.66 3.96-8.87 6.72-3.13-4.68-8.07-6.96-15.04-6.96-11.92 0-17.34 9-17.34 16.56 0 6.84 3.61 10.92 9.03 13.56v.24c-4.57.71-12.04 2.64-12.04 9.23 0 .27.03.51.04.77h-.3c-.6 2.04-1.8 5.4-4.21 5.4-2.54 0-2.54-1.92-2.54-5.52v-28.56c0-4.8 0-11.77-16.38-11.77-14.33 0-19.27 7.2-19.27 11.52 0 3.37 1.81 5.77 5.06 5.77 3 0 4.93-2.04 4.93-5.04 0-3.96-3.61-4.56-3.61-5.52 0-3.48 8.55-4.32 11.2-4.32 4.21 0 8.67 1.68 8.67 7.32v11.4c-18.42 0-29.86 6.24-30.23 17.4 0 8.88 6.51 11.76 14.09 11.76 6.14 0 12.16-2.28 16.26-7.32.84 4.44 3.37 7.32 7.82 7.32 4.22 0 7.73-2.44 9.33-6.1 2.06 4.47 7.4 5.15 12.24 5.82v.36c-6.14 1.56-14.09 4.79-14.09 13.2 0 5.04 5.77 12.48 23.12 12.48 7.65 0 15.99-2.37 20.68-8.34 2.47 4.2 8.97 8.34 21.91 8.34 11.44 0 24.44-5.28 24.44-20.04 0-2.6-.51-5.06-1.69-7.27h18.07v-2.76h-7.1v-45.96Zm-86.63 16.36c0-11.4 2.89-14.28 8.91-14.28 7.23 0 8.19 7.2 8.19 13.21 0 7.44-.6 13.67-9.39 13.67-6.62 0-7.71-7.2-7.71-12.6m-28.23 18.44c0 5.04-1.69 6.36-2.65 7.32-2.89 2.51-5.42 3.48-9.27 3.48-5.54 0-9.27-3.6-9.27-9.48 0-11.04 13.37-12.36 21.19-12.48zm70.82-18.44c0-11.4 2.89-14.28 8.91-14.28 7.22 0 8.18 7.2 8.18 13.2 0 7.44-.6 13.68-9.39 13.68-6.63 0-7.71-7.2-7.71-12.6Zm-33.92 56.52c-6.26 0-14.33-2.52-14.33-10.2 0-4.08 3.97-13.68 18.18-13.68 15.28 0 17.46 3.48 17.46 10.55 0 1.92-.85 13.32-21.32 13.32Zm42.59 0c-2.35 0-6.1-.82-8.43-1.67-3.89-1.41-5.9-3.73-5.9-8.53 0-3.06 2.24-9.22 9.35-12.11 2.37-.96 5.29-1.57 8.84-1.57 15.29 0 17.46 3.48 17.46 10.56 0 1.92-.84 13.32-21.31 13.32Zm25.97-26.92h-3.54c-3.73-4.04-7.11-4.72-23.19-4.72H376.4c-1.8 0-3.13-1.2-3.13-2.52 0-6 11.08-6.12 23-7.68 2.53-.24 12.16-3.72 12.16-15 0-5.28-3.5-9-3.5-9-.79-1.18-1.69-2.2-2.71-3.07h13.79v42Zm-2.22-56.15c0-3.12 2.76-5.76 5.77-5.76s6.14 2.64 6.14 5.76c0 3.71-2.65 6.36-6.14 6.36s-5.77-2.88-5.77-6.36m88.17.14c0-3.13 2.77-5.76 5.78-5.76s6.14 2.63 6.14 5.76c0 3.72-2.65 6.36-6.14 6.36s-5.78-2.88-5.78-6.36m17.71 56.01v2.76h-49.45v-2.76h9.27v-74.19h-9.27v-2.76h5.17c4.46 0 9.15-.24 13.49-1.08v78.02h14.29v-42h-8.07v-2.76h3.97c4.46 0 9.15-.12 13.49-1.2v45.96h7.11Zm-248.06 0h9.15v2.76h-30.11v-2.76h9.27v-73.2h-.24l-23.36 75.97h-3.13l-22.52-75.97h-.24v73.2h9.03v2.76h-21.68v-2.76h9.03v-74.64h-9.03v-2.76h24.08l16.98 59.04h.24l17.7-59.04h23.97v2.76h-9.15v74.64Z" class="cls-137"/><path d="M290.81 3.37h-8.14V.95h4.55c3.91 0 8.03-.21 11.84-.95v71.12h8.14v2.42h-24.53v-2.42h8.14zm20.72 61.43c0 5.05 2.11 10.22 12.47 10.22 6.88 0 12.58-3.48 15.33-9.27h.21v8.53c3.81-.42 7.72-.74 11.52-.74h35.84V58.26h-2.01c-1.58 7.59-3.7 12.85-8.98 12.85h-13.32l24.53-36.67v-2.63H355.4v13.7h2.43c1.59-10.43 4.76-11.28 10.25-11.28h9.41l-24.67 36.88h-5.57V30.77c-3.81.95-7.93 1.05-11.84 1.05h-2.43v2.42H339v23.6c0 7.59-5.28 13.8-12.79 13.8-3.17 0-6.45-1.37-6.45-7.8V30.77c-3.81.95-7.93 1.05-11.84 1.05h-2.11v2.42h5.71V64.8Zm-107.94 4.43c4.34 4.32 10.25 5.9 16.17 5.9 13.85 0 22.94-8.95 22.94-23.39 0-28.66-40.07-17.39-40.07-34.88 0-7.9 7.82-12.85 15.01-12.85 9.41 0 15.64 6.85 17.97 15.59h2.11V3.16h-1.48l-4.02 3.05c-2.11-1.58-8.98-4.63-13.85-4.63-8.03 0-13.22 3.37-16.39 7.48-3.07 4-4.34 7.69-4.34 12.01 0 5.9 2.43 12.33 8.56 16.12 1.58 1.05 17.97 6.43 21.88 7.9 8.14 3.27 9.62 6.11 9.62 12.33 0 9.27-8.67 15.27-17.76 15.27-10.25 0-17.55-7.38-20.4-16.96h-2.01v18.12h1.48l4.55-4.63Zm39.44-16.44c0-12.75 9.3-22.02 20.4-22.02s20.4 9.27 20.4 22.02-9.3 22.13-20.4 22.13-20.4-9.38-20.4-22.13m9.61 0c0 8.85.11 20.02 10.78 20.02s10.78-11.17 10.78-20.02-.11-19.91-10.78-19.91-10.78 11.17-10.78 19.91m256.89-28.42c3.07 0 5.39-2.32 5.39-5.59 0-2.74-2.85-5.05-5.39-5.05s-5.07 2.32-5.07 5.05c0 3.05 2.01 5.59 5.07 5.59m4.23 46.75V30.77c-3.81.95-7.93 1.05-11.84 1.05h-3.49v2.42h7.08v36.88h-12.26V41.3c0-9.7-8.77-10.54-12.58-10.54-7.72 0-11.84 4.53-14.8 11.17h-.21V30.76c-1.91.42-3.91.74-5.92.84-1.9.21-3.91.21-5.92.21h-2.22v2.42h5.82v36.88h-5.82v2.42h19.77v-2.42h-5.71v-19.6c0-7.9 5.49-17.7 12.68-17.7 4.23 0 6.66 1.16 6.66 8.85v28.45h-5.5v2.42h40.49v-2.42h-6.24ZM411 52.79c0-12.75 9.3-22.02 20.41-22.02s20.4 9.27 20.4 22.02-9.3 22.13-20.4 22.13S411 65.54 411 52.79m9.63 0c0 8.85.1 20.02 10.78 20.02s10.78-11.17 10.78-20.02-.1-19.91-10.78-19.91-10.78 11.17-10.78 19.91m-21.25-28.42c3.07 0 5.39-2.32 5.39-5.59 0-2.74-2.85-5.05-5.39-5.05s-5.08 2.32-5.08 5.05c0 3.05 2.01 5.59 5.08 5.59m10.46 46.75h-6.24V30.77c-3.81.95-7.93 1.05-11.84 1.05h-3.49v2.42h7.08v36.88h-7.08v2.42h21.56v-2.42ZM198.07 96.78h9.32v67.21h-9.32v2.49h29.16v-2.49h-9.32V96.78h9.32V94.3h-29.16zm213.58 35.87c-1.95 0-4.23-2.16-4.23-4.32 0-.87.43-1.84.43-2.27 0-.65-.65-.65-.98-.65-.11 0-3.79 1.51-6.18 6.37-1.52 3.14-2.71 7.35-2.71 11.67v20.53h8.35v2.49h-23.61c1.04 1.97 1.49 4.17 1.49 6.48 0 13.29-11.71 18.05-22.01 18.05-15.61 0-20.82-6.7-20.82-11.23 0-7.57 7.16-10.48 12.69-11.89v-.33c-5.53-.76-11.82-1.51-11.82-9.29 0-5.95 6.72-7.67 10.84-8.32v-.22c-4.88-2.37-8.13-6.05-8.13-12.21 0-6.81 4.88-14.91 15.62-14.91 6.29 0 10.73 2.05 13.55 6.27 1.08-2.49 3.36-6.05 6.94-6.05 1.02 0 2.11.24 2.94.87h1.51c4.01 0 8.24-.11 12.14-1.08v10.15h.22c1.95-4.86 6.29-10.15 12.25-10.15 3.69 0 6.61 1.94 6.61 6.05 0 2.7-2.82 4-5.1 4Zm-58.22 4.97c0 4.86.98 11.35 6.94 11.35 7.92 0 8.46-5.62 8.46-12.32 0-5.4-.87-11.89-7.38-11.89-5.42 0-8.02 2.59-8.02 12.86m26.99 38.9c0-6.37-1.95-9.51-15.72-9.51-12.79 0-16.37 8.65-16.37 12.32 0 6.91 7.26 9.19 12.9 9.19 18.43 0 19.19-10.27 19.19-12m9.11-50.35h-4.26c0 .11.03.2.03.32 0 2.16-1.2 4.11-3.47 4.11-1.84 0-2.93-3.24-3.69-3.24-1.08 0-2.39 1.51-2.39 2.59 0 1.19 1.52 4 1.52 7.03 0 10.15-8.67 13.29-10.95 13.51-10.73 1.4-20.71 1.51-20.71 6.91 0 1.19 1.19 2.27 2.82 2.27h11.6c14.85 0 17.67.65 21.14 4.54.36.42.68.86.97 1.3v-1.52h7.37v-37.82Zm65.59 32.85h1.84c-.33 5.08-4.23 8.86-9.22 8.86-4.01 0-6.29-2.59-7.05-6.59-3.69 4.54-9.1 6.59-14.64 6.59-6.83 0-12.69-2.59-12.69-10.59.33-10.05 10.63-15.67 27.21-15.67v-10.27c0-5.08-4.01-6.59-7.81-6.59-2.39 0-10.08.75-10.08 3.89 0 .87 3.26 1.41 3.26 4.97 0 2.7-1.74 4.54-4.45 4.54-2.93 0-4.55-2.16-4.55-5.19 0-3.89 4.45-10.37 17.35-10.37 14.74 0 14.74 6.27 14.74 10.59v25.72c0 3.24 0 4.97 2.28 4.97s3.25-3.03 3.79-4.86Zm-14.52-15.13c-7.05.11-19.08 1.29-19.08 11.24 0 5.29 3.36 8.53 8.35 8.53 3.47 0 5.75-.86 8.35-3.13.87-.86 2.39-2.05 2.39-6.59v-10.05Zm-130.65-2.05v4.43c0 10.69 1.41 19.34 13.23 19.34 6.18 0 13.44-5.4 14.96-12.53h2.38c-2.17 10.05-9.54 14.8-19.08 14.8-11.06 0-21.68-8.86-21.68-20.86 0-12.75 8.46-24.42 21.36-24.42 11.06 0 19.4 7.45 19.51 19.23h-30.68Zm.11-3.14h20.71v-3.67c0-7.78-4.55-10.27-9.97-10.27-6.51 0-9.43 6.05-9.65 6.81-.65 1.95-.98 4.43-1.08 7.13Zm162.19 25.4c-4.12 0-4.12-2.91-4.12-4.86v-33.06h9.54v-2.49h-9.54v-13.72c-2.71.43-5.42.43-8.24.43v13.29h-6.4v2.49h6.18v32.31c0 5.19.86 9.4 8.67 9.4 4.34 0 9.65-2.49 11.71-6.59l-1.73-1.19c-1.74 2.05-3.26 4-6.07 4Zm16.92-22.26v4.43c0 10.69 1.41 19.34 13.22 19.34 6.18 0 13.44-5.4 14.96-12.53h2.39c-2.17 10.05-9.54 14.8-19.08 14.8-11.06 0-21.68-8.86-21.68-20.86 0-12.75 8.46-24.42 21.36-24.42 11.06 0 19.41 7.45 19.52 19.23h-30.68Zm.1-3.14h20.71v-3.67c0-7.78-4.55-10.27-9.97-10.27-6.51 0-9.44 6.05-9.65 6.81-.65 1.95-.98 4.43-1.08 7.13Zm-219-5.29c0-9.94-9-10.81-12.9-10.81-7.91 0-12.14 4.65-15.18 11.45h-.22V122.6c-1.95.43-4.01.75-6.07.86-1.95.22-4.01.22-6.07.22h-2.28v2.49h5.97v37.82h-5.97v2.49h20.28v-2.49h-5.86v-20.1c0-8.11 5.64-18.15 13.01-18.15 4.34 0 6.83 1.19 6.83 9.07v29.18h-5.64v2.49h19.95v-2.49h-5.85zm22.77 30.69c-4.12 0-4.12-2.91-4.12-4.86v-33.06h9.54v-2.49h-9.54v-13.72c-2.71.43-5.42.43-8.24.43v13.29h-6.4v2.49h6.18v32.31c0 5.19.87 9.4 8.67 9.4 4.34 0 9.65-2.49 11.71-6.59l-1.73-1.19c-1.73 2.05-3.25 4-6.07 4Z" style="fill:#3c3c3b"/></svg>