<?xml version="1.0" encoding="UTF-8"?>
<svg id="Livello_1" data-name="Livello 1" xmlns="http://www.w3.org/2000/svg" xmlns:xlink="http://www.w3.org/1999/xlink" viewBox="0 0 520 300">
  <defs>
    <style>
      .cls-1 {
        fill: #0087c8;
      }

      .cls-2 {
        fill: none;
      }

      .cls-3 {
        fill: #3c3c3b;
      }

      .cls-4 {
        fill: #1b4a98;
      }

      .cls-5 {
        fill: #17abe3;
      }

      .cls-6 {
        fill: #1eb3e9;
      }

      .cls-7 {
        fill: #1bafe6;
      }

      .cls-8 {
        fill: #0198d5;
      }

      .cls-9 {
        fill: #a3c84a;
      }

      .cls-10 {
        fill: #1062aa;
      }

      .cls-11 {
        fill: #18ace4;
      }

      .cls-12 {
        fill: #1d4393;
      }

      .cls-13 {
        fill: #a5c94b;
      }

      .cls-14 {
        fill: #1d4594;
      }

      .cls-15 {
        fill: #96c349;
      }

      .cls-16 {
        fill: #0372b8;
      }

      .cls-17 {
        fill: #0471b7;
      }

      .cls-18 {
        fill: #008aca;
      }

      .cls-19 {
        fill: #20b4e9;
      }

      .cls-20 {
        fill: #099fda;
      }

      .cls-21 {
        fill: #1bb0e6;
      }

      .cls-22 {
        fill: #1aade5;
      }

      .cls-23 {
        fill: #0097d4;
      }

      .cls-24 {
        fill: #0096d4;
      }

      .cls-25 {
        fill: #0b69b0;
      }

      .cls-26 {
        fill: #19529e;
      }

      .cls-27 {
        fill: #1b4c99;
      }

      .cls-28 {
        fill: #007fc2;
      }

      .cls-29 {
        fill: #9dc549;
      }

      .cls-30 {
        fill: #11a5df;
      }

      .cls-31 {
        fill: #8ec048;
      }

      .cls-32 {
        fill: #0ca2dc;
      }

      .cls-33 {
        fill: #007ec1;
      }

      .cls-34 {
        fill: #aaca4b;
      }

      .cls-35 {
        fill: #1fb4e9;
      }

      .cls-36 {
        fill: #066db3;
      }

      .cls-37 {
        fill: #accb4c;
      }

      .cls-38 {
        fill: #1aaee5;
      }

      .cls-39 {
        fill: #1755a1;
      }

      .cls-40 {
        fill: #007bbe;
      }

      .cls-41 {
        fill: #079dd9;
      }

      .cls-42 {
        fill: #b1cd4d;
      }

      .cls-43 {
        fill: #b1cd4c;
      }

      .cls-44 {
        fill: #1757a2;
      }

      .cls-45 {
        fill: #0093d1;
      }

      .cls-46 {
        fill: #007dc0;
      }

      .cls-47 {
        fill: #13a7e0;
      }

      .cls-48 {
        fill: #19509d;
      }

      .cls-49 {
        fill: #0086c7;
      }

      .cls-50 {
        fill: #12a7e0;
      }

      .cls-51 {
        fill: #1d4191;
      }

      .cls-52 {
        fill: #aecc4c;
      }

      .cls-53 {
        fill: #21b5ea;
      }

      .cls-54 {
        fill: #11a6df;
      }

      .cls-55 {
        fill: #85bd47;
      }

      .cls-56 {
        fill: #6fb746;
      }

      .cls-57 {
        fill: #b2ce4d;
      }

      .cls-58 {
        fill: #0aa0db;
      }

      .cls-59 {
        fill: #0095d3;
      }

      .cls-60 {
        fill: #0085c6;
      }

      .cls-61 {
        fill: #096ab1;
      }

      .cls-62 {
        fill: #049cd8;
      }

      .cls-63 {
        fill: #9fc64a;
      }

      .cls-64 {
        fill: #b0cd4c;
      }

      .cls-65 {
        fill: #8cc048;
      }

      .cls-66 {
        fill: #0088c9;
      }

      .cls-67 {
        fill: #92c248;
      }

      .cls-68 {
        fill: #a6c94b;
      }

      .cls-69 {
        fill: #1db2e8;
      }

      .cls-70 {
        fill: #059cd8;
      }

      .cls-71 {
        fill: #007abe;
      }

      .cls-72 {
        fill: #1a4f9c;
      }

      .cls-73 {
        fill: #68b545;
      }

      .cls-74 {
        fill: #0082c4;
      }

      .cls-75 {
        fill: #0091d0;
      }

      .cls-76 {
        fill: #19ade4;
      }

      .cls-77 {
        fill: #008ccc;
      }

      .cls-78 {
        fill: #20b5ea;
      }

      .cls-79 {
        fill: #0089c9;
      }

      .cls-80 {
        fill: #1160a9;
      }

      .cls-81 {
        fill: #125fa8;
      }

      .cls-82 {
        fill: #0275ba;
      }

      .cls-83 {
        fill: #029ad7;
      }

      .cls-84 {
        fill: #15a9e1;
      }

      .cls-85 {
        fill: #0e64ad;
      }

      .cls-86 {
        fill: #0ba1db;
      }

      .cls-87 {
        fill: #0090cf;
      }

      .cls-88 {
        fill: #0373b9;
      }

      .cls-89 {
        fill: #1c4897;
      }

      .cls-90 {
        fill: #1cb0e7;
      }

      .cls-91 {
        fill: #076bb2;
      }

      .cls-92 {
        fill: #008fce;
      }

      .cls-93 {
        fill: #0da2dc;
      }

      .cls-94 {
        fill: #7cbb46;
      }

      .cls-95 {
        clip-path: url(#clippath-1);
      }

      .cls-96 {
        clip-path: url(#clippath-3);
      }

      .cls-97 {
        clip-path: url(#clippath-4);
      }

      .cls-98 {
        clip-path: url(#clippath-2);
      }

      .cls-99 {
        clip-path: url(#clippath-5);
      }

      .cls-100 {
        fill: #82bc47;
      }

      .cls-101 {
        fill: #91c148;
      }

      .cls-102 {
        fill: #16aae2;
      }

      .cls-103 {
        fill: #0094d2;
      }

      .cls-104 {
        fill: #adcc4c;
      }

      .cls-105 {
        fill: #0f63ac;
      }

      .cls-106 {
        fill: #1db1e7;
      }

      .cls-107 {
        fill: #1b4d9b;
      }

      .cls-108 {
        fill: #1eb3e8;
      }

      .cls-109 {
        fill: #008dcd;
      }

      .cls-110 {
        fill: #008bcb;
      }

      .cls-111 {
        fill: #1fb3e9;
      }

      .cls-112 {
        fill: #18ace3;
      }

      .cls-113 {
        fill: #a1c74a;
      }

      .cls-114 {
        fill: #0077bc;
      }

      .cls-115 {
        fill: #a2c74a;
      }

      .cls-116 {
        fill: #6cb645;
      }

      .cls-117 {
        fill: #089ed9;
      }

      .cls-118 {
        fill: #0fa4de;
      }

      .cls-119 {
        fill: #0ea3dd;
      }

      .cls-120 {
        fill: #1d3f90;
      }

      .cls-121 {
        fill: #069dd9;
      }

      .cls-122 {
        fill: #1eb2e8;
      }

      .cls-123 {
        fill: #a4c84b;
      }

      .cls-124 {
        fill: #12a6df;
      }

      .cls-125 {
        fill: #1854a0;
      }

      .cls-126 {
        fill: #73b846;
      }

      .cls-127 {
        fill: #1659a3;
      }

      .cls-128 {
        fill: #007cbf;
      }

      .cls-129 {
        fill: #a9ca4b;
      }

      .cls-130 {
        fill: #0199d6;
      }

      .cls-131 {
        fill: #066eb5;
      }

      .cls-132 {
        fill: #1cb1e7;
      }

      .cls-133 {
        fill: #afcc4c;
      }

      .cls-134 {
        fill: #0093d2;
      }

      .cls-135 {
        fill: #0d66ae;
      }

      .cls-136 {
        fill: #008ece;
      }

      .cls-137 {
        fill: #1d3d8f;
      }

      .cls-138 {
        fill: #0299d6;
      }

      .cls-139 {
        fill: #145ca6;
      }

      .cls-140 {
        fill: #abcb4c;
      }

      .cls-141 {
        fill: #9bc549;
      }

      .cls-142 {
        fill: #79ba46;
      }

      .cls-143 {
        fill: #14a8e1;
      }

      .cls-144 {
        fill: #0084c5;
      }

      .cls-145 {
        fill: #64b445;
      }

      .cls-146 {
        fill: #0ca1dc;
      }

      .cls-147 {
        fill: #20b4ea;
      }

      .cls-148 {
        fill: #0c67af;
      }

      .cls-149 {
        fill: #b2cd4d;
      }

      .cls-150 {
        fill: #0083c5;
      }

      .cls-151 {
        fill: #155aa4;
      }

      .cls-152 {
        fill: #135da7;
      }

      .cls-153 {
        fill: #adcb4c;
      }

      .cls-154 {
        fill: #089fda;
      }

      .cls-155 {
        fill: #99c449;
      }

      .cls-156 {
        fill: #039bd7;
      }

      .cls-157 {
        fill: #1c4695;
      }

      .cls-158 {
        fill: #b3ce4d;
      }

      .cls-159 {
        fill: #a7c94b;
      }

      .cls-160 {
        fill: #98c449;
      }

      .cls-161 {
        fill: #1cb0e6;
      }

      .cls-162 {
        fill: #0096d3;
      }

      .cls-163 {
        fill: #7fbc47;
      }

      .cls-164 {
        fill: #15aae2;
      }

      .cls-165 {
        fill: #15a9e2;
      }

      .cls-166 {
        fill: #0092d0;
      }

      .cls-167 {
        fill: #008bcc;
      }

      .cls-168 {
        fill: #056fb6;
      }

      .cls-169 {
        fill: #0176bb;
      }

      .cls-170 {
        fill: #a8ca4b;
      }

      .cls-171 {
        fill: #88be47;
      }

      .cls-172 {
        fill: #1db1e8;
      }

      .cls-173 {
        fill: #9ec64a;
      }

      .cls-174 {
        clip-path: url(#clippath);
      }

      .cls-175 {
        fill: #0078bd;
      }

      .cls-176 {
        fill: #76b946;
      }

      .cls-177 {
        fill: #94c248;
      }

      .cls-178 {
        fill: #10a5de;
      }

      .cls-179 {
        fill: #8abf47;
      }

      .cls-180 {
        fill: #abcb4b;
      }

      .cls-181 {
        fill: #10a4de;
      }

      .cls-182 {
        fill: #0080c3;
      }
    </style>
    <clipPath id="clippath">
      <path class="cls-2" d="M16.73,35.61c-5.27,5.86-8.81,10.73-11.68,18.2C2.53,60.38.24,66.97.02,73.87c-.22,6.91,1.3,13.58,3.4,19.59.01.04.02.07.04.1,3.67,3.11,12,8.65,25.03,5.46,9.83-2.41,17.96-9.77,23.49-16.37-.98,1.06-1.96,2.07-2.92,3.02-3.16,2.4-5.81,3.37-9.86,2.05-2.53-.82-4.48-2.16-5.83-4.02-1.36-1.86-2.23-4-2.64-6.41-.41-2.41-.3-4.9-.05-7.38.71-3.07,1.59-4.79,2.79-6.77,2.22-3.65,4.04-5.68,7.27-8.86,4.54-3.62,14.26-9.49,18.1-10.95l-16.84-24.96c-6.95,4.16-20.03,11.93-25.27,17.23"/>
    </clipPath>
    <clipPath id="clippath-1">
      <polygon class="cls-2" points="83.56 26.39 53.2 119.51 -24.92 94.21 5.44 1.09 83.56 26.39"/>
    </clipPath>
    <clipPath id="clippath-2">
      <path class="cls-2" d="M119.45,63.78c-8.93,2.19-16.46,8.46-21.91,14.54.1-.09.21-.19.31-.28,3.38-2.39,6.96-3.42,10.13-2.4,2.41.78,4.54,1.76,5.61,2.98,1.37,1.8,2.7,3.35,3.25,5.27.48,2.37.86,5.03.61,7.72-.53,3.23-1.26,5.47-2.39,7.58-2.55,4.78-4.74,6.81-8.48,10.79-1.83,2.03-17.05,11.3-19.98,12.68l16.67,25.05c8.1-4.64,18.81-11.31,25.09-17.14,5.32-5.56,11.74-13.97,14.33-20.65,2.77-7.15,4.52-13.67,4.82-20.62.31-6.94-1.5-13.85-3.6-19.87-.11-.32-.23-.64-.36-.96-3.12-2.43-8.6-5.66-16.46-5.66-2.33,0-4.88.28-7.63.96"/>
    </clipPath>
    <clipPath id="clippath-3">
      <polygon class="cls-2" points="61.57 139.6 92.44 44.88 172.85 70.92 141.97 165.64 61.57 139.6"/>
    </clipPath>
    <clipPath id="clippath-4">
      <path class="cls-2" d="M16.73,35.61c-5.27,5.86-8.81,10.73-11.68,18.2C2.53,60.38.24,66.97.02,73.87c-.22,6.91,1.3,13.58,3.4,19.59.01.04.02.07.04.1,3.67,3.11,12,8.65,25.03,5.46,9.83-2.41,17.96-9.77,23.49-16.37-.98,1.06-1.96,2.07-2.92,3.02-3.16,2.4-5.81,3.37-9.86,2.05-2.53-.82-4.48-2.16-5.83-4.02-1.36-1.86-2.23-4-2.64-6.41-.41-2.41-.3-4.9-.05-7.38.71-3.07,1.59-4.79,2.79-6.77,2.22-3.65,4.04-5.68,7.27-8.86,4.54-3.62,14.26-9.49,18.1-10.95l-16.84-24.96c-6.95,4.16-20.03,11.93-25.27,17.23"/>
    </clipPath>
    <clipPath id="clippath-5">
      <path class="cls-2" d="M119.45,63.78c-8.93,2.19-16.46,8.46-21.91,14.54.1-.09.21-.19.31-.28,3.38-2.39,6.96-3.42,10.13-2.4,2.41.78,4.54,1.76,5.61,2.98,1.37,1.8,2.7,3.35,3.25,5.27.48,2.37.86,5.03.61,7.72-.53,3.23-1.26,5.47-2.39,7.58-2.55,4.78-4.74,6.81-8.48,10.79-1.83,2.03-17.05,11.3-19.98,12.68l16.67,25.05c8.1-4.64,18.81-11.31,25.09-17.14,5.32-5.56,11.74-13.97,14.33-20.65,2.77-7.15,4.52-13.67,4.82-20.62.31-6.94-1.5-13.85-3.6-19.87-.11-.32-.23-.64-.36-.96-3.12-2.43-8.6-5.66-16.46-5.66-2.33,0-4.88.28-7.63.96"/>
    </clipPath>
  </defs>
  <g>
    <path class="cls-137" d="M42,18.38c-6.95,4.15-20.03,11.93-25.27,17.22-5.27,5.86-8.81,10.74-11.68,18.2C2.52,60.38.25,66.97.02,73.87c-.22,6.91,1.3,13.58,3.4,19.59,2.11,6.02,5.96,11.19,10.46,15.85,4.5,4.66,10.82,7.34,18.12,9.42,7.48,2.13,13.41.99,19.11.07,5.59-1.68,9.03-3.05,13.97-6.54,4.67-3.58,9.17-7.95,13.26-12.89,3.79-4.45,5.92-6.96,9.56-10.93,3.78-3.97,6.69-7.54,9.97-10.41,3.37-2.39,6.96-3.42,10.13-2.4,2.41.78,4.54,1.76,5.6,2.98,1.38,1.8,2.71,3.35,3.25,5.28.49,2.37.86,5.03.62,7.72-.53,3.23-1.26,5.47-2.39,7.58-2.55,4.78-4.74,6.81-8.49,10.79-1.83,2.02-17.05,11.29-19.98,12.67l16.67,25.05c8.1-4.64,18.8-11.31,25.09-17.14,5.32-5.56,11.74-13.97,14.33-20.65,2.77-7.16,4.52-13.67,4.82-20.62.31-6.95-1.49-13.85-3.59-19.87-2.1-6.02-6.44-11.55-11.09-16.19-4.91-4.21-7.92-6.35-15.4-8.77-7.27-2.35-15.44-2.38-19.43-1.34-5.13.96-11.7,3.63-16.6,7.44-4.59,3.32-7.94,7.33-12.05,11.87-3.86,4.67-7.78,8.84-10.83,13.04-3.4,3.7-6.45,7.23-9.46,10.19-3.16,2.39-5.81,3.37-9.86,2.05-2.54-.82-4.48-2.16-5.83-4.02-1.35-1.86-2.23-3.99-2.64-6.41-.41-2.4-.3-4.9-.05-7.38.71-3.07,1.59-4.79,2.79-6.77,2.21-3.65,4.04-5.68,7.27-8.86,4.54-3.62,14.27-9.49,18.11-10.95l-16.84-24.96Z"/>
    <g class="cls-174">
      <g class="cls-95">
        <polygon class="cls-158" points="83.56 26.39 5.7 1.09 83.56 1.09 83.56 26.39"/>
        <polygon class="cls-158" points="83.56 27.74 1.53 1.09 5.7 1.09 83.56 26.39 83.56 27.74"/>
        <polygon class="cls-158" points="83.56 29.1 -2.65 1.09 1.53 1.09 83.56 27.74 83.56 29.1"/>
        <polygon class="cls-158" points="83.56 30.46 -6.82 1.09 -2.65 1.09 83.56 29.1 83.56 30.46"/>
        <polygon class="cls-158" points="83.56 31.81 -11 1.09 -6.82 1.09 83.56 30.46 83.56 31.81"/>
        <polygon class="cls-158" points="83.56 33.17 -15.18 1.09 -11 1.09 83.56 31.81 83.56 33.17"/>
        <polygon class="cls-158" points="83.56 34.53 -19.35 1.09 -15.18 1.09 83.56 33.17 83.56 34.53"/>
        <polygon class="cls-158" points="83.56 35.88 -23.53 1.09 -19.35 1.09 83.56 34.53 83.56 35.88"/>
        <polygon class="cls-158" points="83.56 37.24 -24.92 1.99 -24.92 1.09 -23.53 1.09 83.56 35.88 83.56 37.24"/>
        <polygon class="cls-158" points="83.56 38.6 -24.92 3.35 -24.92 1.99 83.56 37.24 83.56 38.6"/>
        <polygon class="cls-158" points="83.56 39.95 -24.92 4.71 -24.92 3.35 83.56 38.6 83.56 39.95"/>
        <polygon class="cls-158" points="83.56 41.31 -24.92 6.06 -24.92 4.71 83.56 39.95 83.56 41.31"/>
        <polygon class="cls-158" points="83.56 42.67 -24.92 7.42 -24.92 6.06 83.56 41.31 83.56 42.67"/>
        <polygon class="cls-158" points="83.56 44.02 -24.92 8.78 -24.92 7.42 83.56 42.67 83.56 44.02"/>
        <polygon class="cls-158" points="83.56 45.38 -24.92 10.13 -24.92 8.78 83.56 44.02 83.56 45.38"/>
        <polygon class="cls-158" points="83.56 46.74 -24.92 11.49 -24.92 10.13 83.56 45.38 83.56 46.74"/>
        <polygon class="cls-57" points="83.56 48.1 -24.92 12.85 -24.92 11.49 83.56 46.74 83.56 48.1"/>
        <polygon class="cls-57" points="83.56 49.45 -24.92 14.21 -24.92 12.85 83.56 48.1 83.56 49.45"/>
        <polygon class="cls-149" points="83.56 50.81 -24.92 15.56 -24.92 14.21 83.56 49.45 83.56 50.81"/>
        <polygon class="cls-149" points="83.56 52.17 -24.92 16.92 -24.92 15.56 83.56 50.81 83.56 52.17"/>
        <polygon class="cls-42" points="83.56 53.52 -24.92 18.28 -24.92 16.92 83.56 52.17 83.56 53.52"/>
        <polygon class="cls-43" points="83.56 54.88 -24.92 19.63 -24.92 18.28 83.56 53.52 83.56 54.88"/>
        <polygon class="cls-43" points="83.56 56.24 -24.92 20.99 -24.92 19.63 83.56 54.88 83.56 56.24"/>
        <polygon class="cls-43" points="83.56 57.59 -24.92 22.35 -24.92 20.99 83.56 56.24 83.56 57.59"/>
        <polygon class="cls-64" points="83.56 58.95 -24.92 23.7 -24.92 22.35 83.56 57.59 83.56 58.95"/>
        <polygon class="cls-64" points="83.56 60.31 -24.92 25.06 -24.92 23.7 83.56 58.95 83.56 60.31"/>
        <polygon class="cls-133" points="83.56 61.66 -24.92 26.42 -24.92 25.06 83.56 60.31 83.56 61.66"/>
        <polygon class="cls-133" points="83.56 63.02 -24.92 27.77 -24.92 26.42 83.56 61.66 83.56 63.02"/>
        <polygon class="cls-52" points="83.56 64.38 -24.92 29.13 -24.92 27.77 83.56 63.02 83.56 64.38"/>
        <polygon class="cls-52" points="83.56 65.73 -24.92 30.49 -24.92 29.13 83.56 64.38 83.56 65.73"/>
        <polygon class="cls-104" points="83.56 67.09 -24.92 31.84 -24.92 30.49 83.56 65.73 83.56 67.09"/>
        <polygon class="cls-153" points="83.56 68.45 -24.92 33.2 -24.92 31.84 83.56 67.09 83.56 68.45"/>
        <polygon class="cls-37" points="83.56 69.8 -24.92 34.56 -24.92 33.2 83.56 68.45 83.56 69.8"/>
        <polygon class="cls-140" points="83.56 71.16 -24.92 35.91 -24.92 34.56 83.56 69.8 83.56 71.16"/>
        <polygon class="cls-180" points="83.56 72.52 -24.92 37.27 -24.92 35.91 83.56 71.16 83.56 72.52"/>
        <polygon class="cls-34" points="83.56 73.88 -24.92 38.63 -24.92 37.27 83.56 72.52 83.56 73.88"/>
        <polygon class="cls-129" points="83.56 75.23 -24.92 39.99 -24.92 38.63 83.56 73.88 83.56 75.23"/>
        <polygon class="cls-170" points="83.56 76.59 -24.92 41.34 -24.92 39.99 83.56 75.23 83.56 76.59"/>
        <polygon class="cls-159" points="83.56 77.95 -24.92 42.7 -24.92 41.34 83.56 76.59 83.56 77.95"/>
        <polygon class="cls-68" points="83.56 79.3 -24.92 44.06 -24.92 42.7 83.56 77.95 83.56 79.3"/>
        <polygon class="cls-13" points="83.56 80.66 -24.92 45.41 -24.92 44.06 83.56 79.3 83.56 80.66"/>
        <polygon class="cls-123" points="83.56 82.02 -24.92 46.77 -24.92 45.41 83.56 80.66 83.56 82.02"/>
        <polygon class="cls-9" points="83.56 83.37 -24.92 48.13 -24.92 46.77 83.56 82.02 83.56 83.37"/>
        <polygon class="cls-115" points="83.56 84.73 -24.92 49.48 -24.92 48.13 83.56 83.37 83.56 84.73"/>
        <polygon class="cls-113" points="83.56 86.09 -24.92 50.84 -24.92 49.48 83.56 84.73 83.56 86.09"/>
        <polygon class="cls-63" points="83.56 87.44 -24.92 52.2 -24.92 50.84 83.56 86.09 83.56 87.44"/>
        <polygon class="cls-173" points="83.56 88.8 -24.92 53.55 -24.92 52.2 83.56 87.44 83.56 88.8"/>
        <polygon class="cls-29" points="83.56 90.16 -24.92 54.91 -24.92 53.55 83.56 88.8 83.56 90.16"/>
        <polygon class="cls-141" points="83.56 91.51 -24.92 56.27 -24.92 54.91 83.56 90.16 83.56 91.51"/>
        <polygon class="cls-155" points="83.56 92.87 -24.92 57.62 -24.92 56.27 83.56 91.51 83.56 92.87"/>
        <polygon class="cls-160" points="83.56 94.23 -24.92 58.98 -24.92 57.62 83.56 92.87 83.56 94.23"/>
        <polygon class="cls-15" points="83.56 95.58 -24.92 60.34 -24.92 58.98 83.56 94.23 83.56 95.58"/>
        <polygon class="cls-177" points="83.56 96.94 -24.92 61.69 -24.92 60.34 83.56 95.58 83.56 96.94"/>
        <polygon class="cls-67" points="83.56 98.3 -24.92 63.05 -24.92 61.69 83.56 96.94 83.56 98.3"/>
        <polygon class="cls-101" points="83.56 99.66 -24.92 64.41 -24.92 63.05 83.56 98.3 83.56 99.66"/>
        <polygon class="cls-31" points="83.56 101.01 -24.92 65.77 -24.92 64.41 83.56 99.66 83.56 101.01"/>
        <polygon class="cls-65" points="83.56 102.37 -24.92 67.12 -24.92 65.77 83.56 101.01 83.56 102.37"/>
        <polygon class="cls-179" points="83.56 103.73 -24.92 68.48 -24.92 67.12 83.56 102.37 83.56 103.73"/>
        <polygon class="cls-171" points="83.56 105.08 -24.92 69.84 -24.92 68.48 83.56 103.73 83.56 105.08"/>
        <polygon class="cls-55" points="83.56 106.44 -24.92 71.19 -24.92 69.84 83.56 105.08 83.56 106.44"/>
        <polygon class="cls-100" points="83.56 107.8 -24.92 72.55 -24.92 71.19 83.56 106.44 83.56 107.8"/>
        <polygon class="cls-163" points="83.56 109.15 -24.92 73.91 -24.92 72.55 83.56 107.8 83.56 109.15"/>
        <polygon class="cls-94" points="83.56 110.51 -24.92 75.26 -24.92 73.91 83.56 109.15 83.56 110.51"/>
        <polygon class="cls-142" points="83.56 111.87 -24.92 76.62 -24.92 75.26 83.56 110.51 83.56 111.87"/>
        <polygon class="cls-176" points="83.56 113.22 -24.92 77.98 -24.92 76.62 83.56 111.87 83.56 113.22"/>
        <polygon class="cls-126" points="83.56 114.58 -24.92 79.33 -24.92 77.98 83.56 113.22 83.56 114.58"/>
        <polygon class="cls-56" points="83.56 115.94 -24.92 80.69 -24.92 79.33 83.56 114.58 83.56 115.94"/>
        <polygon class="cls-116" points="83.56 117.29 -24.92 82.05 -24.92 80.69 83.56 115.94 83.56 117.29"/>
        <polygon class="cls-73" points="83.56 118.65 -24.92 83.4 -24.92 82.05 83.56 117.29 83.56 118.65"/>
        <polygon class="cls-145" points="82.03 119.51 -24.92 84.76 -24.92 83.4 83.56 118.65 83.56 119.51 82.03 119.51"/>
        <polygon class="cls-145" points="76.27 119.51 -24.92 86.63 -24.92 84.76 82.03 119.51 76.27 119.51"/>
        <polygon class="cls-145" points="-24.92 86.63 76.27 119.51 -24.92 119.51 -24.92 86.63"/>
      </g>
    </g>
    <g class="cls-98">
      <g class="cls-96">
        <polygon class="cls-53" points="61.57 135.59 154.07 165.64 61.57 165.64 61.57 135.59"/>
        <polygon class="cls-53" points="61.57 135.11 155.54 165.64 154.07 165.64 61.57 135.59 61.57 135.11"/>
        <polygon class="cls-53" points="61.57 134.63 157.02 165.64 155.54 165.64 61.57 135.11 61.57 134.63"/>
        <polygon class="cls-53" points="61.57 134.15 158.49 165.64 157.02 165.64 61.57 134.63 61.57 134.15"/>
        <polygon class="cls-53" points="61.57 133.67 159.97 165.64 158.49 165.64 61.57 134.15 61.57 133.67"/>
        <polygon class="cls-53" points="61.57 133.19 161.44 165.64 159.97 165.64 61.57 133.67 61.57 133.19"/>
        <polygon class="cls-53" points="61.57 132.71 162.92 165.64 161.44 165.64 61.57 133.19 61.57 132.71"/>
        <polygon class="cls-53" points="61.57 132.23 164.39 165.64 162.92 165.64 61.57 132.71 61.57 132.23"/>
        <polygon class="cls-53" points="61.57 131.75 165.87 165.64 164.39 165.64 61.57 132.23 61.57 131.75"/>
        <polygon class="cls-53" points="61.57 131.27 167.34 165.64 165.87 165.64 61.57 131.75 61.57 131.27"/>
        <polygon class="cls-53" points="61.57 130.79 168.82 165.64 167.34 165.64 61.57 131.27 61.57 130.79"/>
        <polygon class="cls-53" points="61.57 130.31 170.29 165.64 168.82 165.64 61.57 130.79 61.57 130.31"/>
        <polygon class="cls-53" points="61.57 129.83 171.77 165.64 170.29 165.64 61.57 130.31 61.57 129.83"/>
        <polygon class="cls-53" points="61.57 129.35 172.85 165.51 172.85 165.64 171.77 165.64 61.57 129.83 61.57 129.35"/>
        <polygon class="cls-53" points="61.57 128.88 172.85 165.03 172.85 165.51 61.57 129.35 61.57 128.88"/>
        <polygon class="cls-53" points="61.57 128.4 172.85 164.55 172.85 165.03 61.57 128.88 61.57 128.4"/>
        <polygon class="cls-53" points="61.57 127.92 172.85 164.07 172.85 164.55 61.57 128.4 61.57 127.92"/>
        <polygon class="cls-53" points="61.57 127.44 172.85 163.59 172.85 164.07 61.57 127.92 61.57 127.44"/>
        <polygon class="cls-53" points="61.57 126.96 172.85 163.12 172.85 163.59 61.57 127.44 61.57 126.96"/>
        <polygon class="cls-53" points="61.57 126.48 172.85 162.64 172.85 163.12 61.57 126.96 61.57 126.48"/>
        <polygon class="cls-53" points="61.57 126 172.85 162.16 172.85 162.64 61.57 126.48 61.57 126"/>
        <polygon class="cls-53" points="61.57 125.52 172.85 161.68 172.85 162.16 61.57 126 61.57 125.52"/>
        <polygon class="cls-53" points="61.57 125.04 172.85 161.2 172.85 161.68 61.57 125.52 61.57 125.04"/>
        <polygon class="cls-53" points="61.57 124.56 172.85 160.72 172.85 161.2 61.57 125.04 61.57 124.56"/>
        <polygon class="cls-53" points="61.57 124.08 172.85 160.24 172.85 160.72 61.57 124.56 61.57 124.08"/>
        <polygon class="cls-78" points="61.57 123.6 172.85 159.76 172.85 160.24 61.57 124.08 61.57 123.6"/>
        <polygon class="cls-78" points="61.57 123.12 172.85 159.28 172.85 159.76 61.57 123.6 61.57 123.12"/>
        <polygon class="cls-78" points="61.57 122.64 172.85 158.8 172.85 159.28 61.57 123.12 61.57 122.64"/>
        <polygon class="cls-78" points="61.57 122.17 172.85 158.32 172.85 158.8 61.57 122.64 61.57 122.17"/>
        <polygon class="cls-78" points="61.57 121.69 172.85 157.84 172.85 158.32 61.57 122.17 61.57 121.69"/>
        <polygon class="cls-78" points="61.57 121.21 172.85 157.36 172.85 157.84 61.57 121.69 61.57 121.21"/>
        <polygon class="cls-78" points="61.57 120.73 172.85 156.88 172.85 157.36 61.57 121.21 61.57 120.73"/>
        <polygon class="cls-78" points="61.57 120.25 172.85 156.41 172.85 156.88 61.57 120.73 61.57 120.25"/>
        <polygon class="cls-78" points="61.57 119.77 172.85 155.93 172.85 156.41 61.57 120.25 61.57 119.77"/>
        <polygon class="cls-78" points="61.57 119.29 172.85 155.45 172.85 155.93 61.57 119.77 61.57 119.29"/>
        <polygon class="cls-78" points="61.57 118.81 172.85 154.97 172.85 155.45 61.57 119.29 61.57 118.81"/>
        <polygon class="cls-78" points="61.57 118.33 172.85 154.49 172.85 154.97 61.57 118.81 61.57 118.33"/>
        <polygon class="cls-78" points="61.57 117.85 172.85 154.01 172.85 154.49 61.57 118.33 61.57 117.85"/>
        <polygon class="cls-78" points="61.57 117.37 172.85 153.53 172.85 154.01 61.57 117.85 61.57 117.37"/>
        <polygon class="cls-78" points="61.57 116.89 172.85 153.05 172.85 153.53 61.57 117.37 61.57 116.89"/>
        <polygon class="cls-147" points="61.57 116.41 172.85 152.57 172.85 153.05 61.57 116.89 61.57 116.41"/>
        <polygon class="cls-147" points="61.57 115.93 172.85 152.09 172.85 152.57 61.57 116.41 61.57 115.93"/>
        <polygon class="cls-147" points="61.57 115.45 172.85 151.61 172.85 152.09 61.57 115.93 61.57 115.45"/>
        <polygon class="cls-147" points="61.57 114.98 172.85 151.13 172.85 151.61 61.57 115.45 61.57 114.98"/>
        <polygon class="cls-147" points="61.57 114.5 172.85 150.65 172.85 151.13 61.57 114.98 61.57 114.5"/>
        <polygon class="cls-19" points="61.57 114.02 172.85 150.17 172.85 150.65 61.57 114.5 61.57 114.02"/>
        <polygon class="cls-35" points="61.57 113.54 172.85 149.7 172.85 150.17 61.57 114.02 61.57 113.54"/>
        <polygon class="cls-35" points="61.57 113.06 172.85 149.22 172.85 149.7 61.57 113.54 61.57 113.06"/>
        <polygon class="cls-35" points="61.57 112.58 172.85 148.74 172.85 149.22 61.57 113.06 61.57 112.58"/>
        <polygon class="cls-35" points="61.57 112.1 172.85 148.26 172.85 148.74 61.57 112.58 61.57 112.1"/>
        <polygon class="cls-35" points="61.57 111.62 172.85 147.78 172.85 148.26 61.57 112.1 61.57 111.62"/>
        <polygon class="cls-35" points="61.57 111.14 172.85 147.3 172.85 147.78 61.57 111.62 61.57 111.14"/>
        <polygon class="cls-111" points="61.57 110.66 172.85 146.82 172.85 147.3 61.57 111.14 61.57 110.66"/>
        <polygon class="cls-111" points="61.57 110.18 172.85 146.34 172.85 146.82 61.57 110.66 61.57 110.18"/>
        <polygon class="cls-111" points="61.57 109.7 172.85 145.86 172.85 146.34 61.57 110.18 61.57 109.7"/>
        <polygon class="cls-6" points="61.57 109.22 172.85 145.38 172.85 145.86 61.57 109.7 61.57 109.22"/>
        <polygon class="cls-6" points="61.57 108.74 172.85 144.9 172.85 145.38 61.57 109.22 61.57 108.74"/>
        <polygon class="cls-6" points="61.57 108.27 172.85 144.42 172.85 144.9 61.57 108.74 61.57 108.27"/>
        <polygon class="cls-108" points="61.57 107.79 172.85 143.94 172.85 144.42 61.57 108.27 61.57 107.79"/>
        <polygon class="cls-108" points="61.57 107.31 172.85 143.46 172.85 143.94 61.57 107.79 61.57 107.31"/>
        <polygon class="cls-122" points="61.57 106.83 172.85 142.98 172.85 143.46 61.57 107.31 61.57 106.83"/>
        <polygon class="cls-122" points="61.57 106.35 172.85 142.51 172.85 142.98 61.57 106.83 61.57 106.35"/>
        <polygon class="cls-122" points="61.57 105.87 172.85 142.03 172.85 142.51 61.57 106.35 61.57 105.87"/>
        <polygon class="cls-69" points="61.57 105.39 172.85 141.55 172.85 142.03 61.57 105.87 61.57 105.39"/>
        <polygon class="cls-69" points="61.57 104.91 172.85 141.07 172.85 141.55 61.57 105.39 61.57 104.91"/>
        <polygon class="cls-69" points="61.57 104.43 172.85 140.59 172.85 141.07 61.57 104.91 61.57 104.43"/>
        <polygon class="cls-172" points="61.57 103.95 172.85 140.11 172.85 140.59 61.57 104.43 61.57 103.95"/>
        <polygon class="cls-106" points="61.57 103.47 172.85 139.63 172.85 140.11 61.57 103.95 61.57 103.47"/>
        <polygon class="cls-106" points="61.57 102.99 172.85 139.15 172.85 139.63 61.57 103.47 61.57 102.99"/>
        <polygon class="cls-106" points="61.57 102.51 172.85 138.67 172.85 139.15 61.57 102.99 61.57 102.51"/>
        <polygon class="cls-132" points="61.57 102.03 172.85 138.19 172.85 138.67 61.57 102.51 61.57 102.03"/>
        <polygon class="cls-132" points="61.57 101.56 172.85 137.71 172.85 138.19 61.57 102.03 61.57 101.56"/>
        <polygon class="cls-90" points="61.57 101.08 172.85 137.23 172.85 137.71 61.57 101.56 61.57 101.08"/>
        <polygon class="cls-90" points="61.57 100.6 172.85 136.75 172.85 137.23 61.57 101.08 61.57 100.6"/>
        <polygon class="cls-161" points="61.57 100.12 172.85 136.27 172.85 136.75 61.57 100.6 61.57 100.12"/>
        <polygon class="cls-21" points="61.57 99.64 172.85 135.8 172.85 136.27 61.57 100.12 61.57 99.64"/>
        <polygon class="cls-7" points="61.57 99.16 172.85 135.32 172.85 135.8 61.57 99.64 61.57 99.16"/>
        <polygon class="cls-7" points="61.57 98.68 172.85 134.84 172.85 135.32 61.57 99.16 61.57 98.68"/>
        <polygon class="cls-7" points="61.57 98.2 172.85 134.36 172.85 134.84 61.57 98.68 61.57 98.2"/>
        <polygon class="cls-7" points="61.57 97.72 172.85 133.88 172.85 134.36 61.57 98.2 61.57 97.72"/>
        <polygon class="cls-38" points="61.57 97.24 172.85 133.4 172.85 133.88 61.57 97.72 61.57 97.24"/>
        <polygon class="cls-38" points="61.57 96.76 172.85 132.92 172.85 133.4 61.57 97.24 61.57 96.76"/>
        <polygon class="cls-38" points="61.57 96.28 172.85 132.44 172.85 132.92 61.57 96.76 61.57 96.28"/>
        <polygon class="cls-22" points="61.57 95.8 172.85 131.96 172.85 132.44 61.57 96.28 61.57 95.8"/>
        <polygon class="cls-76" points="61.57 95.32 172.85 131.48 172.85 131.96 61.57 95.8 61.57 95.32"/>
        <polygon class="cls-76" points="61.57 94.84 172.85 131 172.85 131.48 61.57 95.32 61.57 94.84"/>
        <polygon class="cls-76" points="61.57 94.37 172.85 130.52 172.85 131 61.57 94.84 61.57 94.37"/>
        <polygon class="cls-11" points="61.57 93.89 172.85 130.04 172.85 130.52 61.57 94.37 61.57 93.89"/>
        <polygon class="cls-11" points="61.57 93.41 172.85 129.56 172.85 130.04 61.57 93.89 61.57 93.41"/>
        <polygon class="cls-112" points="61.57 92.93 172.85 129.09 172.85 129.56 61.57 93.41 61.57 92.93"/>
        <polygon class="cls-5" points="61.57 92.45 172.85 128.61 172.85 129.09 61.57 92.93 61.57 92.45"/>
        <polygon class="cls-5" points="61.57 91.97 172.85 128.13 172.85 128.61 61.57 92.45 61.57 91.97"/>
        <polygon class="cls-5" points="61.57 91.49 172.85 127.65 172.85 128.13 61.57 91.97 61.57 91.49"/>
        <polygon class="cls-102" points="61.57 91.01 172.85 127.17 172.85 127.65 61.57 91.49 61.57 91.01"/>
        <polygon class="cls-102" points="61.57 90.53 172.85 126.69 172.85 127.17 61.57 91.01 61.57 90.53"/>
        <polygon class="cls-164" points="61.57 90.05 172.85 126.21 172.85 126.69 61.57 90.53 61.57 90.05"/>
        <polygon class="cls-165" points="61.57 89.57 172.85 125.73 172.85 126.21 61.57 90.05 61.57 89.57"/>
        <polygon class="cls-84" points="61.57 89.09 172.85 125.25 172.85 125.73 61.57 89.57 61.57 89.09"/>
        <polygon class="cls-143" points="61.57 88.61 172.85 124.77 172.85 125.25 61.57 89.09 61.57 88.61"/>
        <polygon class="cls-143" points="61.57 88.13 172.85 124.29 172.85 124.77 61.57 88.61 61.57 88.13"/>
        <polygon class="cls-47" points="61.57 87.66 172.85 123.81 172.85 124.29 61.57 88.13 61.57 87.66"/>
        <polygon class="cls-47" points="61.57 87.18 172.85 123.33 172.85 123.81 61.57 87.66 61.57 87.18"/>
        <polygon class="cls-50" points="61.57 86.7 172.85 122.85 172.85 123.33 61.57 87.18 61.57 86.7"/>
        <polygon class="cls-124" points="61.57 86.22 172.85 122.37 172.85 122.85 61.57 86.7 61.57 86.22"/>
        <polygon class="cls-54" points="61.57 85.74 172.85 121.9 172.85 122.37 61.57 86.22 61.57 85.74"/>
        <polygon class="cls-30" points="61.57 85.26 172.85 121.42 172.85 121.9 61.57 85.74 61.57 85.26"/>
        <polygon class="cls-178" points="61.57 84.78 172.85 120.94 172.85 121.42 61.57 85.26 61.57 84.78"/>
        <polygon class="cls-181" points="61.57 84.3 172.85 120.46 172.85 120.94 61.57 84.78 61.57 84.3"/>
        <polygon class="cls-118" points="61.57 83.82 172.85 119.98 172.85 120.46 61.57 84.3 61.57 83.82"/>
        <polygon class="cls-119" points="61.57 83.34 172.85 119.5 172.85 119.98 61.57 83.82 61.57 83.34"/>
        <polygon class="cls-119" points="61.57 82.86 172.85 119.02 172.85 119.5 61.57 83.34 61.57 82.86"/>
        <polygon class="cls-93" points="61.57 82.38 172.85 118.54 172.85 119.02 61.57 82.86 61.57 82.38"/>
        <polygon class="cls-32" points="61.57 81.9 172.85 118.06 172.85 118.54 61.57 82.38 61.57 81.9"/>
        <polygon class="cls-146" points="61.57 81.42 172.85 117.58 172.85 118.06 61.57 81.9 61.57 81.42"/>
        <polygon class="cls-86" points="61.57 80.95 172.85 117.1 172.85 117.58 61.57 81.42 61.57 80.95"/>
        <polygon class="cls-58" points="61.57 80.47 172.85 116.62 172.85 117.1 61.57 80.95 61.57 80.47"/>
        <polygon class="cls-20" points="61.57 79.99 172.85 116.14 172.85 116.62 61.57 80.47 61.57 79.99"/>
        <polygon class="cls-154" points="61.57 79.51 172.85 115.66 172.85 116.14 61.57 79.99 61.57 79.51"/>
        <polygon class="cls-117" points="61.57 79.03 172.85 115.19 172.85 115.66 61.57 79.51 61.57 79.03"/>
        <polygon class="cls-41" points="61.57 78.55 172.85 114.71 172.85 115.19 61.57 79.03 61.57 78.55"/>
        <polygon class="cls-121" points="61.57 78.07 172.85 114.23 172.85 114.71 61.57 78.55 61.57 78.07"/>
        <polygon class="cls-70" points="61.57 77.59 172.85 113.75 172.85 114.23 61.57 78.07 61.57 77.59"/>
        <polygon class="cls-62" points="61.57 77.11 172.85 113.27 172.85 113.75 61.57 77.59 61.57 77.11"/>
        <polygon class="cls-156" points="61.57 76.63 172.85 112.79 172.85 113.27 61.57 77.11 61.57 76.63"/>
        <polygon class="cls-83" points="61.57 76.15 172.85 112.31 172.85 112.79 61.57 76.63 61.57 76.15"/>
        <polygon class="cls-138" points="61.57 75.67 172.85 111.83 172.85 112.31 61.57 76.15 61.57 75.67"/>
        <polygon class="cls-130" points="61.57 75.19 172.85 111.35 172.85 111.83 61.57 75.67 61.57 75.19"/>
        <polygon class="cls-8" points="61.57 74.71 172.85 110.87 172.85 111.35 61.57 75.19 61.57 74.71"/>
        <polygon class="cls-23" points="61.57 74.23 172.85 110.39 172.85 110.87 61.57 74.71 61.57 74.23"/>
        <polygon class="cls-24" points="61.57 73.76 172.85 109.91 172.85 110.39 61.57 74.23 61.57 73.76"/>
        <polygon class="cls-162" points="61.57 73.28 172.85 109.43 172.85 109.91 61.57 73.76 61.57 73.28"/>
        <polygon class="cls-59" points="61.57 72.8 172.85 108.95 172.85 109.43 61.57 73.28 61.57 72.8"/>
        <polygon class="cls-103" points="61.57 72.32 172.85 108.48 172.85 108.95 61.57 72.8 61.57 72.32"/>
        <polygon class="cls-134" points="61.57 71.84 172.85 108 172.85 108.48 61.57 72.32 61.57 71.84"/>
        <polygon class="cls-45" points="61.57 71.36 172.85 107.52 172.85 108 61.57 71.84 61.57 71.36"/>
        <polygon class="cls-166" points="61.57 70.88 172.85 107.04 172.85 107.52 61.57 71.36 61.57 70.88"/>
        <polygon class="cls-75" points="61.57 70.4 172.85 106.56 172.85 107.04 61.57 70.88 61.57 70.4"/>
        <polygon class="cls-87" points="61.57 69.92 172.85 106.08 172.85 106.56 61.57 70.4 61.57 69.92"/>
        <polygon class="cls-92" points="61.57 69.44 172.85 105.6 172.85 106.08 61.57 69.92 61.57 69.44"/>
        <polygon class="cls-136" points="61.57 68.96 172.85 105.12 172.85 105.6 61.57 69.44 61.57 68.96"/>
        <polygon class="cls-109" points="61.57 68.48 172.85 104.64 172.85 105.12 61.57 68.96 61.57 68.48"/>
        <polygon class="cls-77" points="61.57 68 172.85 104.16 172.85 104.64 61.57 68.48 61.57 68"/>
        <polygon class="cls-167" points="61.57 67.52 172.85 103.68 172.85 104.16 61.57 68 61.57 67.52"/>
        <polygon class="cls-110" points="61.57 67.05 172.85 103.2 172.85 103.68 61.57 67.52 61.57 67.05"/>
        <polygon class="cls-18" points="61.57 66.57 172.85 102.72 172.85 103.2 61.57 67.05 61.57 66.57"/>
        <polygon class="cls-79" points="61.57 66.09 172.85 102.24 172.85 102.72 61.57 66.57 61.57 66.09"/>
        <polygon class="cls-66" points="61.57 65.61 172.85 101.77 172.85 102.24 61.57 66.09 61.57 65.61"/>
        <polygon class="cls-1" points="61.57 65.13 172.85 101.29 172.85 101.77 61.57 65.61 61.57 65.13"/>
        <polygon class="cls-49" points="61.57 64.65 172.85 100.81 172.85 101.29 61.57 65.13 61.57 64.65"/>
        <polygon class="cls-60" points="61.57 64.17 172.85 100.33 172.85 100.81 61.57 64.65 61.57 64.17"/>
        <polygon class="cls-144" points="61.57 63.69 172.85 99.85 172.85 100.33 61.57 64.17 61.57 63.69"/>
        <polygon class="cls-150" points="61.57 63.21 172.85 99.37 172.85 99.85 61.57 63.69 61.57 63.21"/>
        <polygon class="cls-74" points="61.57 62.73 172.85 98.89 172.85 99.37 61.57 63.21 61.57 62.73"/>
        <polygon class="cls-182" points="61.57 62.25 172.85 98.41 172.85 98.89 61.57 62.73 61.57 62.25"/>
        <polygon class="cls-28" points="61.57 61.77 172.85 97.93 172.85 98.41 61.57 62.25 61.57 61.77"/>
        <polygon class="cls-33" points="61.57 61.29 172.85 97.45 172.85 97.93 61.57 61.77 61.57 61.29"/>
        <polygon class="cls-46" points="61.57 60.81 172.85 96.97 172.85 97.45 61.57 61.29 61.57 60.81"/>
        <polygon class="cls-128" points="61.57 60.34 172.85 96.49 172.85 96.97 61.57 60.81 61.57 60.34"/>
        <polygon class="cls-40" points="61.57 59.86 172.85 96.01 172.85 96.49 61.57 60.34 61.57 59.86"/>
        <polygon class="cls-71" points="61.57 59.38 172.85 95.53 172.85 96.01 61.57 59.86 61.57 59.38"/>
        <polygon class="cls-175" points="61.57 58.9 172.85 95.05 172.85 95.53 61.57 59.38 61.57 58.9"/>
        <polygon class="cls-114" points="61.57 58.42 172.85 94.58 172.85 95.05 61.57 58.9 61.57 58.42"/>
        <polygon class="cls-169" points="61.57 57.94 172.85 94.1 172.85 94.58 61.57 58.42 61.57 57.94"/>
        <polygon class="cls-82" points="61.57 57.46 172.85 93.62 172.85 94.1 61.57 57.94 61.57 57.46"/>
        <polygon class="cls-88" points="61.57 56.98 172.85 93.14 172.85 93.62 61.57 57.46 61.57 56.98"/>
        <polygon class="cls-16" points="61.57 56.5 172.85 92.66 172.85 93.14 61.57 56.98 61.57 56.5"/>
        <polygon class="cls-17" points="61.57 56.02 172.85 92.18 172.85 92.66 61.57 56.5 61.57 56.02"/>
        <polygon class="cls-168" points="61.57 55.54 172.85 91.7 172.85 92.18 61.57 56.02 61.57 55.54"/>
        <polygon class="cls-131" points="61.57 55.06 172.85 91.22 172.85 91.7 61.57 55.54 61.57 55.06"/>
        <polygon class="cls-36" points="61.57 54.58 172.85 90.74 172.85 91.22 61.57 55.06 61.57 54.58"/>
        <polygon class="cls-91" points="61.57 54.1 172.85 90.26 172.85 90.74 61.57 54.58 61.57 54.1"/>
        <polygon class="cls-61" points="61.57 53.62 172.85 89.78 172.85 90.26 61.57 54.1 61.57 53.62"/>
        <polygon class="cls-25" points="61.57 53.15 172.85 89.3 172.85 89.78 61.57 53.62 61.57 53.15"/>
        <polygon class="cls-148" points="61.57 52.67 172.85 88.82 172.85 89.3 61.57 53.15 61.57 52.67"/>
        <polygon class="cls-135" points="61.57 52.19 172.85 88.34 172.85 88.82 61.57 52.67 61.57 52.19"/>
        <polygon class="cls-85" points="61.57 51.71 172.85 87.87 172.85 88.34 61.57 52.19 61.57 51.71"/>
        <polygon class="cls-105" points="61.57 51.23 172.85 87.39 172.85 87.87 61.57 51.71 61.57 51.23"/>
        <polygon class="cls-10" points="61.57 50.75 172.85 86.91 172.85 87.39 61.57 51.23 61.57 50.75"/>
        <polygon class="cls-80" points="61.57 50.27 172.85 86.43 172.85 86.91 61.57 50.75 61.57 50.27"/>
        <polygon class="cls-81" points="61.57 49.79 172.85 85.95 172.85 86.43 61.57 50.27 61.57 49.79"/>
        <polygon class="cls-152" points="61.57 49.31 172.85 85.47 172.85 85.95 61.57 49.79 61.57 49.31"/>
        <polygon class="cls-139" points="61.57 48.83 172.85 84.99 172.85 85.47 61.57 49.31 61.57 48.83"/>
        <polygon class="cls-151" points="61.57 48.35 172.85 84.51 172.85 84.99 61.57 48.83 61.57 48.35"/>
        <polygon class="cls-127" points="61.57 47.87 172.85 84.03 172.85 84.51 61.57 48.35 61.57 47.87"/>
        <polygon class="cls-44" points="61.57 47.39 172.85 83.55 172.85 84.03 61.57 47.87 61.57 47.39"/>
        <polygon class="cls-39" points="61.57 46.91 172.85 83.07 172.85 83.55 61.57 47.39 61.57 46.91"/>
        <polygon class="cls-125" points="61.57 46.44 172.85 82.59 172.85 83.07 61.57 46.91 61.57 46.44"/>
        <polygon class="cls-26" points="61.57 45.96 172.85 82.11 172.85 82.59 61.57 46.44 61.57 45.96"/>
        <polygon class="cls-48" points="61.57 45.48 172.85 81.63 172.85 82.11 61.57 45.96 61.57 45.48"/>
        <polygon class="cls-72" points="61.57 45 172.85 81.16 172.85 81.63 61.57 45.48 61.57 45"/>
        <polygon class="cls-107" points="62.69 44.88 172.85 80.68 172.85 81.16 61.57 45 61.57 44.88 62.69 44.88"/>
        <polygon class="cls-27" points="64.17 44.88 172.85 80.2 172.85 80.68 62.69 44.88 64.17 44.88"/>
        <polygon class="cls-4" points="65.64 44.88 172.85 79.72 172.85 80.2 64.17 44.88 65.64 44.88"/>
        <polygon class="cls-89" points="67.12 44.88 172.85 79.24 172.85 79.72 65.64 44.88 67.12 44.88"/>
        <polygon class="cls-157" points="68.59 44.88 172.85 78.76 172.85 79.24 67.12 44.88 68.59 44.88"/>
        <polygon class="cls-14" points="70.07 44.88 172.85 78.28 172.85 78.76 68.59 44.88 70.07 44.88"/>
        <polygon class="cls-12" points="71.54 44.88 172.85 77.8 172.85 78.28 70.07 44.88 71.54 44.88"/>
        <polygon class="cls-51" points="73.02 44.88 172.85 77.32 172.85 77.8 71.54 44.88 73.02 44.88"/>
        <polygon class="cls-120" points="74.49 44.88 172.85 76.84 172.85 77.32 73.02 44.88 74.49 44.88"/>
        <polygon class="cls-137" points="75.97 44.88 172.85 76.36 172.85 76.84 74.49 44.88 75.97 44.88"/>
        <polygon class="cls-137" points="76.33 44.88 172.85 76.25 172.85 76.36 75.97 44.88 76.33 44.88"/>
        <polygon class="cls-137" points="172.85 76.25 76.33 44.88 172.85 44.88 172.85 76.25"/>
      </g>
    </g>
    <path class="cls-53" d="M82.35,162.23c7.11-6.6,7.5-17.7.87-24.79-6.63-7.08-17.76-7.47-24.87-.87-7.11,6.61-7.5,17.71-.87,24.79,6.63,7.08,17.77,7.47,24.87.87"/>
    <path class="cls-158" d="M85.71,30.37c7.11-6.6,7.5-17.7.87-24.79-6.63-7.08-17.76-7.47-24.87-.87-7.11,6.61-7.5,17.71-.87,24.79,6.63,7.08,17.77,7.47,24.87.87"/>
    <path class="cls-53" d="M82.35,162.23c7.11-6.6,7.5-17.7.87-24.79-6.63-7.08-17.76-7.47-24.87-.87-7.11,6.61-7.5,17.71-.87,24.79,6.63,7.08,17.77,7.47,24.87.87"/>
    <g class="cls-97">
      <polygon class="cls-158" points="58.84 23.85 42 18.38 58.84 18.38 58.84 23.85"/>
      <polygon class="cls-158" points="58.84 25.13 38.07 18.38 42 18.38 58.84 23.85 58.84 25.13"/>
      <polygon class="cls-158" points="58.84 26.4 34.14 18.38 38.07 18.38 58.84 25.13 58.84 26.4"/>
      <polygon class="cls-158" points="58.84 27.68 30.21 18.38 34.14 18.38 58.84 26.4 58.84 27.68"/>
      <polygon class="cls-158" points="58.84 28.96 26.28 18.38 30.21 18.38 58.84 27.68 58.84 28.96"/>
      <polygon class="cls-158" points="58.84 30.24 22.35 18.38 26.28 18.38 58.84 28.96 58.84 30.24"/>
      <polygon class="cls-158" points="58.84 31.51 18.42 18.38 22.35 18.38 58.84 30.24 58.84 31.51"/>
      <polygon class="cls-158" points="58.84 32.79 14.49 18.38 18.42 18.38 58.84 31.51 58.84 32.79"/>
      <polygon class="cls-158" points="58.84 34.07 13.61 19.37 13.93 18.38 14.49 18.38 58.84 32.79 58.84 34.07"/>
      <polygon class="cls-158" points="58.84 35.34 13.23 20.52 13.61 19.37 58.84 34.07 58.84 35.34"/>
      <polygon class="cls-158" points="58.84 36.62 12.86 21.68 13.23 20.52 58.84 35.34 58.84 36.62"/>
      <polygon class="cls-158" points="58.84 37.9 12.48 22.84 12.86 21.68 58.84 36.62 58.84 37.9"/>
      <polygon class="cls-158" points="58.84 39.17 12.11 23.99 12.48 22.84 58.84 37.9 58.84 39.17"/>
      <polygon class="cls-158" points="58.84 40.45 11.73 25.15 12.11 23.99 58.84 39.17 58.84 40.45"/>
      <polygon class="cls-158" points="58.84 41.73 11.36 26.3 11.73 25.15 58.84 40.45 58.84 41.73"/>
      <polygon class="cls-158" points="58.84 43.01 10.98 27.46 11.36 26.3 58.84 41.73 58.84 43.01"/>
      <polygon class="cls-57" points="58.84 44.28 10.6 28.61 10.98 27.46 58.84 43.01 58.84 44.28"/>
      <polygon class="cls-57" points="58.84 45.56 10.23 29.77 10.6 28.61 58.84 44.28 58.84 45.56"/>
      <polygon class="cls-149" points="58.84 46.84 9.85 30.92 10.23 29.77 58.84 45.56 58.84 46.84"/>
      <polygon class="cls-149" points="58.84 48.11 9.48 32.08 9.85 30.92 58.84 46.84 58.84 48.11"/>
      <polygon class="cls-42" points="58.84 49.39 9.1 33.23 9.48 32.08 58.84 48.11 58.84 49.39"/>
      <polygon class="cls-43" points="58.84 50.67 8.73 34.39 9.1 33.23 58.84 49.39 58.84 50.67"/>
      <polygon class="cls-43" points="58.84 51.94 8.35 35.54 8.73 34.39 58.84 50.67 58.84 51.94"/>
      <polygon class="cls-43" points="58.84 53.22 7.98 36.7 8.35 35.54 58.84 51.94 58.84 53.22"/>
      <polygon class="cls-64" points="58.84 54.5 7.6 37.85 7.98 36.7 58.84 53.22 58.84 54.5"/>
      <polygon class="cls-64" points="58.84 55.78 7.23 39.01 7.6 37.85 58.84 54.5 58.84 55.78"/>
      <polygon class="cls-133" points="58.84 57.05 6.85 40.16 7.23 39.01 58.84 55.78 58.84 57.05"/>
      <polygon class="cls-133" points="58.84 58.33 6.48 41.32 6.85 40.16 58.84 57.05 58.84 58.33"/>
      <polygon class="cls-52" points="58.84 59.61 6.1 42.47 6.48 41.32 58.84 58.33 58.84 59.61"/>
      <polygon class="cls-52" points="58.84 60.88 5.73 43.63 6.1 42.47 58.84 59.61 58.84 60.88"/>
      <polygon class="cls-104" points="58.84 62.16 5.35 44.78 5.73 43.63 58.84 60.88 58.84 62.16"/>
      <polygon class="cls-153" points="58.84 63.44 4.98 45.94 5.35 44.78 58.84 62.16 58.84 63.44"/>
      <polygon class="cls-37" points="58.84 64.72 4.6 47.09 4.98 45.94 58.84 63.44 58.84 64.72"/>
      <polygon class="cls-140" points="58.84 65.99 4.22 48.25 4.6 47.09 58.84 64.72 58.84 65.99"/>
      <polygon class="cls-180" points="58.84 67.27 3.85 49.4 4.22 48.25 58.84 65.99 58.84 67.27"/>
      <polygon class="cls-34" points="58.84 68.03 58.69 68.5 3.47 50.56 3.85 49.4 58.84 67.27 58.84 68.03"/>
      <rect class="cls-129" x="30.29" y="31.08" width="1.21" height="58.06" transform="translate(-35.82 70.91) rotate(-72)"/>
      <rect class="cls-170" x="29.91" y="32.23" width="1.21" height="58.06" transform="translate(-37.17 71.35) rotate(-72)"/>
      <rect class="cls-159" x="29.54" y="33.39" width="1.21" height="58.06" transform="translate(-38.53 71.8) rotate(-72)"/>
      <rect class="cls-68" x="29.16" y="34.54" width="1.21" height="58.06" transform="translate(-39.89 72.24) rotate(-72)"/>
      <rect class="cls-13" x="28.78" y="35.7" width="1.21" height="58.06" transform="translate(-41.25 72.68) rotate(-72)"/>
      <rect class="cls-123" x="28.41" y="36.85" width="1.21" height="58.06" transform="translate(-42.61 73.12) rotate(-72)"/>
      <rect class="cls-9" x="28.03" y="38.01" width="1.21" height="58.06" transform="translate(-43.96 73.56) rotate(-72)"/>
      <rect class="cls-115" x="27.66" y="39.16" width="1.21" height="58.06" transform="translate(-45.32 74) rotate(-72)"/>
      <rect class="cls-113" x="27.28" y="40.32" width="1.21" height="58.06" transform="translate(-46.68 74.44) rotate(-72)"/>
      <polygon class="cls-63" points="55.31 78.89 54.94 80.05 -.19 62.14 -.19 61.85 .1 60.95 55.31 78.89"/>
      <polygon class="cls-173" points="54.94 80.05 54.56 81.2 -.19 63.41 -.19 62.14 54.94 80.05"/>
      <polygon class="cls-29" points="54.56 81.2 54.18 82.36 -.19 64.69 -.19 63.41 54.56 81.2"/>
      <polygon class="cls-141" points="54.18 82.36 53.81 83.51 -.19 65.97 -.19 64.69 54.18 82.36"/>
      <polygon class="cls-155" points="53.81 83.51 53.43 84.67 -.19 67.24 -.19 65.97 53.81 83.51"/>
      <polygon class="cls-160" points="53.43 84.67 53.06 85.82 -.19 68.52 -.19 67.24 53.43 84.67"/>
      <polygon class="cls-15" points="53.06 85.82 52.68 86.98 -.19 69.8 -.19 68.52 53.06 85.82"/>
      <polygon class="cls-177" points="52.68 86.98 52.31 88.13 -.19 71.07 -.19 69.8 52.68 86.98"/>
      <polygon class="cls-67" points="52.31 88.13 51.93 89.29 -.19 72.35 -.19 71.07 52.31 88.13"/>
      <polygon class="cls-101" points="51.93 89.29 51.56 90.44 -.19 73.63 -.19 72.35 51.93 89.29"/>
      <polygon class="cls-31" points="51.56 90.44 51.18 91.6 -.19 74.91 -.19 73.63 51.56 90.44"/>
      <polygon class="cls-65" points="51.18 91.6 50.81 92.75 -.19 76.18 -.19 74.91 51.18 91.6"/>
      <polygon class="cls-179" points="50.81 92.75 50.43 93.91 -.19 77.46 -.19 76.18 50.81 92.75"/>
      <polygon class="cls-171" points="50.43 93.91 50.06 95.06 -.19 78.74 -.19 77.46 50.43 93.91"/>
      <polygon class="cls-55" points="50.06 95.06 49.68 96.22 -.19 80.01 -.19 78.74 50.06 95.06"/>
      <polygon class="cls-100" points="49.68 96.22 49.31 97.37 -.19 81.29 -.19 80.01 49.68 96.22"/>
      <polygon class="cls-163" points="49.31 97.37 48.93 98.53 -.19 82.57 -.19 81.29 49.31 97.37"/>
      <polygon class="cls-94" points="48.93 98.53 48.55 99.68 -.19 83.85 -.19 82.57 48.93 98.53"/>
      <polygon class="cls-142" points="48.55 99.68 48.18 100.84 -.19 85.12 -.19 83.85 48.55 99.68"/>
      <polygon class="cls-176" points="48.18 100.84 47.8 102 -.19 86.4 -.19 85.12 48.18 100.84"/>
      <polygon class="cls-126" points="47.8 102 47.73 102.22 44.57 102.22 -.19 87.68 -.19 86.4 47.8 102"/>
      <polygon class="cls-56" points="40.64 102.22 -.19 88.95 -.19 87.68 44.57 102.22 40.64 102.22"/>
      <polygon class="cls-116" points="36.71 102.22 -.19 90.23 -.19 88.95 40.64 102.22 36.71 102.22"/>
      <polygon class="cls-73" points="32.78 102.22 -.19 91.51 -.19 90.23 36.71 102.22 32.78 102.22"/>
      <polygon class="cls-145" points="28.85 102.22 -.19 92.78 -.19 91.51 32.78 102.22 28.85 102.22"/>
      <polygon class="cls-145" points="23.42 102.22 -.19 94.55 -.19 92.78 28.85 102.22 23.42 102.22"/>
      <polygon class="cls-145" points="-.19 94.55 23.42 102.22 -.19 102.22 -.19 94.55"/>
    </g>
    <g class="cls-99">
      <polygon class="cls-53" points="86.6 142.3 103.27 147.71 86.6 147.71 86.6 142.3"/>
      <polygon class="cls-53" points="86.6 141.82 104.72 147.71 103.27 147.71 86.6 142.3 86.6 141.82"/>
      <polygon class="cls-53" points="86.6 141.35 106.17 147.71 104.72 147.71 86.6 141.82 86.6 141.35"/>
      <polygon class="cls-53" points="86.6 140.88 107.62 147.71 106.17 147.71 86.6 141.35 86.6 140.88"/>
      <polygon class="cls-53" points="86.6 140.41 109.08 147.71 107.62 147.71 86.6 140.88 86.6 140.41"/>
      <polygon class="cls-53" points="86.6 139.94 110.53 147.71 109.08 147.71 86.6 140.41 86.6 139.94"/>
      <polygon class="cls-53" points="86.6 139.46 111.98 147.71 110.53 147.71 86.6 139.94 86.6 139.46"/>
      <polygon class="cls-53" points="86.6 138.99 113.43 147.71 111.98 147.71 86.6 139.46 86.6 138.99"/>
      <polygon class="cls-53" points="86.6 138.52 114.89 147.71 113.43 147.71 86.6 138.99 86.6 138.52"/>
      <polygon class="cls-53" points="86.6 138.05 116.34 147.71 114.89 147.71 86.6 138.52 86.6 138.05"/>
      <polygon class="cls-53" points="86.6 137.58 117.79 147.71 116.34 147.71 86.6 138.05 86.6 137.58"/>
      <polygon class="cls-53" points="86.6 137.1 119.24 147.71 117.79 147.71 86.6 137.58 86.6 137.1"/>
      <polygon class="cls-53" points="86.6 136.63 120.7 147.71 119.24 147.71 86.6 137.1 86.6 136.63"/>
      <polygon class="cls-53" points="86.6 136.16 122.15 147.71 120.7 147.71 86.6 136.63 86.6 136.16"/>
      <polygon class="cls-53" points="86.6 135.69 123.6 147.71 122.15 147.71 86.6 136.16 86.6 135.69"/>
      <polygon class="cls-53" points="86.6 135.22 125.06 147.71 123.6 147.71 86.6 135.69 86.6 135.22"/>
      <polygon class="cls-53" points="86.6 134.74 126.51 147.71 125.06 147.71 86.6 135.22 86.6 134.74"/>
      <polygon class="cls-53" points="86.6 134.27 127.96 147.71 126.51 147.71 86.6 134.74 86.6 134.27"/>
      <polygon class="cls-53" points="86.6 133.8 129.41 147.71 127.96 147.71 86.6 134.27 86.6 133.8"/>
      <polygon class="cls-53" points="86.6 133.33 130.87 147.71 129.41 147.71 86.6 133.8 86.6 133.33"/>
      <polygon class="cls-53" points="86.6 132.86 132.32 147.71 130.87 147.71 86.6 133.33 86.6 132.86"/>
      <polygon class="cls-53" points="86.6 132.38 133.03 147.47 132.96 147.71 132.32 147.71 86.6 132.86 86.6 132.38"/>
      <polygon class="cls-53" points="86.6 131.91 133.17 147.04 133.03 147.47 86.6 132.38 86.6 131.91"/>
      <polygon class="cls-53" points="86.6 131.44 133.31 146.62 133.17 147.04 86.6 131.91 86.6 131.44"/>
      <polygon class="cls-53" points="86.6 130.97 133.45 146.19 133.31 146.62 86.6 131.44 86.6 130.97"/>
      <polygon class="cls-78" points="86.6 130.5 133.59 145.76 133.45 146.19 86.6 130.97 86.6 130.5"/>
      <polygon class="cls-78" points="86.6 130.02 133.73 145.34 133.59 145.76 86.6 130.5 86.6 130.02"/>
      <polygon class="cls-78" points="86.6 129.55 133.87 144.91 133.73 145.34 86.6 130.02 86.6 129.55"/>
      <polygon class="cls-78" points="86.6 129.08 134.01 144.48 133.87 144.91 86.6 129.55 86.6 129.08"/>
      <polygon class="cls-78" points="86.6 128.61 134.14 144.06 134.01 144.48 86.6 129.08 86.6 128.61"/>
      <polygon class="cls-78" points="86.6 128.14 134.28 143.63 134.14 144.06 86.6 128.61 86.6 128.14"/>
      <polygon class="cls-78" points="86.6 127.66 134.42 143.2 134.28 143.63 86.6 128.14 86.6 127.66"/>
      <polygon class="cls-78" points="86.6 127.19 134.56 142.78 134.42 143.2 86.6 127.66 86.6 127.19"/>
      <polygon class="cls-78" points="86.6 126.72 134.7 142.35 134.56 142.78 86.6 127.19 86.6 126.72"/>
      <polygon class="cls-78" points="86.6 126.25 134.84 141.92 134.7 142.35 86.6 126.72 86.6 126.25"/>
      <polygon class="cls-78" points="86.6 125.78 134.98 141.49 134.84 141.92 86.6 126.25 86.6 125.78"/>
      <polygon class="cls-78" points="86.6 125.3 135.12 141.07 134.98 141.49 86.6 125.78 86.6 125.3"/>
      <polygon class="cls-78" points="86.6 124.83 135.25 140.64 135.12 141.07 86.6 125.3 86.6 124.83"/>
      <polygon class="cls-78" points="86.6 124.36 135.39 140.21 135.25 140.64 86.6 124.83 86.6 124.36"/>
      <polygon class="cls-78" points="86.6 123.89 135.53 139.79 135.39 140.21 86.6 124.36 86.6 123.89"/>
      <polygon class="cls-147" points="86.6 123.42 135.67 139.36 135.53 139.79 86.6 123.89 86.6 123.42"/>
      <polygon class="cls-147" points="86.6 122.94 135.81 138.93 135.67 139.36 86.6 123.42 86.6 122.94"/>
      <polygon class="cls-147" points="86.6 122.47 135.95 138.51 135.81 138.93 86.6 122.94 86.6 122.47"/>
      <polygon class="cls-147" points="86.6 122 136.09 138.08 135.95 138.51 86.6 122.47 86.6 122"/>
      <polygon class="cls-147" points="86.6 121.53 136.22 137.65 136.09 138.08 86.6 122 86.6 121.53"/>
      <polygon class="cls-19" points="86.6 121.06 136.36 137.23 136.22 137.65 86.6 121.53 86.6 121.06"/>
      <polygon class="cls-35" points="86.6 120.58 136.5 136.8 136.36 137.23 86.6 121.06 86.6 120.58"/>
      <polygon class="cls-35" points="86.6 120.11 136.64 136.37 136.5 136.8 86.6 120.58 86.6 120.11"/>
      <polygon class="cls-35" points="86.6 119.64 136.78 135.94 136.64 136.37 86.6 120.11 86.6 119.64"/>
      <polygon class="cls-35" points="86.6 119.17 136.92 135.52 136.78 135.94 86.6 119.64 86.6 119.17"/>
      <polygon class="cls-35" points="86.6 118.7 137.06 135.09 136.92 135.52 86.6 119.17 86.6 118.7"/>
      <polygon class="cls-35" points="86.6 118.22 137.2 134.66 137.06 135.09 86.6 118.7 86.6 118.22"/>
      <polygon class="cls-111" points="86.6 117.75 137.33 134.24 137.2 134.66 86.6 118.22 86.6 117.75"/>
      <polygon class="cls-111" points="86.6 117.28 137.47 133.81 137.33 134.24 86.6 117.75 86.6 117.28"/>
      <polygon class="cls-111" points="86.6 116.81 137.61 133.38 137.47 133.81 86.6 117.28 86.6 116.81"/>
      <polygon class="cls-6" points="86.6 116.34 137.75 132.96 137.61 133.38 86.6 116.81 86.6 116.34"/>
      <polygon class="cls-6" points="86.6 115.86 137.89 132.53 137.75 132.96 86.6 116.34 86.6 115.86"/>
      <polygon class="cls-6" points="86.6 115.39 138.03 132.1 137.89 132.53 86.6 115.86 86.6 115.39"/>
      <polygon class="cls-108" points="86.6 114.92 138.17 131.68 138.03 132.1 86.6 115.39 86.6 114.92"/>
      <polygon class="cls-108" points="86.6 114.45 138.31 131.25 138.17 131.68 86.6 114.92 86.6 114.45"/>
      <polygon class="cls-122" points="86.6 113.98 138.44 130.82 138.31 131.25 86.6 114.45 86.6 113.98"/>
      <polygon class="cls-122" points="86.6 113.5 138.58 130.4 138.44 130.82 86.6 113.98 86.6 113.5"/>
      <polygon class="cls-122" points="86.6 113.03 138.72 129.97 138.58 130.4 86.6 113.5 86.6 113.03"/>
      <polygon class="cls-69" points="86.6 112.56 138.86 129.54 138.72 129.97 86.6 113.03 86.6 112.56"/>
      <polygon class="cls-69" points="86.6 112.09 139 129.11 138.86 129.54 86.6 112.56 86.6 112.09"/>
      <polygon class="cls-69" points="86.6 111.62 139.14 128.69 139 129.11 86.6 112.09 86.6 111.62"/>
      <polygon class="cls-172" points="86.6 111.14 139.28 128.26 139.14 128.69 86.6 111.62 86.6 111.14"/>
      <polygon class="cls-106" points="86.6 110.67 139.42 127.83 139.28 128.26 86.6 111.14 86.6 110.67"/>
      <polygon class="cls-106" points="86.6 110.2 139.55 127.41 139.42 127.83 86.6 110.67 86.6 110.2"/>
      <polygon class="cls-106" points="86.6 109.73 139.69 126.98 139.55 127.41 86.6 110.2 86.6 109.73"/>
      <polygon class="cls-132" points="86.6 109.26 139.83 126.55 139.69 126.98 86.6 109.73 86.6 109.26"/>
      <polygon class="cls-132" points="86.6 108.78 139.97 126.13 139.83 126.55 86.6 109.26 86.6 108.78"/>
      <polygon class="cls-90" points="86.6 108.31 140.11 125.7 139.97 126.13 86.6 108.78 86.6 108.31"/>
      <polygon class="cls-90" points="86.6 107.84 140.25 125.27 140.11 125.7 86.6 108.31 86.6 107.84"/>
      <polygon class="cls-161" points="86.6 107.37 140.39 124.85 140.25 125.27 86.6 107.84 86.6 107.37"/>
      <polygon class="cls-21" points="86.6 106.9 140.52 124.42 140.39 124.85 86.6 107.37 86.6 106.9"/>
      <polygon class="cls-7" points="86.6 106.42 140.66 123.99 140.52 124.42 86.6 106.9 86.6 106.42"/>
      <polygon class="cls-7" points="86.6 105.95 140.8 123.56 140.66 123.99 86.6 106.42 86.6 105.95"/>
      <polygon class="cls-7" points="86.6 105.53 86.61 105.49 140.94 123.14 140.8 123.56 86.6 105.95 86.6 105.53"/>
      <rect class="cls-7" x="113.62" y="85.54" width=".45" height="57.12" transform="translate(-29.85 187.11) rotate(-72)"/>
      <rect class="cls-38" x="113.76" y="85.11" width=".45" height="57.12" transform="translate(-29.35 186.95) rotate(-72)"/>
      <rect class="cls-38" x="113.9" y="84.68" width=".45" height="57.12" transform="translate(-28.84 186.79) rotate(-72)"/>
      <rect class="cls-38" x="114.04" y="84.26" width=".45" height="57.12" transform="translate(-28.34 186.63) rotate(-72)"/>
      <rect class="cls-22" x="114.18" y="83.83" width=".45" height="57.12" transform="translate(-27.84 186.46) rotate(-72)"/>
      <rect class="cls-76" x="114.32" y="83.4" width=".45" height="57.12" transform="translate(-27.34 186.3) rotate(-72)"/>
      <rect class="cls-76" x="114.45" y="82.98" width=".45" height="57.12" transform="translate(-26.84 186.14) rotate(-72)"/>
      <rect class="cls-76" x="114.59" y="82.55" width=".45" height="57.12" transform="translate(-26.33 185.97) rotate(-72)"/>
      <rect class="cls-11" x="114.73" y="82.12" width=".45" height="57.12" transform="translate(-25.83 185.81) rotate(-72)"/>
      <rect class="cls-11" x="114.87" y="81.69" width=".45" height="57.12" transform="translate(-25.33 185.65) rotate(-72)"/>
      <rect class="cls-112" x="115.01" y="81.27" width=".45" height="57.12" transform="translate(-24.83 185.48) rotate(-72)"/>
      <rect class="cls-5" x="115.15" y="80.84" width=".45" height="57.12" transform="translate(-24.33 185.32) rotate(-72)"/>
      <rect class="cls-5" x="115.29" y="80.41" width=".45" height="57.12" transform="translate(-23.83 185.16) rotate(-72)"/>
      <rect class="cls-5" x="115.43" y="79.99" width=".45" height="57.12" transform="translate(-23.32 184.99) rotate(-72)"/>
      <rect class="cls-102" x="115.56" y="79.56" width=".45" height="57.12" transform="translate(-22.82 184.83) rotate(-72)"/>
      <rect class="cls-102" x="115.7" y="79.13" width=".45" height="57.12" transform="translate(-22.32 184.67) rotate(-72)"/>
      <rect class="cls-164" x="115.84" y="78.71" width=".45" height="57.12" transform="translate(-21.82 184.51) rotate(-72)"/>
      <rect class="cls-165" x="115.98" y="78.28" width=".45" height="57.12" transform="translate(-21.32 184.34) rotate(-72)"/>
      <rect class="cls-84" x="116.12" y="77.85" width=".45" height="57.12" transform="translate(-20.81 184.18) rotate(-72)"/>
      <rect class="cls-143" x="116.26" y="77.43" width=".45" height="57.12" transform="translate(-20.31 184.02) rotate(-72)"/>
      <rect class="cls-143" x="116.4" y="77" width=".45" height="57.12" transform="translate(-19.81 183.85) rotate(-72)"/>
      <rect class="cls-47" x="116.54" y="76.57" width=".45" height="57.12" transform="translate(-19.31 183.69) rotate(-72)"/>
      <rect class="cls-47" x="116.67" y="76.14" width=".45" height="57.12" transform="translate(-18.81 183.53) rotate(-72)"/>
      <rect class="cls-50" x="116.81" y="75.72" width=".45" height="57.12" transform="translate(-18.3 183.36) rotate(-72)"/>
      <rect class="cls-124" x="116.95" y="75.29" width=".45" height="57.12" transform="translate(-17.8 183.2) rotate(-72)"/>
      <rect class="cls-54" x="117.09" y="74.86" width=".45" height="57.12" transform="translate(-17.3 183.04) rotate(-72)"/>
      <rect class="cls-30" x="117.23" y="74.44" width=".45" height="57.12" transform="translate(-16.8 182.88) rotate(-72)"/>
      <rect class="cls-178" x="117.37" y="74.01" width=".45" height="57.12" transform="translate(-16.3 182.71) rotate(-72)"/>
      <rect class="cls-181" x="117.51" y="73.58" width=".45" height="57.12" transform="translate(-15.8 182.55) rotate(-72)"/>
      <rect class="cls-118" x="117.65" y="73.16" width=".45" height="57.12" transform="translate(-15.29 182.39) rotate(-72)"/>
      <rect class="cls-119" x="117.78" y="72.73" width=".45" height="57.12" transform="translate(-14.79 182.22) rotate(-72)"/>
      <rect class="cls-119" x="117.92" y="72.3" width=".45" height="57.12" transform="translate(-14.29 182.06) rotate(-72)"/>
      <rect class="cls-93" x="118.06" y="71.88" width=".45" height="57.12" transform="translate(-13.79 181.9) rotate(-72)"/>
      <rect class="cls-32" x="118.2" y="71.45" width=".45" height="57.12" transform="translate(-13.29 181.73) rotate(-72)"/>
      <rect class="cls-146" x="118.34" y="71.02" width=".45" height="57.12" transform="translate(-12.78 181.57) rotate(-72)"/>
      <rect class="cls-86" x="118.48" y="70.59" width=".45" height="57.12" transform="translate(-12.28 181.41) rotate(-72)"/>
      <rect class="cls-58" x="118.62" y="70.17" width=".45" height="57.12" transform="translate(-11.78 181.24) rotate(-72)"/>
      <rect class="cls-20" x="118.75" y="69.74" width=".45" height="57.12" transform="translate(-11.28 181.08) rotate(-72)"/>
      <rect class="cls-154" x="118.89" y="69.31" width=".45" height="57.12" transform="translate(-10.78 180.92) rotate(-72)"/>
      <rect class="cls-117" x="119.03" y="68.89" width=".45" height="57.12" transform="translate(-10.27 180.76) rotate(-72)"/>
      <rect class="cls-41" x="119.17" y="68.46" width=".45" height="57.12" transform="translate(-9.77 180.59) rotate(-72)"/>
      <rect class="cls-121" x="119.31" y="68.03" width=".45" height="57.12" transform="translate(-9.27 180.43) rotate(-72)"/>
      <rect class="cls-70" x="119.45" y="67.61" width=".45" height="57.12" transform="translate(-8.77 180.27) rotate(-72)"/>
      <rect class="cls-62" x="119.59" y="67.18" width=".45" height="57.12" transform="translate(-8.27 180.1) rotate(-72)"/>
      <rect class="cls-156" x="119.73" y="66.75" width=".45" height="57.12" transform="translate(-7.77 179.94) rotate(-72)"/>
      <rect class="cls-83" x="119.86" y="66.33" width=".45" height="57.12" transform="translate(-7.26 179.78) rotate(-72)"/>
      <rect class="cls-138" x="120" y="65.9" width=".45" height="57.12" transform="translate(-6.76 179.61) rotate(-72)"/>
      <rect class="cls-130" x="120.14" y="65.47" width=".45" height="57.12" transform="translate(-6.26 179.45) rotate(-72)"/>
      <rect class="cls-8" x="120.28" y="65.04" width=".45" height="57.12" transform="translate(-5.76 179.29) rotate(-72)"/>
      <polygon class="cls-23" points="93.41 84.57 93.55 84.14 147.81 101.77 147.81 101.99 147.74 102.22 93.41 84.57"/>
      <polygon class="cls-24" points="93.55 84.14 93.69 83.71 147.81 101.3 147.81 101.77 93.55 84.14"/>
      <polygon class="cls-162" points="93.69 83.71 93.83 83.29 147.81 100.83 147.81 101.3 93.69 83.71"/>
      <polygon class="cls-59" points="93.83 83.29 93.97 82.86 147.81 100.36 147.81 100.83 93.83 83.29"/>
      <polygon class="cls-103" points="93.97 82.86 94.1 82.43 147.81 99.88 147.81 100.36 93.97 82.86"/>
      <polygon class="cls-134" points="94.1 82.43 94.24 82.01 147.81 99.41 147.81 99.88 94.1 82.43"/>
      <polygon class="cls-45" points="94.24 82.01 94.38 81.58 147.81 98.94 147.81 99.41 94.24 82.01"/>
      <polygon class="cls-166" points="94.38 81.58 94.52 81.15 147.81 98.47 147.81 98.94 94.38 81.58"/>
      <polygon class="cls-75" points="94.52 81.15 94.66 80.72 147.81 98 147.81 98.47 94.52 81.15"/>
      <polygon class="cls-87" points="94.66 80.72 94.8 80.3 147.81 97.52 147.81 98 94.66 80.72"/>
      <polygon class="cls-92" points="94.8 80.3 94.94 79.87 147.81 97.05 147.81 97.52 94.8 80.3"/>
      <polygon class="cls-136" points="94.94 79.87 95.08 79.44 147.81 96.58 147.81 97.05 94.94 79.87"/>
      <polygon class="cls-109" points="95.08 79.44 95.21 79.02 147.81 96.11 147.81 96.58 95.08 79.44"/>
      <polygon class="cls-77" points="95.21 79.02 95.35 78.59 147.81 95.64 147.81 96.11 95.21 79.02"/>
      <polygon class="cls-167" points="95.35 78.59 95.49 78.16 147.81 95.16 147.81 95.64 95.35 78.59"/>
      <polygon class="cls-110" points="95.49 78.16 95.63 77.74 147.81 94.69 147.81 95.16 95.49 78.16"/>
      <polygon class="cls-18" points="95.63 77.74 95.77 77.31 147.81 94.22 147.81 94.69 95.63 77.74"/>
      <polygon class="cls-79" points="95.77 77.31 95.91 76.88 147.81 93.75 147.81 94.22 95.77 77.31"/>
      <polygon class="cls-66" points="95.91 76.88 96.05 76.46 147.81 93.28 147.81 93.75 95.91 76.88"/>
      <polygon class="cls-1" points="96.05 76.46 96.19 76.03 147.81 92.8 147.81 93.28 96.05 76.46"/>
      <polygon class="cls-49" points="96.19 76.03 96.32 75.6 147.81 92.33 147.81 92.8 96.19 76.03"/>
      <polygon class="cls-60" points="96.32 75.6 96.46 75.17 147.81 91.86 147.81 92.33 96.32 75.6"/>
      <polygon class="cls-144" points="96.46 75.17 96.6 74.75 147.81 91.39 147.81 91.86 96.46 75.17"/>
      <polygon class="cls-150" points="96.6 74.75 96.74 74.32 147.81 90.92 147.81 91.39 96.6 74.75"/>
      <polygon class="cls-74" points="96.74 74.32 96.88 73.89 147.81 90.44 147.81 90.92 96.74 74.32"/>
      <polygon class="cls-182" points="96.88 73.89 97.02 73.47 147.81 89.97 147.81 90.44 96.88 73.89"/>
      <polygon class="cls-28" points="97.02 73.47 97.16 73.04 147.81 89.5 147.81 89.97 97.02 73.47"/>
      <polygon class="cls-33" points="97.16 73.04 97.3 72.61 147.81 89.03 147.81 89.5 97.16 73.04"/>
      <polygon class="cls-46" points="97.3 72.61 97.43 72.19 147.81 88.56 147.81 89.03 97.3 72.61"/>
      <polygon class="cls-128" points="97.43 72.19 97.57 71.76 147.81 88.08 147.81 88.56 97.43 72.19"/>
      <polygon class="cls-40" points="97.57 71.76 97.71 71.33 147.81 87.61 147.81 88.08 97.57 71.76"/>
      <polygon class="cls-71" points="97.71 71.33 97.85 70.91 147.81 87.14 147.81 87.61 97.71 71.33"/>
      <polygon class="cls-175" points="97.85 70.91 97.99 70.48 147.81 86.67 147.81 87.14 97.85 70.91"/>
      <polygon class="cls-114" points="97.99 70.48 98.13 70.05 147.81 86.2 147.81 86.67 97.99 70.48"/>
      <polygon class="cls-169" points="98.13 70.05 98.27 69.62 147.81 85.72 147.81 86.2 98.13 70.05"/>
      <polygon class="cls-82" points="98.27 69.62 98.4 69.2 147.81 85.25 147.81 85.72 98.27 69.62"/>
      <polygon class="cls-88" points="98.4 69.2 98.54 68.77 147.81 84.78 147.81 85.25 98.4 69.2"/>
      <polygon class="cls-16" points="98.54 68.77 98.68 68.34 147.81 84.31 147.81 84.78 98.54 68.77"/>
      <polygon class="cls-17" points="98.68 68.34 98.82 67.92 147.81 83.84 147.81 84.31 98.68 68.34"/>
      <polygon class="cls-168" points="98.82 67.92 98.96 67.49 147.81 83.36 147.81 83.84 98.82 67.92"/>
      <polygon class="cls-131" points="98.96 67.49 99.1 67.06 147.81 82.89 147.81 83.36 98.96 67.49"/>
      <polygon class="cls-36" points="99.1 67.06 99.24 66.64 147.81 82.42 147.81 82.89 99.1 67.06"/>
      <polygon class="cls-91" points="99.24 66.64 99.38 66.21 147.81 81.95 147.81 82.42 99.24 66.64"/>
      <polygon class="cls-61" points="99.38 66.21 99.51 65.78 147.81 81.48 147.81 81.95 99.38 66.21"/>
      <polygon class="cls-25" points="99.51 65.78 99.65 65.36 147.81 81 147.81 81.48 99.51 65.78"/>
      <polygon class="cls-148" points="99.65 65.36 99.79 64.93 147.81 80.53 147.81 81 99.65 65.36"/>
      <polygon class="cls-135" points="99.79 64.93 99.93 64.5 147.81 80.06 147.81 80.53 99.79 64.93"/>
      <polygon class="cls-85" points="99.93 64.5 100.07 64.08 147.81 79.59 147.81 80.06 99.93 64.5"/>
      <polygon class="cls-105" points="100.07 64.08 100.21 63.65 147.81 79.12 147.81 79.59 100.07 64.08"/>
      <polygon class="cls-10" points="100.21 63.65 100.35 63.22 147.81 78.64 147.81 79.12 100.21 63.65"/>
      <polygon class="cls-80" points="100.35 63.22 100.48 62.81 100.55 62.81 147.81 78.17 147.81 78.64 100.35 63.22"/>
      <polygon class="cls-81" points="102 62.81 147.81 77.7 147.81 78.17 100.55 62.81 102 62.81"/>
      <polygon class="cls-152" points="103.45 62.81 147.81 77.23 147.81 77.7 102 62.81 103.45 62.81"/>
      <polygon class="cls-139" points="104.91 62.81 147.81 76.76 147.81 77.23 103.45 62.81 104.91 62.81"/>
      <polygon class="cls-151" points="106.36 62.81 147.81 76.28 147.81 76.76 104.91 62.81 106.36 62.81"/>
      <polygon class="cls-127" points="107.81 62.81 147.81 75.81 147.81 76.28 106.36 62.81 107.81 62.81"/>
      <polygon class="cls-44" points="109.26 62.81 147.81 75.34 147.81 75.81 107.81 62.81 109.26 62.81"/>
      <polygon class="cls-39" points="110.72 62.81 147.81 74.87 147.81 75.34 109.26 62.81 110.72 62.81"/>
      <polygon class="cls-125" points="112.17 62.81 147.81 74.4 147.81 74.87 110.72 62.81 112.17 62.81"/>
      <polygon class="cls-26" points="113.62 62.81 147.81 73.92 147.81 74.4 112.17 62.81 113.62 62.81"/>
      <polygon class="cls-48" points="115.07 62.81 147.81 73.45 147.81 73.92 113.62 62.81 115.07 62.81"/>
      <polygon class="cls-72" points="116.53 62.81 147.81 72.98 147.81 73.45 115.07 62.81 116.53 62.81"/>
      <polygon class="cls-107" points="117.98 62.81 147.81 72.51 147.81 72.98 116.53 62.81 117.98 62.81"/>
      <polygon class="cls-27" points="119.43 62.81 147.81 72.04 147.81 72.51 117.98 62.81 119.43 62.81"/>
      <polygon class="cls-4" points="120.89 62.81 147.81 71.56 147.81 72.04 119.43 62.81 120.89 62.81"/>
      <polygon class="cls-89" points="122.34 62.81 147.81 71.09 147.81 71.56 120.89 62.81 122.34 62.81"/>
      <polygon class="cls-157" points="123.79 62.81 147.81 70.62 147.81 71.09 122.34 62.81 123.79 62.81"/>
      <polygon class="cls-14" points="125.24 62.81 147.81 70.15 147.81 70.62 123.79 62.81 125.24 62.81"/>
      <polygon class="cls-12" points="126.7 62.81 147.81 69.68 147.81 70.15 125.24 62.81 126.7 62.81"/>
      <polygon class="cls-51" points="128.15 62.81 147.81 69.2 147.81 69.68 126.7 62.81 128.15 62.81"/>
      <polygon class="cls-120" points="129.6 62.81 147.81 68.73 147.81 69.2 128.15 62.81 129.6 62.81"/>
      <polygon class="cls-137" points="131.05 62.81 147.81 68.26 147.81 68.73 129.6 62.81 131.05 62.81"/>
      <polygon class="cls-137" points="131.4 62.81 147.81 68.15 147.81 68.26 131.05 62.81 131.4 62.81"/>
      <polygon class="cls-137" points="147.81 68.15 131.4 62.81 147.81 62.81 147.81 68.15"/>
    </g>
  </g>
  <path class="cls-137" d="M451.88,223.96c-12.64,0-23.24,10.56-23.24,25.08s10.6,25.21,23.24,25.21,23.24-10.69,23.24-25.21-10.6-25.08-23.24-25.08ZM451.88,271.85c-12.15,0-12.28-12.72-12.28-22.81s.13-22.68,12.28-22.68,12.29,12.71,12.29,22.68-.12,22.81-12.29,22.81ZM425.42,223.96c-4.34,1.08-9.03,1.2-13.49,1.2h-14.63c-2.16-.74-4.61-1.12-7.4-1.12-11.92,0-17.34,9-17.34,16.56,0,6.84,3.61,10.92,9.03,13.56v.25c-4.58.71-9.67,2.8-12.96,9.4-.7,1.4-1.28,2.59-1.75,3.63-3.28-1.86-8.21-2.24-20.18-2.24h-12.88c-1.81,0-3.14-1.2-3.14-2.52,0-6,11.08-6.11,23-7.68,2.53-.24,12.17-3.72,12.17-15,0-3.36-1.69-6.48-1.69-7.8,0-1.2,2.61-2.88,3.81-2.88.85,0,2.05,3.6,4.1,3.6,2.53,0,3.85-2.16,3.85-4.56,0-3.13-2.53-4.09-4.7-4.09-3.98,0-7.66,3.96-8.87,6.72-3.13-4.68-8.07-6.96-15.04-6.96-11.92,0-17.34,9-17.34,16.56,0,6.84,3.61,10.92,9.03,13.56v.24c-4.57.71-12.04,2.64-12.04,9.23,0,.27.03.51.04.77h-.3c-.6,2.04-1.8,5.4-4.21,5.4-2.54,0-2.54-1.92-2.54-5.52v-28.56c0-4.8,0-11.77-16.38-11.77-14.33,0-19.27,7.2-19.27,11.52,0,3.37,1.81,5.77,5.06,5.77,3,0,4.93-2.04,4.93-5.04,0-3.96-3.61-4.56-3.61-5.52,0-3.48,8.55-4.32,11.2-4.32,4.21,0,8.67,1.68,8.67,7.32v11.4c-18.42,0-29.86,6.24-30.23,17.4,0,8.88,6.51,11.76,14.09,11.76,6.14,0,12.16-2.28,16.26-7.32.84,4.44,3.37,7.32,7.82,7.32,4.22,0,7.73-2.44,9.33-6.1,2.06,4.47,7.4,5.15,12.24,5.82v.36c-6.14,1.56-14.09,4.79-14.09,13.2,0,5.04,5.77,12.48,23.12,12.48,7.65,0,15.99-2.37,20.68-8.34,2.47,4.2,8.97,8.34,21.91,8.34,11.44,0,24.44-5.28,24.44-20.04,0-2.6-.51-5.06-1.69-7.27h18.07v-2.76h-7.1v-45.96ZM338.79,240.32c0-11.4,2.89-14.28,8.91-14.28,7.23,0,8.19,7.2,8.19,13.21,0,7.44-.6,13.67-9.39,13.67-6.62,0-7.71-7.2-7.71-12.6ZM310.56,258.76c0,5.04-1.69,6.36-2.65,7.32-2.89,2.51-5.42,3.48-9.27,3.48-5.54,0-9.27-3.6-9.27-9.48,0-11.04,13.37-12.36,21.19-12.48v11.16ZM381.38,240.32c0-11.4,2.89-14.28,8.91-14.28,7.22,0,8.18,7.2,8.18,13.2,0,7.44-.6,13.68-9.39,13.68-6.63,0-7.71-7.2-7.71-12.6ZM347.46,296.84c-6.26,0-14.33-2.52-14.33-10.2,0-4.08,3.97-13.68,18.18-13.68,15.28,0,17.46,3.48,17.46,10.55,0,1.92-.85,13.32-21.32,13.32ZM390.05,296.84c-2.35,0-6.1-.82-8.43-1.67-3.89-1.41-5.9-3.73-5.9-8.53,0-3.06,2.24-9.22,9.35-12.11,2.37-.96,5.29-1.57,8.84-1.57,15.29,0,17.46,3.48,17.46,10.56,0,1.92-.84,13.32-21.31,13.32ZM416.02,269.92h-3.54c-3.73-4.04-7.11-4.72-23.19-4.72h-12.89c-1.8,0-3.13-1.2-3.13-2.52,0-6,11.08-6.12,23-7.68,2.53-.24,12.16-3.72,12.16-15,0-5.28-3.5-9-3.5-9-.79-1.18-1.69-2.2-2.71-3.07h13.79v42ZM413.8,213.77c0-3.12,2.76-5.76,5.77-5.76s6.14,2.64,6.14,5.76c0,3.71-2.65,6.36-6.14,6.36s-5.77-2.88-5.77-6.36ZM501.97,213.91c0-3.13,2.77-5.76,5.78-5.76s6.14,2.63,6.14,5.76c0,3.72-2.65,6.36-6.14,6.36s-5.78-2.88-5.78-6.36ZM519.68,269.92v2.76h-49.45v-2.76h9.27v-74.19h-9.27v-2.76h5.17c4.46,0,9.15-.24,13.49-1.08v78.02h14.29v-42h-8.07v-2.76h3.97c4.46,0,9.15-.12,13.49-1.2v45.96h7.11ZM271.62,269.92h9.15v2.76h-30.11v-2.76h9.27v-73.2h-.24l-23.36,75.97h-3.13l-22.52-75.97h-.24v73.2h9.03v2.76h-21.68v-2.76h9.03v-74.64h-9.03v-2.76h24.08l16.98,59.04h.24l17.7-59.04h23.97v2.76h-9.15v74.64Z"/>
  <path class="cls-3" d="M290.81,3.37h-8.14V.95h4.55c3.91,0,8.03-.21,11.84-.95v71.12h8.14v2.42h-24.53v-2.42h8.14V3.37ZM311.53,64.8c0,5.05,2.11,10.22,12.47,10.22,6.88,0,12.58-3.48,15.33-9.27h.21v8.53c3.81-.42,7.72-.74,11.52-.74h35.84v-15.28h-2.01c-1.58,7.59-3.7,12.85-8.98,12.85h-13.32l24.53-36.67v-2.63h-31.72v13.7h2.43c1.59-10.43,4.76-11.28,10.25-11.28h9.41l-24.67,36.88h-5.57V30.77c-3.81.95-7.93,1.05-11.84,1.05h-2.43v2.42h6.02v23.6c0,7.59-5.28,13.8-12.79,13.8-3.17,0-6.45-1.37-6.45-7.8V30.77c-3.81.95-7.93,1.05-11.84,1.05h-2.11v2.42h5.71v30.56ZM203.59,69.23c4.34,4.32,10.25,5.9,16.17,5.9,13.85,0,22.94-8.95,22.94-23.39,0-28.66-40.07-17.39-40.07-34.88,0-7.9,7.82-12.85,15.01-12.85,9.41,0,15.64,6.85,17.97,15.59h2.11V3.16h-1.48l-4.02,3.05c-2.11-1.58-8.98-4.63-13.85-4.63-8.03,0-13.22,3.37-16.39,7.48-3.07,4-4.34,7.69-4.34,12.01,0,5.9,2.43,12.33,8.56,16.12,1.58,1.05,17.97,6.43,21.88,7.9,8.14,3.27,9.62,6.11,9.62,12.33,0,9.27-8.67,15.27-17.76,15.27-10.25,0-17.55-7.38-20.4-16.96h-2.01v18.12h1.48l4.55-4.63ZM243.03,52.79c0-12.75,9.3-22.02,20.4-22.02s20.4,9.27,20.4,22.02-9.3,22.13-20.4,22.13-20.4-9.38-20.4-22.13ZM252.64,52.79c0,8.85.11,20.02,10.78,20.02s10.78-11.17,10.78-20.02-.11-19.91-10.78-19.91-10.78,11.17-10.78,19.91ZM509.53,24.37c3.07,0,5.39-2.32,5.39-5.59,0-2.74-2.85-5.05-5.39-5.05s-5.07,2.32-5.07,5.05c0,3.05,2.01,5.59,5.07,5.59ZM513.76,71.12V30.77c-3.81.95-7.93,1.05-11.84,1.05h-3.49v2.42h7.08v36.88h-12.26v-29.82c0-9.7-8.77-10.54-12.58-10.54-7.72,0-11.84,4.53-14.8,11.17h-.21v-11.17c-1.91.42-3.91.74-5.92.84-1.9.21-3.91.21-5.92.21h-2.22v2.42h5.82v36.88h-5.82v2.42h19.77v-2.42h-5.71v-19.6c0-7.9,5.49-17.7,12.68-17.7,4.23,0,6.66,1.16,6.66,8.85v28.45h-5.5v2.42h40.49v-2.42h-6.24ZM411,52.79c0-12.75,9.3-22.02,20.41-22.02s20.4,9.27,20.4,22.02-9.3,22.13-20.4,22.13-20.41-9.38-20.41-22.13ZM420.63,52.79c0,8.85.1,20.02,10.78,20.02s10.78-11.17,10.78-20.02-.1-19.91-10.78-19.91-10.78,11.17-10.78,19.91ZM399.38,24.37c3.07,0,5.39-2.32,5.39-5.59,0-2.74-2.85-5.05-5.39-5.05s-5.08,2.32-5.08,5.05c0,3.05,2.01,5.59,5.08,5.59ZM409.84,71.12h-6.24V30.77c-3.81.95-7.93,1.05-11.84,1.05h-3.49v2.42h7.08v36.88h-7.08v2.42h21.56v-2.42ZM198.07,96.78h9.32v67.21h-9.32v2.49h29.16v-2.49h-9.32v-67.21h9.32v-2.48h-29.16v2.48ZM411.65,132.65c-1.95,0-4.23-2.16-4.23-4.32,0-.87.43-1.84.43-2.27,0-.65-.65-.65-.98-.65-.11,0-3.79,1.51-6.18,6.37-1.52,3.14-2.71,7.35-2.71,11.67v20.53h8.35v2.49h-23.61c1.04,1.97,1.49,4.17,1.49,6.48,0,13.29-11.71,18.05-22.01,18.05-15.61,0-20.82-6.7-20.82-11.23,0-7.57,7.16-10.48,12.69-11.89v-.33c-5.53-.76-11.82-1.51-11.82-9.29,0-5.95,6.72-7.67,10.84-8.32v-.22c-4.88-2.37-8.13-6.05-8.13-12.21,0-6.81,4.88-14.91,15.62-14.91,6.29,0,10.73,2.05,13.55,6.27,1.08-2.49,3.36-6.05,6.94-6.05,1.02,0,2.11.24,2.94.87h1.51c4.01,0,8.24-.11,12.14-1.08v10.15h.22c1.95-4.86,6.29-10.15,12.25-10.15,3.69,0,6.61,1.94,6.61,6.05,0,2.7-2.82,4-5.1,4ZM353.43,137.62c0,4.86.98,11.35,6.94,11.35,7.92,0,8.46-5.62,8.46-12.32,0-5.4-.87-11.89-7.38-11.89-5.42,0-8.02,2.59-8.02,12.86ZM380.42,176.52c0-6.37-1.95-9.51-15.72-9.51-12.79,0-16.37,8.65-16.37,12.32,0,6.91,7.26,9.19,12.9,9.19,18.43,0,19.19-10.27,19.19-12ZM389.53,126.17h-4.26c0,.11.03.2.03.32,0,2.16-1.2,4.11-3.47,4.11-1.84,0-2.93-3.24-3.69-3.24-1.08,0-2.39,1.51-2.39,2.59,0,1.19,1.52,4,1.52,7.03,0,10.15-8.67,13.29-10.95,13.51-10.73,1.4-20.71,1.51-20.71,6.91,0,1.19,1.19,2.27,2.82,2.27h11.6c14.85,0,17.67.65,21.14,4.54.36.42.68.86.97,1.3v-1.52h7.37v-37.82ZM455.12,159.02h1.84c-.33,5.08-4.23,8.86-9.22,8.86-4.01,0-6.29-2.59-7.05-6.59-3.69,4.54-9.1,6.59-14.64,6.59-6.83,0-12.69-2.59-12.69-10.59.33-10.05,10.63-15.67,27.21-15.67v-10.27c0-5.08-4.01-6.59-7.81-6.59-2.39,0-10.08.75-10.08,3.89,0,.87,3.26,1.41,3.26,4.97,0,2.7-1.74,4.54-4.45,4.54-2.93,0-4.55-2.16-4.55-5.19,0-3.89,4.45-10.37,17.35-10.37,14.74,0,14.74,6.27,14.74,10.59v25.72c0,3.24,0,4.97,2.28,4.97s3.25-3.03,3.79-4.86ZM440.6,143.89c-7.05.11-19.08,1.29-19.08,11.24,0,5.29,3.36,8.53,8.35,8.53,3.47,0,5.75-.86,8.35-3.13.87-.86,2.39-2.05,2.39-6.59v-10.05ZM309.95,141.84v4.43c0,10.69,1.41,19.34,13.23,19.34,6.18,0,13.44-5.4,14.96-12.53h2.38c-2.17,10.05-9.54,14.8-19.08,14.8-11.06,0-21.68-8.86-21.68-20.86,0-12.75,8.46-24.42,21.36-24.42,11.06,0,19.4,7.45,19.51,19.23h-30.68ZM310.06,138.7h20.71v-3.67c0-7.78-4.55-10.27-9.97-10.27-6.51,0-9.43,6.05-9.65,6.81-.65,1.95-.98,4.43-1.08,7.13ZM472.25,164.1c-4.12,0-4.12-2.91-4.12-4.86v-33.06h9.54v-2.49h-9.54v-13.72c-2.71.43-5.42.43-8.24.43v13.29h-6.4v2.49h6.18v32.31c0,5.19.86,9.4,8.67,9.4,4.34,0,9.65-2.49,11.71-6.59l-1.73-1.19c-1.74,2.05-3.26,4-6.07,4ZM489.17,141.84v4.43c0,10.69,1.41,19.34,13.22,19.34,6.18,0,13.44-5.4,14.96-12.53h2.39c-2.17,10.05-9.54,14.8-19.08,14.8-11.06,0-21.68-8.86-21.68-20.86,0-12.75,8.46-24.42,21.36-24.42,11.06,0,19.41,7.45,19.52,19.23h-30.68ZM489.27,138.7h20.71v-3.67c0-7.78-4.55-10.27-9.97-10.27-6.51,0-9.44,6.05-9.65,6.81-.65,1.95-.98,4.43-1.08,7.13ZM270.27,133.41c0-9.94-9-10.81-12.9-10.81-7.91,0-12.14,4.65-15.18,11.45h-.22v-11.45c-1.95.43-4.01.75-6.07.86-1.95.22-4.01.22-6.07.22h-2.28v2.49h5.97v37.82h-5.97v2.49h20.28v-2.49h-5.86v-20.1c0-8.11,5.64-18.15,13.01-18.15,4.34,0,6.83,1.19,6.83,9.07v29.18h-5.64v2.49h19.95v-2.49h-5.85v-30.58ZM293.04,164.1c-4.12,0-4.12-2.91-4.12-4.86v-33.06h9.54v-2.49h-9.54v-13.72c-2.71.43-5.42.43-8.24.43v13.29h-6.4v2.49h6.18v32.31c0,5.19.87,9.4,8.67,9.4,4.34,0,9.65-2.49,11.71-6.59l-1.73-1.19c-1.73,2.05-3.25,4-6.07,4Z"/>
</svg>